<svg width="261" height="48" viewBox="0 0 261 48" fill="none" xmlns="http://www.w3.org/2000/svg">
<rect width="261" height="48" rx="10" fill="#A2A2A2"/>
<path d="M0 10C0 4.47715 4.47715 0 10 0H87L65.5253 48H10C4.47715 48 0 43.5228 0 38V10Z" fill="white" fill-opacity="0.5"/>
<circle cx="34.5" cy="24.5" r="14.5" stroke="#A1A1A1" stroke-width="6"/>
<path d="M117.339 14.0909V33H114.717L105.106 19.1321H104.93V33H102.077V14.0909H104.718L114.339 27.9773H114.514V14.0909H117.339ZM127.253 33.2862C125.924 33.2862 124.764 32.9815 123.773 32.3722C122.782 31.7628 122.012 30.9103 121.464 29.8146C120.916 28.719 120.643 27.4387 120.643 25.9737C120.643 24.5026 120.916 23.2161 121.464 22.1143C122.012 21.0125 122.782 20.157 123.773 19.5476C124.764 18.9382 125.924 18.6335 127.253 18.6335C128.583 18.6335 129.743 18.9382 130.734 19.5476C131.725 20.157 132.495 21.0125 133.042 22.1143C133.59 23.2161 133.864 24.5026 133.864 25.9737C133.864 27.4387 133.59 28.719 133.042 29.8146C132.495 30.9103 131.725 31.7628 130.734 32.3722C129.743 32.9815 128.583 33.2862 127.253 33.2862ZM127.263 30.9688C128.124 30.9688 128.838 30.741 129.405 30.2855C129.971 29.83 130.39 29.2237 130.66 28.4666C130.937 27.7095 131.076 26.8755 131.076 25.9645C131.076 25.0597 130.937 24.2287 130.66 23.4716C130.39 22.7083 129.971 22.0959 129.405 21.6342C128.838 21.1726 128.124 20.9418 127.263 20.9418C126.395 20.9418 125.675 21.1726 125.102 21.6342C124.536 22.0959 124.114 22.7083 123.837 23.4716C123.566 24.2287 123.431 25.0597 123.431 25.9645C123.431 26.8755 123.566 27.7095 123.837 28.4666C124.114 29.2237 124.536 29.83 125.102 30.2855C125.675 30.741 126.395 30.9688 127.263 30.9688ZM136.946 33V18.8182H139.614V21.071H139.762C140.02 20.3078 140.476 19.7076 141.128 19.2706C141.787 18.8274 142.532 18.6058 143.363 18.6058C143.535 18.6058 143.738 18.612 143.972 18.6243C144.212 18.6366 144.4 18.652 144.535 18.6705V21.3111C144.424 21.2803 144.227 21.2464 143.944 21.2095C143.661 21.1664 143.378 21.1449 143.095 21.1449C142.442 21.1449 141.861 21.2834 141.35 21.5604C140.845 21.8312 140.445 22.2098 140.15 22.696C139.854 23.1761 139.706 23.724 139.706 24.3395V33H136.946ZM146.924 33V18.8182H149.574V21.1264H149.749C150.045 20.3447 150.528 19.7353 151.199 19.2983C151.87 18.8551 152.673 18.6335 153.609 18.6335C154.557 18.6335 155.351 18.8551 155.991 19.2983C156.637 19.7415 157.114 20.3509 157.422 21.1264H157.57C157.908 20.3693 158.447 19.7661 159.186 19.3168C159.924 18.8613 160.804 18.6335 161.826 18.6335C163.113 18.6335 164.162 19.0367 164.975 19.843C165.793 20.6494 166.203 21.8651 166.203 23.4901V33H163.442V23.7486C163.442 22.7884 163.18 22.0928 162.657 21.6619C162.134 21.2311 161.509 21.0156 160.783 21.0156C159.884 21.0156 159.186 21.2926 158.687 21.8466C158.188 22.3944 157.939 23.0992 157.939 23.9609V33H155.188V23.5732C155.188 22.8037 154.948 22.1851 154.468 21.7173C153.987 21.2495 153.363 21.0156 152.593 21.0156C152.07 21.0156 151.587 21.1541 151.144 21.4311C150.707 21.7019 150.353 22.0805 150.082 22.5668C149.817 23.053 149.685 23.6162 149.685 24.2564V33H146.924ZM174.03 33.3139C173.131 33.3139 172.319 33.1477 171.592 32.8153C170.866 32.4768 170.29 31.9875 169.866 31.3473C169.447 30.7071 169.238 29.9223 169.238 28.9929C169.238 28.1927 169.392 27.5341 169.7 27.017C170.007 26.5 170.423 26.0907 170.946 25.7891C171.469 25.4875 172.054 25.2597 172.7 25.1058C173.347 24.9519 174.005 24.835 174.676 24.755C175.526 24.6565 176.215 24.5765 176.744 24.5149C177.274 24.4472 177.658 24.3395 177.898 24.1918C178.138 24.044 178.259 23.804 178.259 23.4716V23.407C178.259 22.6006 178.031 21.9759 177.575 21.5327C177.126 21.0895 176.455 20.8679 175.562 20.8679C174.633 20.8679 173.901 21.0741 173.365 21.4865C172.836 21.8928 172.469 22.3452 172.266 22.8438L169.672 22.2528C169.98 21.3911 170.429 20.6955 171.02 20.1662C171.617 19.6307 172.303 19.2429 173.079 19.0028C173.854 18.7566 174.67 18.6335 175.526 18.6335C176.092 18.6335 176.692 18.7012 177.326 18.8366C177.966 18.9659 178.563 19.206 179.117 19.5568C179.677 19.9077 180.136 20.4093 180.493 21.0618C180.85 21.7081 181.028 22.5483 181.028 23.5824V33H178.332V31.0611H178.222C178.043 31.4181 177.775 31.7689 177.418 32.1136C177.061 32.4583 176.603 32.7446 176.043 32.9723C175.482 33.2 174.812 33.3139 174.03 33.3139ZM174.63 31.098C175.393 31.098 176.046 30.9472 176.587 30.6456C177.135 30.344 177.551 29.95 177.834 29.4638C178.123 28.9714 178.268 28.4451 178.268 27.8849V26.0568C178.169 26.1553 177.978 26.2476 177.695 26.3338C177.418 26.4138 177.101 26.4846 176.744 26.5462C176.387 26.6016 176.04 26.6539 175.701 26.7031C175.362 26.7462 175.079 26.7831 174.852 26.8139C174.316 26.8816 173.827 26.9955 173.384 27.1555C172.946 27.3156 172.596 27.5464 172.331 27.848C172.072 28.1435 171.943 28.5374 171.943 29.0298C171.943 29.7131 172.196 30.2301 172.7 30.581C173.205 30.9257 173.848 31.098 174.63 31.098ZM187.466 14.0909V33H184.705V14.0909H187.466Z" fill="black"/>
</svg>
