<svg width="258" height="258" viewBox="0 0 258 258" fill="none" xmlns="http://www.w3.org/2000/svg">
<g filter="url(#filter0_d_347_18)">
<circle cx="129" cy="125" r="125" fill="#54ADFF"/>
</g>
<path d="M129 203.123C112.464 203.123 97.9142 197.253 85.3517 185.512C72.784 173.765 66.5001 157.874 66.5001 137.837C66.5001 125.23 71.1876 111.563 80.5626 96.8334C89.9376 82.1041 104.13 66.1805 123.141 49.0627C123.922 48.3992 124.833 47.8684 125.875 47.4703C126.917 47.0722 127.958 46.8732 129 46.8732C130.042 46.8732 131.083 47.0722 132.125 47.4703C133.167 47.8684 134.078 48.3992 134.859 49.0627C153.87 66.1805 168.063 82.1041 177.438 96.8334C186.813 111.563 191.5 125.23 191.5 137.837C191.5 157.874 185.216 173.765 172.649 185.512C160.086 197.253 145.537 203.123 129 203.123ZM131.149 179.238C132.711 179.105 134.047 178.476 135.156 177.351C136.261 176.22 136.813 174.859 136.813 173.266C136.813 171.409 136.227 169.917 135.055 168.792C133.883 167.661 132.386 167.162 130.563 167.295C125.224 167.693 119.56 166.202 113.57 162.821C107.581 159.434 103.805 153.296 102.242 144.405C101.982 142.945 101.297 141.751 100.188 140.822C99.0835 139.893 97.8152 139.429 96.3829 139.429C94.56 139.429 93.0626 140.124 91.8907 141.515C90.7189 142.911 90.3282 144.538 90.7189 146.395C92.9324 158.471 98.1408 167.096 106.344 172.271C114.547 177.446 122.815 179.769 131.149 179.238Z" fill="white"/>
<defs>
<filter id="filter0_d_347_18" x="0" y="0" width="258" height="258" filterUnits="userSpaceOnUse" color-interpolation-filters="sRGB">
<feFlood flood-opacity="0" result="BackgroundImageFix"/>
<feColorMatrix in="SourceAlpha" type="matrix" values="0 0 0 0 0 0 0 0 0 0 0 0 0 0 0 0 0 0 127 0" result="hardAlpha"/>
<feOffset dy="4"/>
<feGaussianBlur stdDeviation="2"/>
<feComposite in2="hardAlpha" operator="out"/>
<feColorMatrix type="matrix" values="0 0 0 0 0 0 0 0 0 0 0 0 0 0 0 0 0 0 0.5 0"/>
<feBlend mode="normal" in2="BackgroundImageFix" result="effect1_dropShadow_347_18"/>
<feBlend mode="normal" in="SourceGraphic" in2="effect1_dropShadow_347_18" result="shape"/>
</filter>
</defs>
</svg>
