<svg width="258" height="258" viewBox="0 0 258 258" fill="none" xmlns="http://www.w3.org/2000/svg">
<g filter="url(#filter0_d_347_15)">
<circle cx="129" cy="125" r="125" fill="#C38F5C"/>
</g>
<path d="M100.273 50.544C109.902 49.1761 120.102 59.5565 123.04 73.8799C125.978 88.1228 120.673 100.837 111.044 102.285C101.497 103.734 91.2145 93.3532 88.1952 79.0298C85.1759 64.7869 90.6433 52.0729 100.273 50.544ZM158.619 50.544C168.33 52.0729 173.716 64.7869 170.86 79.0298C167.759 93.3532 157.558 103.734 147.929 102.285C138.218 100.837 132.914 88.1228 135.933 73.8799C138.871 59.5565 149.071 49.1761 158.619 50.544ZM56.6146 87.5595C65.9174 83.6166 78.566 90.7782 85.1759 103.251C91.3777 115.965 89.256 129.323 80.0348 133.266C70.8137 137.209 58.2467 130.127 51.8 117.494C45.3534 104.86 47.6383 91.422 56.6146 87.5595ZM203.501 87.5595C212.477 91.422 214.762 104.86 208.316 117.494C201.869 130.127 189.302 137.209 180.081 133.266C170.86 129.323 168.738 115.965 174.94 103.251C181.55 90.7782 194.198 83.6166 203.501 87.5595ZM189.873 174.304C190.2 181.868 184.324 190.237 177.306 193.376C162.699 199.974 145.399 186.294 129.16 186.294C112.921 186.294 95.4579 200.537 81.0957 193.376C72.9353 189.433 67.3047 178.972 68.3655 170.281C69.8344 158.291 84.4414 151.854 93.0914 143.083C104.597 131.737 112.758 110.413 129.16 110.413C145.481 110.413 154.131 131.415 165.147 143.083C174.205 152.9 189.302 161.188 189.873 174.304Z" fill="white"/>
<defs>
<filter id="filter0_d_347_15" x="0" y="0" width="258" height="258" filterUnits="userSpaceOnUse" color-interpolation-filters="sRGB">
<feFlood flood-opacity="0" result="BackgroundImageFix"/>
<feColorMatrix in="SourceAlpha" type="matrix" values="0 0 0 0 0 0 0 0 0 0 0 0 0 0 0 0 0 0 127 0" result="hardAlpha"/>
<feOffset dy="4"/>
<feGaussianBlur stdDeviation="2"/>
<feComposite in2="hardAlpha" operator="out"/>
<feColorMatrix type="matrix" values="0 0 0 0 0 0 0 0 0 0 0 0 0 0 0 0 0 0 0.5 0"/>
<feBlend mode="normal" in2="BackgroundImageFix" result="effect1_dropShadow_347_15"/>
<feBlend mode="normal" in="SourceGraphic" in2="effect1_dropShadow_347_15" result="shape"/>
</filter>
</defs>
</svg>
