<svg width="258" height="258" viewBox="0 0 258 258" fill="none" xmlns="http://www.w3.org/2000/svg">
<g filter="url(#filter0_d_347_24)">
<circle cx="129" cy="125" r="125" fill="#FF7D05"/>
</g>
<path d="M125.836 60.8205L117.633 55.9052L116.07 65.3387C113.583 80.2346 103.408 94.0757 92.1835 103.802C70.2109 122.852 65.3997 143.555 72.2031 160.645C78.7135 176.999 95.2369 188.197 112.008 190.065L115.888 190.495C106.292 184.629 100.133 170.925 102.281 160.684C104.404 150.619 111.643 141.192 125.549 132.494L132.561 128.119L135.178 135.964C136.721 140.599 139.391 144.323 142.105 148.106C143.408 149.929 144.729 151.771 145.94 153.731C150.126 160.534 151.233 168.099 148.531 175.606C146.07 182.429 142.008 187.793 136.422 190.768L142.737 190.065C158.479 188.314 170.035 182.93 177.542 173.926C184.983 165 187.594 153.509 187.594 141.276C187.594 129.883 182.913 118.138 177.392 108.366C170.921 96.9208 162.477 87.4156 153.258 78.2033C151.663 81.3934 151.786 82.6825 148.505 87.8062C144.246 76.4898 136.248 66.9685 125.836 60.8205Z" fill="white"/>
<defs>
<filter id="filter0_d_347_24" x="0" y="0" width="258" height="258" filterUnits="userSpaceOnUse" color-interpolation-filters="sRGB">
<feFlood flood-opacity="0" result="BackgroundImageFix"/>
<feColorMatrix in="SourceAlpha" type="matrix" values="0 0 0 0 0 0 0 0 0 0 0 0 0 0 0 0 0 0 127 0" result="hardAlpha"/>
<feOffset dy="4"/>
<feGaussianBlur stdDeviation="2"/>
<feComposite in2="hardAlpha" operator="out"/>
<feColorMatrix type="matrix" values="0 0 0 0 0 0 0 0 0 0 0 0 0 0 0 0 0 0 0.5 0"/>
<feBlend mode="normal" in2="BackgroundImageFix" result="effect1_dropShadow_347_24"/>
<feBlend mode="normal" in="SourceGraphic" in2="effect1_dropShadow_347_24" result="shape"/>
</filter>
</defs>
</svg>
