<svg width="258" height="258" viewBox="0 0 258 258" fill="none" xmlns="http://www.w3.org/2000/svg">
<g filter="url(#filter0_d_347_21)">
<circle cx="129" cy="125" r="125" fill="#FFCA42"/>
</g>
<path d="M147.64 50.985C147.64 50.1782 147.408 49.3892 146.973 48.7163C146.538 48.0434 145.919 47.5164 145.194 47.2008C144.468 46.8852 143.668 46.795 142.893 46.9415C142.117 47.088 141.401 47.4646 140.834 48.0246L126.546 62.0866C105.277 83.0165 87.3049 107.192 73.2692 133.754C72.9238 134.379 72.7446 135.086 72.7494 135.804C72.7541 136.523 72.9427 137.227 73.2962 137.848C73.6498 138.468 74.1561 138.983 74.7647 139.341C75.3732 139.699 76.0628 139.888 76.7647 139.888H111.399V199.006C111.398 199.804 111.623 200.585 112.048 201.253C112.473 201.922 113.079 202.45 113.792 202.772C114.505 203.095 115.294 203.198 116.063 203.07C116.833 202.941 117.549 202.587 118.125 202.049L124.513 196.087C146.89 175.227 165.881 150.855 180.771 123.885L184.725 116.731C185.072 116.105 185.253 115.398 185.249 114.678C185.245 113.959 185.057 113.253 184.703 112.631C184.35 112.009 183.843 111.493 183.233 111.135C182.623 110.776 181.932 110.588 181.229 110.588H147.64V50.985Z" fill="white"/>
<defs>
<filter id="filter0_d_347_21" x="0" y="0" width="258" height="258" filterUnits="userSpaceOnUse" color-interpolation-filters="sRGB">
<feFlood flood-opacity="0" result="BackgroundImageFix"/>
<feColorMatrix in="SourceAlpha" type="matrix" values="0 0 0 0 0 0 0 0 0 0 0 0 0 0 0 0 0 0 127 0" result="hardAlpha"/>
<feOffset dy="4"/>
<feGaussianBlur stdDeviation="2"/>
<feComposite in2="hardAlpha" operator="out"/>
<feColorMatrix type="matrix" values="0 0 0 0 0 0 0 0 0 0 0 0 0 0 0 0 0 0 0.5 0"/>
<feBlend mode="normal" in2="BackgroundImageFix" result="effect1_dropShadow_347_21"/>
<feBlend mode="normal" in="SourceGraphic" in2="effect1_dropShadow_347_21" result="shape"/>
</filter>
</defs>
</svg>
