<svg width="261" height="48" viewBox="0 0 261 48" fill="none" xmlns="http://www.w3.org/2000/svg">
<rect width="261" height="48" rx="10" fill="#FCD148"/>
<path d="M106.077 33V14.0909H117.933V16.5469H108.93V22.3082H117.314V24.755H108.93V30.544H118.043V33H106.077ZM124.282 14.0909V33H121.522V14.0909H124.282ZM134.109 33.2862C132.711 33.2862 131.508 32.9877 130.499 32.3906C129.495 31.7874 128.72 30.9411 128.172 29.8516C127.63 28.7559 127.359 27.4725 127.359 26.0014C127.359 24.5488 127.63 23.2685 128.172 22.1605C128.72 21.0526 129.483 20.1877 130.462 19.5661C131.446 18.9444 132.598 18.6335 133.915 18.6335C134.715 18.6335 135.491 18.7659 136.241 19.0305C136.992 19.2952 137.666 19.7107 138.263 20.277C138.861 20.8433 139.331 21.5788 139.676 22.4837C140.021 23.3823 140.193 24.4749 140.193 25.7614V26.7401H128.92V24.6719H137.488C137.488 23.9455 137.34 23.3023 137.045 22.7422C136.749 22.1759 136.334 21.7296 135.798 21.4034C135.269 21.0772 134.647 20.9141 133.933 20.9141C133.158 20.9141 132.481 21.1049 131.902 21.4865C131.33 21.862 130.886 22.3544 130.572 22.9638C130.265 23.567 130.111 24.2225 130.111 24.9304V26.5462C130.111 27.4941 130.277 28.3004 130.609 28.9652C130.948 29.63 131.419 30.1378 132.022 30.4886C132.625 30.8333 133.33 31.0057 134.136 31.0057C134.66 31.0057 135.137 30.9318 135.567 30.7841C135.998 30.6302 136.371 30.4025 136.685 30.1009C136.999 29.7992 137.239 29.4268 137.405 28.9837L140.018 29.4545C139.808 30.224 139.433 30.898 138.891 31.4766C138.356 32.049 137.682 32.4953 136.869 32.8153C136.063 33.1293 135.143 33.2862 134.109 33.2862ZM149.23 33.2862C147.857 33.2862 146.675 32.9754 145.684 32.3537C144.7 31.7259 143.943 30.861 143.413 29.7592C142.884 28.6574 142.619 27.3956 142.619 25.9737C142.619 24.5334 142.89 23.2623 143.432 22.1605C143.973 21.0526 144.737 20.1877 145.721 19.5661C146.706 18.9444 147.867 18.6335 149.202 18.6335C150.279 18.6335 151.24 18.8336 152.083 19.2337C152.926 19.6276 153.606 20.1816 154.123 20.8956C154.647 21.6096 154.957 22.4437 155.056 23.3977H152.369C152.221 22.733 151.883 22.1605 151.354 21.6804C150.83 21.2003 150.129 20.9602 149.248 20.9602C148.479 20.9602 147.805 21.1634 147.226 21.5696C146.654 21.9697 146.208 22.5421 145.888 23.2869C145.568 24.0256 145.407 24.8996 145.407 25.9091C145.407 26.9432 145.564 27.8357 145.878 28.5866C146.192 29.3376 146.635 29.9193 147.208 30.3317C147.787 30.7441 148.467 30.9503 149.248 30.9503C149.772 30.9503 150.246 30.8549 150.67 30.6641C151.101 30.4671 151.461 30.187 151.751 29.8239C152.046 29.4607 152.252 29.0237 152.369 28.5128H155.056C154.957 29.4299 154.659 30.2486 154.16 30.9688C153.662 31.6889 152.994 32.2552 152.157 32.6676C151.326 33.08 150.35 33.2862 149.23 33.2862ZM164.628 18.8182V21.0341H156.882V18.8182H164.628ZM158.959 15.4205H161.72V28.8359C161.72 29.3714 161.8 29.7746 161.96 30.0455C162.12 30.3101 162.326 30.4917 162.578 30.5902C162.837 30.6825 163.117 30.7287 163.419 30.7287C163.64 30.7287 163.834 30.7133 164 30.6825C164.167 30.6518 164.296 30.6271 164.388 30.6087L164.887 32.8892C164.727 32.9508 164.499 33.0123 164.203 33.0739C163.908 33.1416 163.539 33.1785 163.096 33.1847C162.369 33.197 161.692 33.0677 161.064 32.7969C160.436 32.526 159.929 32.1075 159.541 31.5412C159.153 30.9749 158.959 30.264 158.959 29.4084V15.4205ZM167.682 33V18.8182H170.35V21.071H170.498C170.757 20.3078 171.212 19.7076 171.865 19.2706C172.523 18.8274 173.268 18.6058 174.099 18.6058C174.271 18.6058 174.474 18.612 174.708 18.6243C174.948 18.6366 175.136 18.652 175.271 18.6705V21.3111C175.161 21.2803 174.964 21.2464 174.681 21.2095C174.397 21.1664 174.114 21.1449 173.831 21.1449C173.179 21.1449 172.597 21.2834 172.086 21.5604C171.581 21.8312 171.181 22.2098 170.886 22.696C170.59 23.1761 170.443 23.724 170.443 24.3395V33H167.682ZM177.661 33V18.8182H180.421V33H177.661ZM179.055 16.63C178.575 16.63 178.162 16.4699 177.817 16.1499C177.479 15.8236 177.31 15.4358 177.31 14.9865C177.31 14.531 177.479 14.1432 177.817 13.8232C178.162 13.4969 178.575 13.3338 179.055 13.3338C179.535 13.3338 179.944 13.4969 180.283 13.8232C180.627 14.1432 180.8 14.531 180.8 14.9865C180.8 15.4358 180.627 15.8236 180.283 16.1499C179.944 16.4699 179.535 16.63 179.055 16.63ZM193.71 38.3182V30.7933H193.544C193.377 31.0949 193.137 31.4396 192.823 31.8274C192.516 32.2152 192.091 32.5537 191.549 32.843C191.008 33.1323 190.306 33.277 189.444 33.277C188.299 33.277 187.277 32.9846 186.379 32.3999C185.486 31.8089 184.785 30.9687 184.274 29.8793C183.769 28.7836 183.517 27.4695 183.517 25.9368C183.517 24.4041 183.772 23.093 184.283 22.0036C184.8 20.9141 185.508 20.08 186.406 19.5014C187.305 18.9228 188.324 18.6335 189.463 18.6335C190.343 18.6335 191.051 18.7812 191.586 19.0767C192.128 19.366 192.546 19.7045 192.842 20.0923C193.143 20.4801 193.377 20.8217 193.544 21.1172H193.774V18.8182H196.47V38.3182H193.71ZM190.053 30.9226C190.847 30.9226 191.518 30.7133 192.066 30.2947C192.62 29.87 193.039 29.2822 193.322 28.5312C193.611 27.7803 193.756 26.9062 193.756 25.9091C193.756 24.9242 193.614 24.0625 193.331 23.3239C193.048 22.5852 192.633 22.0097 192.085 21.5973C191.537 21.1849 190.86 20.9787 190.053 20.9787C189.222 20.9787 188.53 21.1941 187.976 21.625C187.422 22.0559 187.003 22.6437 186.72 23.3885C186.443 24.1333 186.305 24.9735 186.305 25.9091C186.305 26.857 186.446 27.7095 186.73 28.4666C187.013 29.2237 187.431 29.8239 187.985 30.267C188.545 30.7041 189.235 30.9226 190.053 30.9226ZM209.166 27.1186V18.8182H211.936V33H209.221V30.544H209.073C208.747 31.3011 208.224 31.9321 207.504 32.4368C206.79 32.9354 205.9 33.1847 204.835 33.1847C203.924 33.1847 203.118 32.9846 202.416 32.5845C201.721 32.1783 201.173 31.5781 200.773 30.7841C200.379 29.9901 200.182 29.0083 200.182 27.8388V18.8182H202.943V27.5064C202.943 28.4728 203.21 29.2422 203.746 29.8146C204.281 30.3871 204.977 30.6733 205.833 30.6733C206.35 30.6733 206.864 30.544 207.374 30.2855C207.892 30.027 208.319 29.6361 208.658 29.1129C209.003 28.5897 209.172 27.925 209.166 27.1186ZM221.757 33.2862C220.36 33.2862 219.156 32.9877 218.147 32.3906C217.144 31.7874 216.368 30.9411 215.82 29.8516C215.279 28.7559 215.008 27.4725 215.008 26.0014C215.008 24.5488 215.279 23.2685 215.82 22.1605C216.368 21.0526 217.131 20.1877 218.11 19.5661C219.095 18.9444 220.246 18.6335 221.563 18.6335C222.363 18.6335 223.139 18.7659 223.89 19.0305C224.641 19.2952 225.315 19.7107 225.912 20.277C226.509 20.8433 226.98 21.5788 227.325 22.4837C227.669 23.3823 227.842 24.4749 227.842 25.7614V26.7401H216.568V24.6719H225.136C225.136 23.9455 224.989 23.3023 224.693 22.7422C224.398 22.1759 223.982 21.7296 223.447 21.4034C222.917 21.0772 222.296 20.9141 221.582 20.9141C220.806 20.9141 220.129 21.1049 219.55 21.4865C218.978 21.862 218.535 22.3544 218.221 22.9638C217.913 23.567 217.759 24.2225 217.759 24.9304V26.5462C217.759 27.4941 217.925 28.3004 218.258 28.9652C218.596 29.63 219.067 30.1378 219.67 30.4886C220.274 30.8333 220.978 31.0057 221.785 31.0057C222.308 31.0057 222.785 30.9318 223.216 30.7841C223.647 30.6302 224.019 30.4025 224.333 30.1009C224.647 29.7992 224.887 29.4268 225.053 28.9837L227.666 29.4545C227.457 30.224 227.081 30.898 226.54 31.4766C226.004 32.049 225.33 32.4953 224.518 32.8153C223.711 33.1293 222.791 33.2862 221.757 33.2862Z" fill="black"/>
<path d="M0 10C0 4.47715 4.47715 0 10 0H87L65.5253 48H10C4.47715 48 0 43.5228 0 38V10Z" fill="#D9D9D9" fill-opacity="0.8"/>
<path d="M33.3333 30.1818H25L36.6667 6V19.8182H45L33.3333 44V30.1818Z" fill="#F3C637"/>
</svg>
