<svg width="261" height="48" viewBox="0 0 261 48" fill="none" xmlns="http://www.w3.org/2000/svg">
<rect width="261" height="48" rx="10" fill="#297DE0"/>
<path d="M138.077 33V14.0909H149.933V16.5469H140.93V22.3082H149.314V24.755H140.93V30.544H150.043V33H138.077ZM157.649 33.3139C156.75 33.3139 155.938 33.1477 155.211 32.8153C154.485 32.4768 153.91 31.9875 153.485 31.3473C153.066 30.7071 152.857 29.9223 152.857 28.9929C152.857 28.1927 153.011 27.5341 153.319 27.017C153.626 26.5 154.042 26.0907 154.565 25.7891C155.088 25.4875 155.673 25.2597 156.319 25.1058C156.966 24.9519 157.624 24.835 158.295 24.755C159.145 24.6565 159.834 24.5765 160.363 24.5149C160.893 24.4472 161.278 24.3395 161.518 24.1918C161.758 24.044 161.878 23.804 161.878 23.4716V23.407C161.878 22.6006 161.65 21.9759 161.194 21.5327C160.745 21.0895 160.074 20.8679 159.182 20.8679C158.252 20.8679 157.52 21.0741 156.984 21.4865C156.455 21.8928 156.089 22.3452 155.885 22.8438L153.291 22.2528C153.599 21.3911 154.048 20.6955 154.639 20.1662C155.236 19.6307 155.922 19.2429 156.698 19.0028C157.474 18.7566 158.289 18.6335 159.145 18.6335C159.711 18.6335 160.311 18.7012 160.945 18.8366C161.585 18.9659 162.182 19.206 162.736 19.5568C163.296 19.9077 163.755 20.4093 164.112 21.0618C164.469 21.7081 164.648 22.5483 164.648 23.5824V33H161.952V31.0611H161.841C161.662 31.4181 161.394 31.7689 161.037 32.1136C160.68 32.4583 160.222 32.7446 159.662 32.9723C159.102 33.2 158.431 33.3139 157.649 33.3139ZM158.249 31.098C159.012 31.098 159.665 30.9472 160.206 30.6456C160.754 30.344 161.17 29.95 161.453 29.4638C161.742 28.9714 161.887 28.4451 161.887 27.8849V26.0568C161.788 26.1553 161.598 26.2476 161.314 26.3338C161.037 26.4138 160.72 26.4846 160.363 26.5462C160.006 26.6016 159.659 26.6539 159.32 26.7031C158.982 26.7462 158.698 26.7831 158.471 26.8139C157.935 26.8816 157.446 26.9955 157.003 27.1555C156.566 27.3156 156.215 27.5464 155.95 27.848C155.692 28.1435 155.562 28.5374 155.562 29.0298C155.562 29.7131 155.815 30.2301 156.319 30.581C156.824 30.9257 157.467 31.098 158.249 31.098ZM177.308 27.1186V18.8182H180.078V33H177.364V30.544H177.216C176.89 31.3011 176.366 31.9321 175.646 32.4368C174.932 32.9354 174.043 33.1847 172.978 33.1847C172.067 33.1847 171.261 32.9846 170.559 32.5845C169.863 32.1783 169.316 31.5781 168.915 30.7841C168.522 29.9901 168.325 29.0083 168.325 27.8388V18.8182H171.085V27.5064C171.085 28.4728 171.353 29.2422 171.888 29.8146C172.424 30.3871 173.12 30.6733 173.975 30.6733C174.492 30.6733 175.006 30.544 175.517 30.2855C176.034 30.027 176.462 29.6361 176.8 29.1129C177.145 28.5897 177.314 27.925 177.308 27.1186Z" fill="white"/>
<path d="M0 10C0 4.47715 4.47715 0 10 0H87L65.5253 48H10C4.47715 48 0 43.5228 0 38V10Z" fill="#D9D9D9" fill-opacity="0.5"/>
<path d="M36 40C32.5604 40 29.5336 38.7977 26.9195 36.3932C24.3054 33.9886 22.9989 30.734 23 26.6293C23 24.0476 23.975 21.2484 25.925 18.2318C27.875 15.2153 30.8271 11.9541 34.7813 8.44841C34.9438 8.31253 35.1333 8.20382 35.35 8.12229C35.5667 8.04076 35.7833 8 36 8C36.2167 8 36.4333 8.04076 36.65 8.12229C36.8667 8.20382 37.0562 8.31253 37.2188 8.44841C41.1729 11.9541 44.125 15.2153 46.075 18.2318C48.025 21.2484 49 24.0476 49 26.6293C49 30.7329 47.693 33.9875 45.0789 36.3932C42.4648 38.7988 39.4385 40.0011 36 40ZM36.4469 35.1083C36.7719 35.0811 37.0498 34.9517 37.2805 34.7202C37.5113 34.4887 37.6261 34.2104 37.625 33.8854C37.625 33.5049 37.5031 33.1989 37.2594 32.9673C37.0156 32.7358 36.7042 32.6342 36.325 32.6624C35.2146 32.7439 34.0365 32.4379 32.7906 31.7444C31.5448 31.0509 30.7594 29.7942 30.4344 27.9745C30.3802 27.6756 30.2383 27.431 30.0086 27.2408C29.779 27.0505 29.5146 26.9554 29.2156 26.9554C28.8365 26.9554 28.525 27.0984 28.2813 27.3843C28.0375 27.6701 27.9563 28.0028 28.0375 28.3822C28.4979 30.8552 29.5813 32.6217 31.2875 33.6815C32.9938 34.7414 34.7135 35.217 36.4469 35.1083Z" fill="#297DE0"/>
</svg>
