<svg width="261" height="48" viewBox="0 0 261 48" fill="none" xmlns="http://www.w3.org/2000/svg">
<rect width="261" height="48" rx="10" fill="#46BE43"/>
<path d="M119.077 33V14.0909H125.817C127.289 14.0909 128.507 14.3587 129.474 14.8942C130.44 15.4297 131.163 16.1622 131.643 17.0916C132.124 18.0149 132.364 19.0552 132.364 20.2124C132.364 21.3757 132.121 22.4221 131.634 23.3516C131.154 24.2749 130.428 25.0073 129.455 25.549C128.489 26.0845 127.273 26.3523 125.808 26.3523H121.173V23.9332H125.55C126.479 23.9332 127.233 23.7732 127.812 23.4531C128.39 23.1269 128.815 22.6837 129.086 22.1236C129.357 21.5634 129.492 20.9264 129.492 20.2124C129.492 19.4983 129.357 18.8643 129.086 18.3104C128.815 17.7564 128.387 17.3224 127.803 17.0085C127.224 16.6946 126.461 16.5376 125.513 16.5376H121.93V33H119.077ZM138.247 14.0909V33H135.487V14.0909H138.247ZM146.088 33.3139C145.19 33.3139 144.377 33.1477 143.651 32.8153C142.925 32.4768 142.349 31.9875 141.924 31.3473C141.506 30.7071 141.297 29.9223 141.297 28.9929C141.297 28.1927 141.45 27.5341 141.758 27.017C142.066 26.5 142.481 26.0907 143.005 25.7891C143.528 25.4875 144.113 25.2597 144.759 25.1058C145.405 24.9519 146.064 24.835 146.735 24.755C147.584 24.6565 148.274 24.5765 148.803 24.5149C149.332 24.4472 149.717 24.3395 149.957 24.1918C150.197 24.044 150.317 23.804 150.317 23.4716V23.407C150.317 22.6006 150.089 21.9759 149.634 21.5327C149.185 21.0895 148.514 20.8679 147.621 20.8679C146.692 20.8679 145.959 21.0741 145.424 21.4865C144.894 21.8928 144.528 22.3452 144.325 22.8438L141.73 22.2528C142.038 21.3911 142.488 20.6955 143.078 20.1662C143.676 19.6307 144.362 19.2429 145.137 19.0028C145.913 18.7566 146.729 18.6335 147.584 18.6335C148.15 18.6335 148.751 18.7012 149.385 18.8366C150.025 18.9659 150.622 19.206 151.176 19.5568C151.736 19.9077 152.194 20.4093 152.551 21.0618C152.908 21.7081 153.087 22.5483 153.087 23.5824V33H150.391V31.0611H150.28C150.102 31.4181 149.834 31.7689 149.477 32.1136C149.12 32.4583 148.661 32.7446 148.101 32.9723C147.541 33.2 146.87 33.3139 146.088 33.3139ZM146.689 31.098C147.452 31.098 148.104 30.9472 148.646 30.6456C149.194 30.344 149.609 29.95 149.892 29.4638C150.182 28.9714 150.326 28.4451 150.326 27.8849V26.0568C150.228 26.1553 150.037 26.2476 149.754 26.3338C149.477 26.4138 149.16 26.4846 148.803 26.5462C148.446 26.6016 148.098 26.6539 147.76 26.7031C147.421 26.7462 147.138 26.7831 146.91 26.8139C146.375 26.8816 145.885 26.9955 145.442 27.1555C145.005 27.3156 144.654 27.5464 144.39 27.848C144.131 28.1435 144.002 28.5374 144.002 29.0298C144.002 29.7131 144.254 30.2301 144.759 30.581C145.264 30.9257 145.907 31.098 146.689 31.098ZM159.525 24.5795V33H156.764V18.8182H159.414V21.1264H159.589C159.916 20.3755 160.426 19.7723 161.122 19.3168C161.824 18.8613 162.707 18.6335 163.772 18.6335C164.738 18.6335 165.585 18.8366 166.311 19.2429C167.037 19.643 167.6 20.2401 168.001 21.0341C168.401 21.8281 168.601 22.8099 168.601 23.9794V33H165.84V24.3118C165.84 23.2839 165.572 22.4806 165.037 21.902C164.501 21.3172 163.766 21.0249 162.83 21.0249C162.19 21.0249 161.621 21.1634 161.122 21.4403C160.63 21.7173 160.239 22.1236 159.949 22.6591C159.666 23.1884 159.525 23.8286 159.525 24.5795ZM178.923 18.8182V21.0341H171.177V18.8182H178.923ZM173.254 15.4205H176.015V28.8359C176.015 29.3714 176.095 29.7746 176.255 30.0455C176.415 30.3101 176.621 30.4917 176.873 30.5902C177.132 30.6825 177.412 30.7287 177.714 30.7287C177.935 30.7287 178.129 30.7133 178.295 30.6825C178.461 30.6518 178.591 30.6271 178.683 30.6087L179.182 32.8892C179.022 32.9508 178.794 33.0123 178.498 33.0739C178.203 33.1416 177.834 33.1785 177.39 33.1847C176.664 33.197 175.987 33.0677 175.359 32.7969C174.731 32.526 174.224 32.1075 173.836 31.5412C173.448 30.9749 173.254 30.264 173.254 29.4084V15.4205ZM187.937 33.2862C186.54 33.2862 185.336 32.9877 184.327 32.3906C183.323 31.7874 182.548 30.9411 182 29.8516C181.458 28.7559 181.188 27.4725 181.188 26.0014C181.188 24.5488 181.458 23.2685 182 22.1605C182.548 21.0526 183.311 20.1877 184.29 19.5661C185.275 18.9444 186.426 18.6335 187.743 18.6335C188.543 18.6335 189.319 18.7659 190.07 19.0305C190.821 19.2952 191.495 19.7107 192.092 20.277C192.689 20.8433 193.16 21.5788 193.504 22.4837C193.849 23.3823 194.021 24.4749 194.021 25.7614V26.7401H182.748V24.6719H191.316C191.316 23.9455 191.168 23.3023 190.873 22.7422C190.577 22.1759 190.162 21.7296 189.626 21.4034C189.097 21.0772 188.475 20.9141 187.761 20.9141C186.986 20.9141 186.309 21.1049 185.73 21.4865C185.158 21.862 184.714 22.3544 184.401 22.9638C184.093 23.567 183.939 24.2225 183.939 24.9304V26.5462C183.939 27.4941 184.105 28.3004 184.438 28.9652C184.776 29.63 185.247 30.1378 185.85 30.4886C186.453 30.8333 187.158 31.0057 187.964 31.0057C188.488 31.0057 188.965 30.9318 189.396 30.7841C189.826 30.6302 190.199 30.4025 190.513 30.1009C190.827 29.7992 191.067 29.4268 191.233 28.9837L193.846 29.4545C193.637 30.224 193.261 30.898 192.719 31.4766C192.184 32.049 191.51 32.4953 190.697 32.8153C189.891 33.1293 188.971 33.2862 187.937 33.2862Z" fill="white"/>
<path d="M0 10C0 4.47715 4.47715 0 10 0H87L65.5253 48H10C4.47715 48 0 43.5228 0 38V10Z" fill="#D9D9D9" fill-opacity="0.5"/>
<path d="M47 16.8947C32.6 20.0526 29.24 29.7947 25.912 37.9579L28.936 39L30.456 35.3684C31.224 35.6368 32.024 35.8421 32.6 35.8421C50.2 35.8421 55 9 55 9C53.4 12.1579 42.2 12.5526 34.2 14.1316C26.2 15.7105 23 22.4211 23 25.5789C23 28.7368 25.8 31.5 25.8 31.5C31 16.8947 47 16.8947 47 16.8947Z" fill="#46BE43"/>
</svg>
