<svg width="261" height="48" viewBox="0 0 261 48" fill="none" xmlns="http://www.w3.org/2000/svg">
<rect width="261" height="48" rx="10" fill="#FF9900"/>
<path d="M136.077 33V14.0909H147.803V16.5469H138.93V22.3082H146.963V24.755H138.93V33H136.077ZM156.161 33.2862C154.764 33.2862 153.561 32.9877 152.551 32.3906C151.548 31.7874 150.772 30.9411 150.225 29.8516C149.683 28.7559 149.412 27.4725 149.412 26.0014C149.412 24.5488 149.683 23.2685 150.225 22.1605C150.772 21.0526 151.536 20.1877 152.514 19.5661C153.499 18.9444 154.65 18.6335 155.968 18.6335C156.768 18.6335 157.543 18.7659 158.294 19.0305C159.045 19.2952 159.719 19.7107 160.316 20.277C160.913 20.8433 161.384 21.5788 161.729 22.4837C162.074 23.3823 162.246 24.4749 162.246 25.7614V26.7401H150.972V24.6719H159.541C159.541 23.9455 159.393 23.3023 159.097 22.7422C158.802 22.1759 158.387 21.7296 157.851 21.4034C157.322 21.0772 156.7 20.9141 155.986 20.9141C155.21 20.9141 154.533 21.1049 153.955 21.4865C153.382 21.862 152.939 22.3544 152.625 22.9638C152.317 23.567 152.164 24.2225 152.164 24.9304V26.5462C152.164 27.4941 152.33 28.3004 152.662 28.9652C153.001 29.63 153.472 30.1378 154.075 30.4886C154.678 30.8333 155.383 31.0057 156.189 31.0057C156.712 31.0057 157.189 30.9318 157.62 30.7841C158.051 30.6302 158.423 30.4025 158.737 30.1009C159.051 29.7992 159.291 29.4268 159.458 28.9837L162.07 29.4545C161.861 30.224 161.486 30.898 160.944 31.4766C160.409 32.049 159.735 32.4953 158.922 32.8153C158.116 33.1293 157.195 33.2862 156.161 33.2862ZM174.293 27.1186V18.8182H177.062V33H174.348V30.544H174.2C173.874 31.3011 173.351 31.9321 172.631 32.4368C171.917 32.9354 171.027 33.1847 169.962 33.1847C169.051 33.1847 168.245 32.9846 167.543 32.5845C166.848 32.1783 166.3 31.5781 165.9 30.7841C165.506 29.9901 165.309 29.0083 165.309 27.8388V18.8182H168.07V27.5064C168.07 28.4728 168.337 29.2422 168.873 29.8146C169.408 30.3871 170.104 30.6733 170.96 30.6733C171.477 30.6733 171.991 30.544 172.501 30.2855C173.018 30.027 173.446 29.6361 173.785 29.1129C174.129 28.5897 174.299 27.925 174.293 27.1186Z" fill="black"/>
<path d="M0 10C0 4.47715 4.47715 0 10 0H87L65.5253 48H10C4.47715 48 0 43.5228 0 38V10Z" fill="#D9D9D9" fill-opacity="0.7"/>
<path d="M33.4215 10.0934L31.6179 9L31.2743 11.0985C30.7275 14.412 28.4902 17.4909 26.0224 19.6546C21.1913 23.8921 20.1335 28.4975 21.6293 32.2991C23.0608 35.937 26.6937 38.4279 30.3811 38.8436L31.2342 38.9392C29.1243 37.6343 27.7702 34.5858 28.2425 32.3077C28.7092 30.0688 30.3009 27.9718 33.3585 26.0369L34.9001 25.0637L35.4756 26.8088C35.8148 27.84 36.4017 28.6684 36.9986 29.5098C37.2849 29.9153 37.5755 30.3251 37.8417 30.761C38.7621 32.2744 39.0055 33.9573 38.4114 35.6271C37.8703 37.1448 36.9771 38.3382 35.749 39L37.1374 38.8436C40.5986 38.454 43.1394 37.2563 44.7899 35.2534C46.426 33.2679 47 30.7118 47 27.9906C47 25.4562 45.9708 22.8436 44.757 20.6698C43.3341 18.1238 41.4775 16.0094 39.4506 13.9602C39.0999 14.6698 39.1271 14.9566 38.4057 16.0963C37.4692 13.579 35.7107 11.461 33.4215 10.0934Z" fill="#FF9900"/>
</svg>
