<svg width="261" height="48" viewBox="0 0 261 48" fill="none" xmlns="http://www.w3.org/2000/svg">
<rect width="261" height="48" rx="10" fill="#96844D"/>
<path d="M146.391 19.0582C146.292 18.1842 145.886 17.5071 145.172 17.027C144.458 16.5407 143.559 16.2976 142.476 16.2976C141.7 16.2976 141.029 16.4207 140.463 16.6669C139.897 16.907 139.457 17.2393 139.143 17.6641C138.835 18.0826 138.681 18.5597 138.681 19.0952C138.681 19.5445 138.786 19.9323 138.995 20.2585C139.21 20.5848 139.491 20.8587 139.835 21.0803C140.186 21.2957 140.562 21.4773 140.962 21.625C141.362 21.7666 141.746 21.8835 142.116 21.9759L143.962 22.456C144.566 22.6037 145.184 22.8037 145.818 23.0561C146.452 23.3085 147.04 23.6409 147.582 24.0533C148.123 24.4657 148.56 24.9766 148.893 25.5859C149.231 26.1953 149.401 26.9247 149.401 27.7741C149.401 28.8452 149.124 29.7962 148.57 30.6271C148.022 31.4581 147.225 32.1136 146.178 32.5938C145.138 33.0739 143.879 33.3139 142.402 33.3139C140.986 33.3139 139.761 33.0893 138.727 32.6399C137.693 32.1906 136.884 31.5535 136.299 30.7287C135.714 29.8977 135.391 28.9129 135.33 27.7741H138.192C138.247 28.4574 138.469 29.0268 138.857 29.4822C139.25 29.9316 139.752 30.267 140.362 30.4886C140.977 30.7041 141.651 30.8118 142.384 30.8118C143.19 30.8118 143.907 30.6856 144.535 30.4332C145.169 30.1747 145.667 29.8177 146.031 29.3622C146.394 28.9006 146.575 28.362 146.575 27.7464C146.575 27.1863 146.415 26.7277 146.095 26.3707C145.781 26.0137 145.353 25.7183 144.812 25.4844C144.276 25.2505 143.67 25.0443 142.993 24.8658L140.759 24.2564C139.244 23.844 138.044 23.2377 137.158 22.4375C136.277 21.6373 135.837 20.5786 135.837 19.2614C135.837 18.1719 136.133 17.2209 136.724 16.4084C137.315 15.5959 138.115 14.965 139.124 14.5156C140.134 14.0601 141.272 13.8324 142.54 13.8324C143.821 13.8324 144.95 14.0571 145.929 14.5064C146.914 14.9557 147.689 15.5743 148.256 16.3622C148.822 17.1439 149.117 18.0426 149.142 19.0582H146.391ZM158.562 33.2862C157.232 33.2862 156.072 32.9815 155.081 32.3722C154.09 31.7628 153.321 30.9103 152.773 29.8146C152.225 28.719 151.951 27.4387 151.951 25.9737C151.951 24.5026 152.225 23.2161 152.773 22.1143C153.321 21.0125 154.09 20.157 155.081 19.5476C156.072 18.9382 157.232 18.6335 158.562 18.6335C159.892 18.6335 161.052 18.9382 162.043 19.5476C163.034 20.157 163.803 21.0125 164.351 22.1143C164.899 23.2161 165.173 24.5026 165.173 25.9737C165.173 27.4387 164.899 28.719 164.351 29.8146C163.803 30.9103 163.034 31.7628 162.043 32.3722C161.052 32.9815 159.892 33.2862 158.562 33.2862ZM158.571 30.9688C159.433 30.9688 160.147 30.741 160.713 30.2855C161.28 29.83 161.698 29.2237 161.969 28.4666C162.246 27.7095 162.384 26.8755 162.384 25.9645C162.384 25.0597 162.246 24.2287 161.969 23.4716C161.698 22.7083 161.28 22.0959 160.713 21.6342C160.147 21.1726 159.433 20.9418 158.571 20.9418C157.703 20.9418 156.983 21.1726 156.411 21.6342C155.844 22.0959 155.423 22.7083 155.146 23.4716C154.875 24.2287 154.74 25.0597 154.74 25.9645C154.74 26.8755 154.875 27.7095 155.146 28.4666C155.423 29.2237 155.844 29.83 156.411 30.2855C156.983 30.741 157.703 30.9688 158.571 30.9688ZM171.015 14.0909V33H168.254V14.0909H171.015Z" fill="white"/>
<path d="M0 10C0 4.47715 4.47715 0 10 0H87L65.5253 48H10C4.47715 48 0 43.5228 0 38V10Z" fill="#D9D9D9" fill-opacity="0.5"/>
<mask id="mask0_450_33" style="mask-type:luminance" maskUnits="userSpaceOnUse" x="17" y="8" width="44" height="32">
<path d="M33 10L47 38H19L33 10Z" fill="#555555" stroke="white" stroke-width="4" stroke-linejoin="round"/>
<path d="M43 29L48.647 22L59 38H47M27 22H39M29 18L25 26M37 18L41 26" stroke="white" stroke-width="4" stroke-linecap="round" stroke-linejoin="round"/>
</mask>
<g mask="url(#mask0_450_33)">
<path d="M15 0H63V48H15V0Z" fill="#96844D"/>
</g>
</svg>
