<svg width="261" height="80" viewBox="0 0 261 80" fill="none" xmlns="http://www.w3.org/2000/svg">
<rect width="261" height="80" rx="10" fill="#FCD148"/>
<path d="M114.783 36.2401H111.902C111.791 35.6245 111.585 35.0829 111.283 34.6151C110.982 34.1473 110.612 33.7502 110.175 33.424C109.738 33.0978 109.249 32.8516 108.707 32.6854C108.172 32.5192 107.603 32.4361 106.999 32.4361C105.91 32.4361 104.934 32.71 104.072 33.2578C103.217 33.8056 102.54 34.6089 102.041 35.6676C101.549 36.7263 101.303 38.0189 101.303 39.5455C101.303 41.0843 101.549 42.383 102.041 43.4418C102.54 44.5005 103.22 45.3007 104.082 45.8423C104.943 46.384 105.913 46.6548 106.99 46.6548C107.587 46.6548 108.153 46.5748 108.689 46.4148C109.231 46.2486 109.72 46.0054 110.157 45.6854C110.594 45.3653 110.963 44.9744 111.265 44.5128C111.573 44.045 111.785 43.5095 111.902 42.9062L114.783 42.9155C114.629 43.8449 114.33 44.7005 113.887 45.4822C113.45 46.2578 112.887 46.9287 112.197 47.495C111.514 48.0552 110.732 48.4891 109.852 48.7969C108.972 49.1046 108.012 49.2585 106.972 49.2585C105.334 49.2585 103.875 48.8707 102.595 48.0952C101.315 47.3134 100.305 46.1963 99.5668 44.7436C98.8343 43.291 98.468 41.5582 98.468 39.5455C98.468 37.5265 98.8374 35.7938 99.576 34.3473C100.315 32.8946 101.324 31.7805 102.604 31.005C103.885 30.2232 105.34 29.8324 106.972 29.8324C107.975 29.8324 108.911 29.977 109.778 30.2663C110.652 30.5495 111.437 30.968 112.133 31.522C112.828 32.0698 113.404 32.7408 113.859 33.5348C114.315 34.3227 114.623 35.2244 114.783 36.2401ZM123.949 49.2862C122.619 49.2862 121.459 48.9815 120.468 48.3722C119.477 47.7628 118.707 46.9103 118.16 45.8146C117.612 44.719 117.338 43.4387 117.338 41.9737C117.338 40.5026 117.612 39.2161 118.16 38.1143C118.707 37.0125 119.477 36.157 120.468 35.5476C121.459 34.9382 122.619 34.6335 123.949 34.6335C125.278 34.6335 126.439 34.9382 127.43 35.5476C128.421 36.157 129.19 37.0125 129.738 38.1143C130.286 39.2161 130.559 40.5026 130.559 41.9737C130.559 43.4387 130.286 44.719 129.738 45.8146C129.19 46.9103 128.421 47.7628 127.43 48.3722C126.439 48.9815 125.278 49.2862 123.949 49.2862ZM123.958 46.9688C124.82 46.9688 125.534 46.741 126.1 46.2855C126.666 45.83 127.085 45.2237 127.356 44.4666C127.633 43.7095 127.771 42.8755 127.771 41.9645C127.771 41.0597 127.633 40.2287 127.356 39.4716C127.085 38.7083 126.666 38.0959 126.1 37.6342C125.534 37.1726 124.82 36.9418 123.958 36.9418C123.09 36.9418 122.37 37.1726 121.797 37.6342C121.231 38.0959 120.809 38.7083 120.532 39.4716C120.262 40.2287 120.126 41.0597 120.126 41.9645C120.126 42.8755 120.262 43.7095 120.532 44.4666C120.809 45.2237 121.231 45.83 121.797 46.2855C122.37 46.741 123.09 46.9688 123.958 46.9688ZM142.625 43.1186V34.8182H145.395V49H142.68V46.544H142.532C142.206 47.3011 141.683 47.9321 140.963 48.4368C140.249 48.9354 139.359 49.1847 138.294 49.1847C137.383 49.1847 136.577 48.9846 135.875 48.5845C135.18 48.1783 134.632 47.5781 134.232 46.7841C133.838 45.9901 133.641 45.0083 133.641 43.8388V34.8182H136.402V43.5064C136.402 44.4728 136.669 45.2422 137.205 45.8146C137.74 46.3871 138.436 46.6733 139.292 46.6733C139.809 46.6733 140.323 46.544 140.833 46.2855C141.35 46.027 141.778 45.6361 142.117 45.1129C142.462 44.5897 142.631 43.925 142.625 43.1186ZM149.104 54.3182V34.8182H151.8V37.1172H152.031C152.191 36.8217 152.422 36.4801 152.723 36.0923C153.025 35.7045 153.443 35.366 153.979 35.0767C154.514 34.7812 155.222 34.6335 156.102 34.6335C157.247 34.6335 158.269 34.9228 159.168 35.5014C160.066 36.08 160.771 36.9141 161.282 38.0036C161.799 39.093 162.058 40.4041 162.058 41.9368C162.058 43.4695 161.802 44.7836 161.291 45.8793C160.78 46.9687 160.079 47.8089 159.186 48.3999C158.294 48.9846 157.275 49.277 156.13 49.277C155.268 49.277 154.564 49.1323 154.016 48.843C153.474 48.5537 153.049 48.2152 152.742 47.8274C152.434 47.4396 152.197 47.0949 152.031 46.7933H151.865V54.3182H149.104ZM151.809 41.9091C151.809 42.9062 151.954 43.7803 152.243 44.5312C152.532 45.2822 152.951 45.87 153.499 46.2947C154.047 46.7133 154.718 46.9226 155.512 46.9226C156.336 46.9226 157.026 46.7041 157.58 46.267C158.134 45.8239 158.552 45.2237 158.835 44.4666C159.125 43.7095 159.269 42.857 159.269 41.9091C159.269 40.9735 159.128 40.1333 158.845 39.3885C158.568 38.6437 158.149 38.0559 157.589 37.625C157.035 37.1941 156.343 36.9787 155.512 36.9787C154.711 36.9787 154.034 37.1849 153.48 37.5973C152.932 38.0097 152.517 38.5852 152.234 39.3239C151.951 40.0625 151.809 40.9242 151.809 41.9091ZM178.375 49H172.253V30.0909H178.569C180.421 30.0909 182.012 30.4695 183.342 31.2266C184.672 31.9775 185.69 33.0578 186.398 34.4673C187.112 35.8707 187.469 37.5542 187.469 39.5178C187.469 41.4875 187.109 43.1802 186.389 44.5959C185.675 46.0116 184.641 47.1011 183.287 47.8643C181.932 48.6214 180.295 49 178.375 49ZM175.106 46.5071H178.218C179.658 46.5071 180.855 46.2363 181.809 45.6946C182.763 45.1468 183.477 44.3558 183.951 43.3217C184.425 42.2815 184.662 41.0135 184.662 39.5178C184.662 38.0343 184.425 36.7756 183.951 35.7415C183.484 34.7074 182.785 33.9226 181.855 33.3871C180.926 32.8516 179.772 32.5838 178.393 32.5838H175.106V46.5071ZM193.168 30.0909V31.8636C193.168 32.3868 193.07 32.9377 192.873 33.5163C192.682 34.0888 192.411 34.6397 192.06 35.169C191.709 35.6984 191.297 36.1539 190.823 36.5355L189.456 35.5568C189.82 35.0275 190.134 34.4643 190.398 33.8672C190.669 33.2701 190.805 32.6115 190.805 31.8913V30.0909H193.168ZM195.975 34.8182H198.736V49.9233C198.736 50.8712 198.563 51.6714 198.219 52.3239C197.88 52.9763 197.375 53.4718 196.704 53.8104C196.04 54.1489 195.218 54.3182 194.239 54.3182C194.141 54.3182 194.048 54.3182 193.962 54.3182C193.87 54.3182 193.774 54.3151 193.676 54.3089V51.9361C193.762 51.9361 193.839 51.9361 193.907 51.9361C193.968 51.9361 194.039 51.9361 194.119 51.9361C194.772 51.9361 195.242 51.7607 195.532 51.4098C195.827 51.0651 195.975 50.5634 195.975 49.9048V34.8182ZM197.341 32.63C196.861 32.63 196.449 32.4699 196.104 32.1499C195.766 31.8236 195.596 31.4358 195.596 30.9865C195.596 30.531 195.766 30.1432 196.104 29.8232C196.449 29.4969 196.861 29.3338 197.341 29.3338C197.822 29.3338 198.231 29.4969 198.569 29.8232C198.914 30.1432 199.086 30.531 199.086 30.9865C199.086 31.4358 198.914 31.8236 198.569 32.1499C198.231 32.4699 197.822 32.63 197.341 32.63ZM211.433 43.1186V34.8182H214.203V49H211.489V46.544H211.341C211.015 47.3011 210.491 47.9321 209.771 48.4368C209.057 48.9354 208.168 49.1847 207.103 49.1847C206.192 49.1847 205.386 48.9846 204.684 48.5845C203.988 48.1783 203.441 47.5781 203.04 46.7841C202.647 45.9901 202.45 45.0083 202.45 43.8388V34.8182H205.21V43.5064C205.21 44.4728 205.478 45.2422 206.013 45.8146C206.549 46.3871 207.245 46.6733 208.1 46.6733C208.617 46.6733 209.131 46.544 209.642 46.2855C210.159 46.027 210.587 45.6361 210.925 45.1129C211.27 44.5897 211.439 43.925 211.433 43.1186ZM228.54 38.2805L226.037 38.7237C225.933 38.4036 225.767 38.099 225.539 37.8097C225.317 37.5204 225.016 37.2834 224.634 37.0987C224.252 36.9141 223.775 36.8217 223.203 36.8217C222.421 36.8217 221.769 36.9972 221.246 37.348C220.722 37.6927 220.461 38.139 220.461 38.6868C220.461 39.1607 220.636 39.5424 220.987 39.8317C221.338 40.121 221.904 40.358 222.686 40.5426L224.939 41.0597C226.244 41.3613 227.216 41.826 227.856 42.4538C228.497 43.0817 228.817 43.8973 228.817 44.9006C228.817 45.75 228.57 46.5071 228.078 47.1719C227.592 47.8305 226.912 48.3475 226.037 48.723C225.17 49.0985 224.163 49.2862 223.018 49.2862C221.43 49.2862 220.135 48.9477 219.131 48.2706C218.128 47.5874 217.512 46.6179 217.285 45.3622L219.953 44.956C220.119 45.6515 220.461 46.1778 220.978 46.5348C221.495 46.8857 222.169 47.0611 223 47.0611C223.905 47.0611 224.628 46.8733 225.17 46.4979C225.711 46.1162 225.982 45.6515 225.982 45.1037C225.982 44.6605 225.816 44.2881 225.483 43.9865C225.157 43.6849 224.656 43.4571 223.979 43.3033L221.578 42.777C220.255 42.4754 219.276 41.9953 218.642 41.3366C218.014 40.678 217.7 39.844 217.7 38.8345C217.7 37.9974 217.934 37.2649 218.402 36.6371C218.87 36.0092 219.516 35.5199 220.341 35.169C221.166 34.812 222.11 34.6335 223.175 34.6335C224.708 34.6335 225.914 34.9659 226.795 35.6307C227.675 36.2893 228.256 37.1726 228.54 38.2805Z" fill="black"/>
<path d="M0 10C0 4.47715 4.47715 0 10 0H88L53.1574 80H10C4.47715 80 0 75.5228 0 70V10Z" fill="white" fill-opacity="0.5"/>
<path d="M33.6667 47.7273H22L38.3333 14V33.2727H50L33.6667 67V47.7273Z" fill="#F3C637"/>
</svg>
