<svg width="261" height="80" viewBox="0 0 261 80" fill="none" xmlns="http://www.w3.org/2000/svg">
<rect width="261" height="80" rx="10" fill="#A2A2A2"/>
<path d="M96.1989 49H90.0774V30.0909H96.3928C98.2455 30.0909 99.8366 30.4695 101.166 31.2266C102.496 31.9775 103.514 33.0578 104.222 34.4673C104.936 35.8707 105.293 37.5542 105.293 39.5178C105.293 41.4875 104.933 43.1802 104.213 44.5959C103.499 46.0116 102.465 47.1011 101.111 47.8643C99.7566 48.6214 98.1193 49 96.1989 49ZM92.9304 46.5071H96.0419C97.4822 46.5071 98.6795 46.2363 99.6335 45.6946C100.588 45.1468 101.302 44.3558 101.776 43.3217C102.25 42.2815 102.487 41.0135 102.487 39.5178C102.487 38.0343 102.25 36.7756 101.776 35.7415C101.308 34.7074 100.609 33.9226 99.6797 33.3871C98.7502 32.8516 97.5961 32.5838 96.2173 32.5838H92.9304V46.5071ZM112.747 49.3139C111.848 49.3139 111.035 49.1477 110.309 48.8153C109.583 48.4768 109.007 47.9875 108.583 47.3473C108.164 46.7071 107.955 45.9223 107.955 44.9929C107.955 44.1927 108.109 43.5341 108.416 43.017C108.724 42.5 109.14 42.0907 109.663 41.7891C110.186 41.4875 110.771 41.2597 111.417 41.1058C112.063 40.9519 112.722 40.835 113.393 40.755C114.242 40.6565 114.932 40.5765 115.461 40.5149C115.99 40.4472 116.375 40.3395 116.615 40.1918C116.855 40.044 116.975 39.804 116.975 39.4716V39.407C116.975 38.6006 116.748 37.9759 116.292 37.5327C115.843 37.0895 115.172 36.8679 114.279 36.8679C113.35 36.8679 112.617 37.0741 112.082 37.4865C111.552 37.8928 111.186 38.3452 110.983 38.8438L108.389 38.2528C108.696 37.3911 109.146 36.6955 109.737 36.1662C110.334 35.6307 111.02 35.2429 111.796 35.0028C112.571 34.7566 113.387 34.6335 114.242 34.6335C114.809 34.6335 115.409 34.7012 116.043 34.8366C116.683 34.9659 117.28 35.206 117.834 35.5568C118.394 35.9077 118.853 36.4093 119.21 37.0618C119.567 37.7081 119.745 38.5483 119.745 39.5824V49H117.049V47.0611H116.938C116.76 47.4181 116.492 47.7689 116.135 48.1136C115.778 48.4583 115.32 48.7446 114.759 48.9723C114.199 49.2 113.528 49.3139 112.747 49.3139ZM113.347 47.098C114.11 47.098 114.762 46.9472 115.304 46.6456C115.852 46.344 116.267 45.95 116.551 45.4638C116.84 44.9714 116.985 44.4451 116.985 43.8849V42.0568C116.886 42.1553 116.695 42.2476 116.412 42.3338C116.135 42.4138 115.818 42.4846 115.461 42.5462C115.104 42.6016 114.756 42.6539 114.418 42.7031C114.079 42.7462 113.796 42.7831 113.568 42.8139C113.033 42.8816 112.544 42.9955 112.1 43.1555C111.663 43.3156 111.312 43.5464 111.048 43.848C110.789 44.1435 110.66 44.5374 110.66 45.0298C110.66 45.7131 110.912 46.2301 111.417 46.581C111.922 46.9257 112.565 47.098 113.347 47.098ZM123.422 49V34.8182H126.072V37.1264H126.248C126.543 36.3447 127.026 35.7353 127.697 35.2983C128.368 34.8551 129.171 34.6335 130.107 34.6335C131.055 34.6335 131.849 34.8551 132.489 35.2983C133.135 35.7415 133.612 36.3509 133.92 37.1264H134.068C134.406 36.3693 134.945 35.7661 135.684 35.3168C136.422 34.8613 137.302 34.6335 138.324 34.6335C139.611 34.6335 140.66 35.0367 141.473 35.843C142.291 36.6494 142.701 37.8651 142.701 39.4901V49H139.94V39.7486C139.94 38.7884 139.678 38.0928 139.155 37.6619C138.632 37.2311 138.007 37.0156 137.281 37.0156C136.382 37.0156 135.684 37.2926 135.185 37.8466C134.686 38.3944 134.437 39.0992 134.437 39.9609V49H131.686V39.5732C131.686 38.8037 131.446 38.1851 130.966 37.7173C130.485 37.2495 129.861 37.0156 129.091 37.0156C128.568 37.0156 128.085 37.1541 127.642 37.4311C127.205 37.7019 126.851 38.0805 126.58 38.5668C126.315 39.053 126.183 39.6162 126.183 40.2564V49H123.422ZM152.374 49.2862C151.045 49.2862 149.885 48.9815 148.894 48.3722C147.903 47.7628 147.133 46.9103 146.585 45.8146C146.038 44.719 145.764 43.4387 145.764 41.9737C145.764 40.5026 146.038 39.2161 146.585 38.1143C147.133 37.0125 147.903 36.157 148.894 35.5476C149.885 34.9382 151.045 34.6335 152.374 34.6335C153.704 34.6335 154.864 34.9382 155.855 35.5476C156.846 36.157 157.616 37.0125 158.164 38.1143C158.711 39.2161 158.985 40.5026 158.985 41.9737C158.985 43.4387 158.711 44.719 158.164 45.8146C157.616 46.9103 156.846 47.7628 155.855 48.3722C154.864 48.9815 153.704 49.2862 152.374 49.2862ZM152.384 46.9688C153.245 46.9688 153.959 46.741 154.526 46.2855C155.092 45.83 155.511 45.2237 155.781 44.4666C156.058 43.7095 156.197 42.8755 156.197 41.9645C156.197 41.0597 156.058 40.2287 155.781 39.4716C155.511 38.7083 155.092 38.0959 154.526 37.6342C153.959 37.1726 153.245 36.9418 152.384 36.9418C151.516 36.9418 150.796 37.1726 150.223 37.6342C149.657 38.0959 149.235 38.7083 148.958 39.4716C148.687 40.2287 148.552 41.0597 148.552 41.9645C148.552 42.8755 148.687 43.7095 148.958 44.4666C149.235 45.2237 149.657 45.83 150.223 46.2855C150.796 46.741 151.516 46.9688 152.384 46.9688ZM168.04 49.2862C166.668 49.2862 165.486 48.9754 164.495 48.3537C163.51 47.7259 162.753 46.861 162.224 45.7592C161.694 44.6574 161.43 43.3956 161.43 41.9737C161.43 40.5334 161.701 39.2623 162.242 38.1605C162.784 37.0526 163.547 36.1877 164.532 35.5661C165.517 34.9444 166.677 34.6335 168.013 34.6335C169.09 34.6335 170.05 34.8336 170.893 35.2337C171.737 35.6276 172.417 36.1816 172.934 36.8956C173.457 37.6096 173.768 38.4437 173.866 39.3977H171.18C171.032 38.733 170.693 38.1605 170.164 37.6804C169.641 37.2003 168.939 36.9602 168.059 36.9602C167.29 36.9602 166.616 37.1634 166.037 37.5696C165.464 37.9697 165.018 38.5421 164.698 39.2869C164.378 40.0256 164.218 40.8996 164.218 41.9091C164.218 42.9432 164.375 43.8357 164.689 44.5866C165.003 45.3376 165.446 45.9193 166.018 46.3317C166.597 46.7441 167.277 46.9503 168.059 46.9503C168.582 46.9503 169.056 46.8549 169.481 46.6641C169.912 46.4671 170.272 46.187 170.561 45.8239C170.857 45.4607 171.063 45.0237 171.18 44.5128H173.866C173.768 45.4299 173.469 46.2486 172.971 46.9688C172.472 47.6889 171.804 48.2552 170.967 48.6676C170.136 49.08 169.161 49.2862 168.04 49.2862ZM179.579 30.0909V49H176.819V30.0909H179.579ZM189.406 49.2862C188.008 49.2862 186.805 48.9877 185.795 48.3906C184.792 47.7874 184.017 46.9411 183.469 45.8516C182.927 44.7559 182.656 43.4725 182.656 42.0014C182.656 40.5488 182.927 39.2685 183.469 38.1605C184.017 37.0526 184.78 36.1877 185.759 35.5661C186.743 34.9444 187.894 34.6335 189.212 34.6335C190.012 34.6335 190.787 34.7659 191.538 35.0305C192.289 35.2952 192.963 35.7107 193.56 36.277C194.157 36.8433 194.628 37.5788 194.973 38.4837C195.318 39.3823 195.49 40.4749 195.49 41.7614V42.7401H184.217V40.6719H192.785C192.785 39.9455 192.637 39.3023 192.342 38.7422C192.046 38.1759 191.631 37.7296 191.095 37.4034C190.566 37.0772 189.944 36.9141 189.23 36.9141C188.455 36.9141 187.777 37.1049 187.199 37.4865C186.626 37.862 186.183 38.3544 185.869 38.9638C185.562 39.567 185.408 40.2225 185.408 40.9304V42.5462C185.408 43.4941 185.574 44.3004 185.906 44.9652C186.245 45.63 186.716 46.1378 187.319 46.4886C187.922 46.8333 188.627 47.0057 189.433 47.0057C189.956 47.0057 190.433 46.9318 190.864 46.7841C191.295 46.6302 191.668 46.4025 191.982 46.1009C192.295 45.7992 192.536 45.4268 192.702 44.9837L195.315 45.4545C195.105 46.224 194.73 46.898 194.188 47.4766C193.653 48.049 192.979 48.4953 192.166 48.8153C191.36 49.1293 190.44 49.2862 189.406 49.2862ZM188.03 32.9254L185.177 28.669H188.085L190.237 32.9254H188.03ZM209.18 38.2805L206.678 38.7237C206.573 38.4036 206.407 38.099 206.18 37.8097C205.958 37.5204 205.656 37.2834 205.275 37.0987C204.893 36.9141 204.416 36.8217 203.844 36.8217C203.062 36.8217 202.409 36.9972 201.886 37.348C201.363 37.6927 201.101 38.139 201.101 38.6868C201.101 39.1607 201.277 39.5424 201.628 39.8317C201.979 40.121 202.545 40.358 203.327 40.5426L205.579 41.0597C206.884 41.3613 207.857 41.826 208.497 42.4538C209.137 43.0817 209.457 43.8973 209.457 44.9006C209.457 45.75 209.211 46.5071 208.719 47.1719C208.232 47.8305 207.552 48.3475 206.678 48.723C205.81 49.0985 204.804 49.2862 203.659 49.2862C202.071 49.2862 200.775 48.9477 199.772 48.2706C198.769 47.5874 198.153 46.6179 197.925 45.3622L200.594 44.956C200.76 45.6515 201.101 46.1778 201.618 46.5348C202.135 46.8857 202.809 47.0611 203.64 47.0611C204.545 47.0611 205.269 46.8733 205.81 46.4979C206.352 46.1162 206.623 45.6515 206.623 45.1037C206.623 44.6605 206.456 44.2881 206.124 43.9865C205.798 43.6849 205.296 43.4571 204.619 43.3033L202.219 42.777C200.895 42.4754 199.916 41.9953 199.282 41.3366C198.655 40.678 198.341 39.844 198.341 38.8345C198.341 37.9974 198.575 37.2649 199.042 36.6371C199.51 36.0092 200.157 35.5199 200.981 35.169C201.806 34.812 202.751 34.6335 203.816 34.6335C205.349 34.6335 206.555 34.9659 207.435 35.6307C208.315 36.2893 208.897 37.1726 209.18 38.2805Z" fill="black"/>
<path d="M0 10C0 4.47715 4.47715 0 10 0H88L53.1574 80H10C4.47715 80 0 75.5229 0 70V10Z" fill="white" fill-opacity="0.5"/>
<circle cx="34.5" cy="41.5" r="14.5" stroke="#A1A1A1" stroke-width="6"/>
</svg>
