<svg width="261" height="80" viewBox="0 0 261 80" fill="none" xmlns="http://www.w3.org/2000/svg">
<rect width="261" height="80" rx="10" fill="#323249"/>
<path d="M90.0774 30.0909H93.5398L99.5597 44.7898H99.7812L105.801 30.0909H109.263V49H106.549V35.3168H106.374L100.797 48.9723H98.544L92.9673 35.3075H92.7919V49H90.0774V30.0909ZM119.164 49.2862C117.834 49.2862 116.674 48.9815 115.683 48.3722C114.692 47.7628 113.922 46.9103 113.374 45.8146C112.827 44.719 112.553 43.4387 112.553 41.9737C112.553 40.5026 112.827 39.2161 113.374 38.1143C113.922 37.0125 114.692 36.157 115.683 35.5476C116.674 34.9382 117.834 34.6335 119.164 34.6335C120.493 34.6335 121.653 34.9382 122.644 35.5476C123.635 36.157 124.405 37.0125 124.953 38.1143C125.5 39.2161 125.774 40.5026 125.774 41.9737C125.774 43.4387 125.5 44.719 124.953 45.8146C124.405 46.9103 123.635 47.7628 122.644 48.3722C121.653 48.9815 120.493 49.2862 119.164 49.2862ZM119.173 46.9688C120.035 46.9688 120.749 46.741 121.315 46.2855C121.881 45.83 122.3 45.2237 122.57 44.4666C122.847 43.7095 122.986 42.8755 122.986 41.9645C122.986 41.0597 122.847 40.2287 122.57 39.4716C122.3 38.7083 121.881 38.0959 121.315 37.6342C120.749 37.1726 120.035 36.9418 119.173 36.9418C118.305 36.9418 117.585 37.1726 117.012 37.6342C116.446 38.0959 116.024 38.7083 115.747 39.4716C115.477 40.2287 115.341 41.0597 115.341 41.9645C115.341 42.8755 115.477 43.7095 115.747 44.4666C116.024 45.2237 116.446 45.83 117.012 46.2855C117.585 46.741 118.305 46.9688 119.173 46.9688ZM128.856 49V34.8182H131.524V37.071H131.672C131.93 36.3078 132.386 35.7076 133.038 35.2706C133.697 34.8274 134.442 34.6058 135.273 34.6058C135.445 34.6058 135.648 34.612 135.882 34.6243C136.122 34.6366 136.31 34.652 136.445 34.6705V37.3111C136.335 37.2803 136.138 37.2464 135.854 37.2095C135.571 37.1664 135.288 37.1449 135.005 37.1449C134.353 37.1449 133.771 37.2834 133.26 37.5604C132.755 37.8312 132.355 38.2098 132.06 38.696C131.764 39.1761 131.616 39.724 131.616 40.3395V49H128.856ZM149.461 38.2805L146.959 38.7237C146.855 38.4036 146.689 38.099 146.461 37.8097C146.239 37.5204 145.938 37.2834 145.556 37.0987C145.174 36.9141 144.697 36.8217 144.125 36.8217C143.343 36.8217 142.691 36.9972 142.167 37.348C141.644 37.6927 141.383 38.139 141.383 38.6868C141.383 39.1607 141.558 39.5424 141.909 39.8317C142.26 40.121 142.826 40.358 143.608 40.5426L145.861 41.0597C147.166 41.3613 148.138 41.826 148.778 42.4538C149.418 43.0817 149.738 43.8973 149.738 44.9006C149.738 45.75 149.492 46.5071 149 47.1719C148.514 47.8305 147.833 48.3475 146.959 48.723C146.091 49.0985 145.085 49.2862 143.94 49.2862C142.352 49.2862 141.056 48.9477 140.053 48.2706C139.05 47.5874 138.434 46.6179 138.206 45.3622L140.875 44.956C141.041 45.6515 141.383 46.1778 141.9 46.5348C142.417 46.8857 143.091 47.0611 143.922 47.0611C144.827 47.0611 145.55 46.8733 146.091 46.4979C146.633 46.1162 146.904 45.6515 146.904 45.1037C146.904 44.6605 146.738 44.2881 146.405 43.9865C146.079 43.6849 145.577 43.4571 144.9 43.3033L142.5 42.777C141.176 42.4754 140.198 41.9953 139.564 41.3366C138.936 40.678 138.622 39.844 138.622 38.8345C138.622 37.9974 138.856 37.2649 139.324 36.6371C139.791 36.0092 140.438 35.5199 141.263 35.169C142.087 34.812 143.032 34.6335 144.097 34.6335C145.63 34.6335 146.836 34.9659 147.716 35.6307C148.597 36.2893 149.178 37.1726 149.461 38.2805ZM161.757 43.1186V34.8182H164.527V49H161.813V46.544H161.665C161.339 47.3011 160.816 47.9321 160.096 48.4368C159.382 48.9354 158.492 49.1847 157.427 49.1847C156.516 49.1847 155.71 48.9846 155.008 48.5845C154.313 48.1783 153.765 47.5781 153.365 46.7841C152.971 45.9901 152.774 45.0083 152.774 43.8388V34.8182H155.534V43.5064C155.534 44.4728 155.802 45.2422 156.338 45.8146C156.873 46.3871 157.569 46.6733 158.424 46.6733C158.941 46.6733 159.455 46.544 159.966 46.2855C160.483 46.027 160.911 45.6361 161.25 45.1129C161.594 44.5897 161.764 43.925 161.757 43.1186ZM168.237 49V34.8182H170.905V37.071H171.053C171.311 36.3078 171.767 35.7076 172.419 35.2706C173.078 34.8274 173.823 34.6058 174.654 34.6058C174.826 34.6058 175.029 34.612 175.263 34.6243C175.503 34.6366 175.691 34.652 175.826 34.6705V37.3111C175.715 37.2803 175.518 37.2464 175.235 37.2095C174.952 37.1664 174.669 37.1449 174.386 37.1449C173.733 37.1449 173.152 37.2834 172.641 37.5604C172.136 37.8312 171.736 38.2098 171.441 38.696C171.145 39.1761 170.997 39.724 170.997 40.3395V49H168.237ZM183.82 49.2862C182.422 49.2862 181.219 48.9877 180.21 48.3906C179.206 47.7874 178.431 46.9411 177.883 45.8516C177.341 44.7559 177.07 43.4725 177.07 42.0014C177.07 40.5488 177.341 39.2685 177.883 38.1605C178.431 37.0526 179.194 36.1877 180.173 35.5661C181.157 34.9444 182.308 34.6335 183.626 34.6335C184.426 34.6335 185.201 34.7659 185.952 35.0305C186.703 35.2952 187.377 35.7107 187.974 36.277C188.571 36.8433 189.042 37.5788 189.387 38.4837C189.732 39.3823 189.904 40.4749 189.904 41.7614V42.7401H178.631V40.6719H187.199C187.199 39.9455 187.051 39.3023 186.756 38.7422C186.46 38.1759 186.045 37.7296 185.509 37.4034C184.98 37.0772 184.358 36.9141 183.644 36.9141C182.869 36.9141 182.192 37.1049 181.613 37.4865C181.04 37.862 180.597 38.3544 180.283 38.9638C179.976 39.567 179.822 40.2225 179.822 40.9304V42.5462C179.822 43.4941 179.988 44.3004 180.32 44.9652C180.659 45.63 181.13 46.1378 181.733 46.4886C182.336 46.8333 183.041 47.0057 183.847 47.0057C184.371 47.0057 184.848 46.9318 185.278 46.7841C185.709 46.6302 186.082 46.4025 186.396 46.1009C186.71 45.7992 186.95 45.4268 187.116 44.9837L189.729 45.4545C189.519 46.224 189.144 46.898 188.602 47.4766C188.067 48.049 187.393 48.4953 186.58 48.8153C185.774 49.1293 184.854 49.2862 183.82 49.2862Z" fill="white"/>
<path d="M0 10C0 4.47715 4.47715 0 10 0H88L53.1574 80H10C4.47715 80 0 75.5229 0 70V10Z" fill="white" fill-opacity="0.5"/>
<path d="M33.9646 22C32.6663 22.0049 31.3722 22.1498 30.105 22.432H29.8886C25.9506 23.3605 22.4399 25.5838 19.921 28.7442C17.402 31.9047 16.0211 35.8188 16.0002 39.8572C15.9794 43.8955 17.3199 47.8236 19.8062 51.0098C22.2925 54.1959 25.7801 56.4551 29.7083 57.424H29.9608C31.2681 57.772 32.612 57.9653 33.9646 58C38.7479 58 43.3353 56.1036 46.7176 52.7279C50.0998 49.3523 52 44.7739 52 40C52 35.2261 50.0998 30.6477 46.7176 27.2721C43.3353 23.8964 38.7479 22 33.9646 22ZM30.3575 53.932C27.2699 53.1266 24.5369 51.3222 22.5864 48.8013C20.6358 46.2803 19.5777 43.1851 19.5777 40C19.5777 36.8149 20.6358 33.7197 22.5864 31.1987C24.5369 28.6778 27.2699 26.8734 30.3575 26.068C33.4452 26.8734 36.1781 28.6778 38.1287 31.1987C40.0793 33.7197 41.1373 36.8149 41.1373 40C41.1373 43.1851 40.0793 46.2803 38.1287 48.8013C36.1781 51.3222 33.4452 53.1266 30.3575 53.932ZM38.5276 53.644C40.4952 51.9542 42.0741 49.8604 43.1565 47.5056C44.2389 45.1509 44.7993 42.5907 44.7993 40C44.7993 37.4093 44.2389 34.8491 43.1565 32.4944C42.0741 30.1396 40.4952 28.0458 38.5276 26.356C41.3881 27.3195 43.8738 29.1542 45.6346 31.6019C47.3953 34.0496 48.3423 36.9868 48.3423 40C48.3423 43.0132 47.3953 45.9504 45.6346 48.3981C43.8738 50.8458 41.3881 52.6805 38.5276 53.644Z" fill="#323249"/>
</svg>
