<svg width="261" height="80" viewBox="0 0 261 80" fill="none" xmlns="http://www.w3.org/2000/svg">
<rect width="261" height="80" rx="10" fill="#E08129"/>
<path d="M103.199 49H97.0774V30.0909H103.393C105.246 30.0909 106.837 30.4695 108.166 31.2266C109.496 31.9775 110.514 33.0578 111.222 34.4673C111.936 35.8707 112.293 37.5542 112.293 39.5178C112.293 41.4875 111.933 43.1802 111.213 44.5959C110.499 46.0116 109.465 47.1011 108.111 47.8643C106.757 48.6214 105.119 49 103.199 49ZM99.9304 46.5071H103.042C104.482 46.5071 105.679 46.2363 106.634 45.6946C107.588 45.1468 108.302 44.3558 108.776 43.3217C109.25 42.2815 109.487 41.0135 109.487 39.5178C109.487 38.0343 109.25 36.7756 108.776 35.7415C108.308 34.7074 107.609 33.9226 106.68 33.3871C105.75 32.8516 104.596 32.5838 103.217 32.5838H99.9304V46.5071ZM121.593 49.2862C120.264 49.2862 119.103 48.9815 118.112 48.3722C117.121 47.7628 116.352 46.9103 115.804 45.8146C115.256 44.719 114.982 43.4387 114.982 41.9737C114.982 40.5026 115.256 39.2161 115.804 38.1143C116.352 37.0125 117.121 36.157 118.112 35.5476C119.103 34.9382 120.264 34.6335 121.593 34.6335C122.923 34.6335 124.083 34.9382 125.074 35.5476C126.065 36.157 126.834 37.0125 127.382 38.1143C127.93 39.2161 128.204 40.5026 128.204 41.9737C128.204 43.4387 127.93 44.719 127.382 45.8146C126.834 46.9103 126.065 47.7628 125.074 48.3722C124.083 48.9815 122.923 49.2862 121.593 49.2862ZM121.602 46.9688C122.464 46.9688 123.178 46.741 123.744 46.2855C124.311 45.83 124.729 45.2237 125 44.4666C125.277 43.7095 125.416 42.8755 125.416 41.9645C125.416 41.0597 125.277 40.2287 125 39.4716C124.729 38.7083 124.311 38.0959 123.744 37.6342C123.178 37.1726 122.464 36.9418 121.602 36.9418C120.735 36.9418 120.014 37.1726 119.442 37.6342C118.876 38.0959 118.454 38.7083 118.177 39.4716C117.906 40.2287 117.771 41.0597 117.771 41.9645C117.771 42.8755 117.906 43.7095 118.177 44.4666C118.454 45.2237 118.876 45.83 119.442 46.2855C120.014 46.741 120.735 46.9688 121.602 46.9688ZM140.269 43.1186V34.8182H143.039V49H140.325V46.544H140.177C139.851 47.3011 139.327 47.9321 138.607 48.4368C137.893 48.9354 137.004 49.1847 135.939 49.1847C135.028 49.1847 134.222 48.9846 133.52 48.5845C132.824 48.1783 132.277 47.5781 131.876 46.7841C131.482 45.9901 131.286 45.0083 131.286 43.8388V34.8182H134.046V43.5064C134.046 44.4728 134.314 45.2422 134.849 45.8146C135.385 46.3871 136.08 46.6733 136.936 46.6733C137.453 46.6733 137.967 46.544 138.478 46.2855C138.995 46.027 139.423 45.6361 139.761 45.1129C140.106 44.5897 140.275 43.925 140.269 43.1186ZM146.97 49V30.0909H149.731V37.1172H149.897C150.057 36.8217 150.288 36.4801 150.589 36.0923C150.891 35.7045 151.309 35.366 151.845 35.0767C152.381 34.7812 153.088 34.6335 153.969 34.6335C155.113 34.6335 156.135 34.9228 157.034 35.5014C157.933 36.08 158.637 36.9141 159.148 38.0036C159.665 39.093 159.924 40.4041 159.924 41.9368C159.924 43.4695 159.668 44.7836 159.157 45.8793C158.647 46.9687 157.945 47.8089 157.052 48.3999C156.16 48.9846 155.141 49.277 153.996 49.277C153.135 49.277 152.43 49.1323 151.882 48.843C151.34 48.5537 150.916 48.2152 150.608 47.8274C150.3 47.4396 150.063 47.0949 149.897 46.7933H149.666V49H146.97ZM149.675 41.9091C149.675 42.9062 149.82 43.7803 150.109 44.5312C150.398 45.2822 150.817 45.87 151.365 46.2947C151.913 46.7133 152.584 46.9226 153.378 46.9226C154.202 46.9226 154.892 46.7041 155.446 46.267C156 45.8239 156.418 45.2237 156.702 44.4666C156.991 43.7095 157.135 42.857 157.135 41.9091C157.135 40.9735 156.994 40.1333 156.711 39.3885C156.434 38.6437 156.015 38.0559 155.455 37.625C154.901 37.1941 154.209 36.9787 153.378 36.9787C152.577 36.9787 151.9 37.1849 151.346 37.5973C150.799 38.0097 150.383 38.5852 150.1 39.3239C149.817 40.0625 149.675 40.9242 149.675 41.9091ZM165.784 30.0909V49H163.024V30.0909H165.784ZM175.611 49.2862C174.213 49.2862 173.01 48.9877 172.001 48.3906C170.997 47.7874 170.222 46.9411 169.674 45.8516C169.132 44.7559 168.861 43.4725 168.861 42.0014C168.861 40.5488 169.132 39.2685 169.674 38.1605C170.222 37.0526 170.985 36.1877 171.964 35.5661C172.948 34.9444 174.099 34.6335 175.417 34.6335C176.217 34.6335 176.992 34.7659 177.743 35.0305C178.494 35.2952 179.168 35.7107 179.765 36.277C180.363 36.8433 180.833 37.5788 181.178 38.4837C181.523 39.3823 181.695 40.4749 181.695 41.7614V42.7401H170.422V40.6719H178.99C178.99 39.9455 178.842 39.3023 178.547 38.7422C178.251 38.1759 177.836 37.7296 177.3 37.4034C176.771 37.0772 176.149 36.9141 175.435 36.9141C174.66 36.9141 173.983 37.1049 173.404 37.4865C172.831 37.862 172.388 38.3544 172.074 38.9638C171.767 39.567 171.613 40.2225 171.613 40.9304V42.5462C171.613 43.4941 171.779 44.3004 172.111 44.9652C172.45 45.63 172.921 46.1378 173.524 46.4886C174.127 46.8333 174.832 47.0057 175.638 47.0057C176.162 47.0057 176.639 46.9318 177.069 46.7841C177.5 46.6302 177.873 46.4025 178.187 46.1009C178.501 45.7992 178.741 45.4268 178.907 44.9837L181.52 45.4545C181.31 46.224 180.935 46.898 180.393 47.4766C179.858 48.049 179.184 48.4953 178.371 48.8153C177.565 49.1293 176.645 49.2862 175.611 49.2862ZM191.861 49V30.0909H198.601C200.072 30.0909 201.291 30.3587 202.257 30.8942C203.223 31.4297 203.947 32.1622 204.427 33.0916C204.907 34.0149 205.147 35.0552 205.147 36.2124C205.147 37.3757 204.904 38.4221 204.417 39.3516C203.937 40.2749 203.211 41.0073 202.238 41.549C201.272 42.0845 200.056 42.3523 198.591 42.3523H193.956V39.9332H198.333C199.262 39.9332 200.016 39.7732 200.595 39.4531C201.174 39.1269 201.598 38.6837 201.869 38.1236C202.14 37.5634 202.275 36.9264 202.275 36.2124C202.275 35.4983 202.14 34.8643 201.869 34.3104C201.598 33.7564 201.171 33.3224 200.586 33.0085C200.007 32.6946 199.244 32.5376 198.296 32.5376H194.714V49H191.861ZM208.27 49V34.8182H211.031V49H208.27ZM209.664 32.63C209.184 32.63 208.772 32.4699 208.427 32.1499C208.088 31.8236 207.919 31.4358 207.919 30.9865C207.919 30.531 208.088 30.1432 208.427 29.8232C208.772 29.4969 209.184 29.3338 209.664 29.3338C210.144 29.3338 210.554 29.4969 210.892 29.8232C211.237 30.1432 211.409 30.531 211.409 30.9865C211.409 31.4358 211.237 31.8236 210.892 32.1499C210.554 32.4699 210.144 32.63 209.664 32.63ZM220.857 49.2862C219.459 49.2862 218.256 48.9877 217.247 48.3906C216.243 47.7874 215.468 46.9411 214.92 45.8516C214.378 44.7559 214.107 43.4725 214.107 42.0014C214.107 40.5488 214.378 39.2685 214.92 38.1605C215.468 37.0526 216.231 36.1877 217.21 35.5661C218.195 34.9444 219.346 34.6335 220.663 34.6335C221.463 34.6335 222.239 34.7659 222.99 35.0305C223.74 35.2952 224.414 35.7107 225.012 36.277C225.609 36.8433 226.079 37.5788 226.424 38.4837C226.769 39.3823 226.941 40.4749 226.941 41.7614V42.7401H215.668V40.6719H224.236C224.236 39.9455 224.088 39.3023 223.793 38.7422C223.497 38.1759 223.082 37.7296 222.546 37.4034C222.017 37.0772 221.395 36.9141 220.681 36.9141C219.906 36.9141 219.229 37.1049 218.65 37.4865C218.078 37.862 217.634 38.3544 217.32 38.9638C217.013 39.567 216.859 40.2225 216.859 40.9304V42.5462C216.859 43.4941 217.025 44.3004 217.357 44.9652C217.696 45.63 218.167 46.1378 218.77 46.4886C219.373 46.8333 220.078 47.0057 220.884 47.0057C221.408 47.0057 221.885 46.9318 222.316 46.7841C222.746 46.6302 223.119 46.4025 223.433 46.1009C223.747 45.7992 223.987 45.4268 224.153 44.9837L226.766 45.4545C226.557 46.224 226.181 46.898 225.639 47.4766C225.104 48.049 224.43 48.4953 223.617 48.8153C222.811 49.1293 221.891 49.2862 220.857 49.2862ZM235.313 49.277C234.168 49.277 233.147 48.9846 232.248 48.3999C231.355 47.8089 230.654 46.9687 230.143 45.8793C229.638 44.7836 229.386 43.4695 229.386 41.9368C229.386 40.4041 229.641 39.093 230.152 38.0036C230.669 36.9141 231.377 36.08 232.276 35.5014C233.174 34.9228 234.193 34.6335 235.332 34.6335C236.212 34.6335 236.92 34.7812 237.455 35.0767C237.997 35.366 238.415 35.7045 238.711 36.0923C239.013 36.4801 239.246 36.8217 239.413 37.1172H239.579V30.0909H242.339V49H239.643V46.7933H239.413C239.246 47.0949 239.006 47.4396 238.692 47.8274C238.385 48.2152 237.96 48.5537 237.418 48.843C236.877 49.1323 236.175 49.277 235.313 49.277ZM235.923 46.9226C236.717 46.9226 237.388 46.7133 237.935 46.2947C238.489 45.87 238.908 45.2822 239.191 44.5312C239.48 43.7803 239.625 42.9062 239.625 41.9091C239.625 40.9242 239.483 40.0625 239.2 39.3239C238.917 38.5852 238.502 38.0097 237.954 37.5973C237.406 37.1849 236.729 36.9787 235.923 36.9787C235.092 36.9787 234.399 37.1941 233.845 37.625C233.291 38.0559 232.873 38.6437 232.589 39.3885C232.313 40.1333 232.174 40.9735 232.174 41.9091C232.174 42.857 232.316 43.7095 232.599 44.4666C232.882 45.2237 233.3 45.8239 233.854 46.267C234.415 46.7041 235.104 46.9226 235.923 46.9226Z" fill="black"/>
<path d="M0 10C0 4.47715 4.47715 0 10 0H88L53.1574 80H10C4.47715 80 0 75.5228 0 70V10Z" fill="white" fill-opacity="0.5"/>
<path d="M41.6647 30.4375V18.3438C41.6647 17.6013 40.9748 17 40.1231 17H37.0397C36.188 17 35.4981 17.6013 35.4981 18.3438V30.6836C35.9818 30.5341 36.4944 30.4375 37.0368 30.4375H41.6647ZM53.9981 38.4992C53.9971 35.5312 51.2366 33.125 47.8324 33.125H37.0272C36.1812 33.125 35.4952 33.7188 35.4952 34.4562V34.5032C35.4952 36.7095 37.5475 38.5 40.0787 38.5H43.4762C44.4089 38.5 44.7481 38.8007 44.7481 39.1719V40.5324C44.7481 40.8927 44.4022 41.1858 43.9888 41.2043C39.6991 41.3958 37.8067 43.2796 34.734 47.2974L34.126 48.0927C34.0699 48.1661 33.9978 48.2292 33.9137 48.2783C33.8296 48.3274 33.7353 48.3616 33.636 48.3789C33.5368 48.3962 33.4346 48.3963 33.3353 48.3792C33.2361 48.3621 33.1416 48.3281 33.0574 48.2791L31.7749 47.5334C31.6907 47.4845 31.6183 47.4216 31.562 47.3483C31.5056 47.275 31.4664 47.1928 31.4466 47.1063C31.4267 47.0198 31.4266 46.9307 31.4462 46.8442C31.4659 46.7577 31.5049 46.6754 31.561 46.602L32.169 45.8066C33.6847 43.8246 35.0789 42.1735 36.7276 40.9288C35.0635 40.4661 33.702 39.407 32.9823 38.0356C32.3473 38.322 31.6372 38.4992 30.875 38.4992H27.7917C26.6027 38.4992 25.5283 38.0952 24.7083 37.451C23.8874 38.096 22.813 38.5 21.625 38.5H18.5417C17.9982 38.5 17.4847 38.4034 17 38.2522V44.7971C17 47.6484 18.2989 50.3821 20.6123 52.3986L23.1657 54.625V60H47.8304V54.6284L51.2905 51.6116C53.0257 50.0989 54.0003 48.0473 54 45.9083L53.9981 38.4992ZM50.9138 30.933V21.0312C50.9138 20.2888 50.2239 19.6875 49.3721 19.6875H46.2888C45.437 19.6875 44.7471 20.2888 44.7471 21.0312V30.4375H47.8304C48.9173 30.4375 49.9445 30.6315 50.9138 30.933ZM18.5417 35.8125H21.625C22.4768 35.8125 23.1667 35.2112 23.1667 34.4688V23.7188C23.1667 22.9763 22.4768 22.375 21.625 22.375H18.5417C17.6899 22.375 17 22.9763 17 23.7188V34.4688C17 35.2112 17.6899 35.8125 18.5417 35.8125ZM27.7907 35.8125H30.874C31.7258 35.8125 32.4157 35.2112 32.4157 34.4688V21.0312C32.4157 20.2888 31.7258 19.6875 30.874 19.6875H27.7907C26.9389 19.6875 26.249 20.2888 26.249 21.0312V34.4688C26.249 35.2112 26.9389 35.8125 27.7907 35.8125Z" fill="#E08129"/>
</svg>
