<svg width="261" height="80" viewBox="0 0 261 80" fill="none" xmlns="http://www.w3.org/2000/svg">
<rect width="261" height="80" rx="10" fill="#297DE0"/>
<path d="M110.73 30.0909L115.993 45.4915H116.205L121.468 30.0909H124.552L117.747 49H114.451L107.646 30.0909H110.73ZM127.061 49V34.8182H129.822V49H127.061ZM128.455 32.63C127.975 32.63 127.563 32.4699 127.218 32.1499C126.879 31.8236 126.71 31.4358 126.71 30.9865C126.71 30.531 126.879 30.1432 127.218 29.8232C127.563 29.4969 127.975 29.3338 128.455 29.3338C128.935 29.3338 129.345 29.4969 129.683 29.8232C130.028 30.1432 130.2 30.531 130.2 30.9865C130.2 31.4358 130.028 31.8236 129.683 32.1499C129.345 32.4699 128.935 32.63 128.455 32.63ZM133.757 49V30.0909H136.518V37.1172H136.684C136.844 36.8217 137.075 36.4801 137.376 36.0923C137.678 35.7045 138.097 35.366 138.632 35.0767C139.168 34.7812 139.875 34.6335 140.756 34.6335C141.901 34.6335 142.922 34.9228 143.821 35.5014C144.72 36.08 145.424 36.9141 145.935 38.0036C146.452 39.093 146.711 40.4041 146.711 41.9368C146.711 43.4695 146.455 44.7836 145.945 45.8793C145.434 46.9687 144.732 47.8089 143.839 48.3999C142.947 48.9846 141.928 49.277 140.783 49.277C139.922 49.277 139.217 49.1323 138.669 48.843C138.127 48.5537 137.703 48.2152 137.395 47.8274C137.087 47.4396 136.85 47.0949 136.684 46.7933H136.453V49H133.757ZM136.462 41.9091C136.462 42.9062 136.607 43.7803 136.896 44.5312C137.186 45.2822 137.604 45.87 138.152 46.2947C138.7 46.7133 139.371 46.9226 140.165 46.9226C140.99 46.9226 141.679 46.7041 142.233 46.267C142.787 45.8239 143.205 45.2237 143.489 44.4666C143.778 43.7095 143.923 42.857 143.923 41.9091C143.923 40.9735 143.781 40.1333 143.498 39.3885C143.221 38.6437 142.802 38.0559 142.242 37.625C141.688 37.1941 140.996 36.9787 140.165 36.9787C139.365 36.9787 138.688 37.1849 138.134 37.5973C137.586 38.0097 137.17 38.5852 136.887 39.3239C136.604 40.0625 136.462 40.9242 136.462 41.9091ZM149.811 49V34.8182H152.479V37.071H152.627C152.885 36.3078 153.341 35.7076 153.993 35.2706C154.652 34.8274 155.397 34.6058 156.228 34.6058C156.4 34.6058 156.603 34.612 156.837 34.6243C157.077 34.6366 157.265 34.652 157.4 34.6705V37.3111C157.29 37.2803 157.093 37.2464 156.809 37.2095C156.526 37.1664 156.243 37.1449 155.96 37.1449C155.308 37.1449 154.726 37.2834 154.215 37.5604C153.71 37.8312 153.31 38.2098 153.015 38.696C152.719 39.1761 152.572 39.724 152.572 40.3395V49H149.811ZM163.79 49.3139C162.891 49.3139 162.078 49.1477 161.352 48.8153C160.626 48.4768 160.05 47.9875 159.626 47.3473C159.207 46.7071 158.998 45.9223 158.998 44.9929C158.998 44.1927 159.152 43.5341 159.459 43.017C159.767 42.5 160.183 42.0907 160.706 41.7891C161.229 41.4875 161.814 41.2597 162.46 41.1058C163.106 40.9519 163.765 40.835 164.436 40.755C165.285 40.6565 165.975 40.5765 166.504 40.5149C167.033 40.4472 167.418 40.3395 167.658 40.1918C167.898 40.044 168.018 39.804 168.018 39.4716V39.407C168.018 38.6006 167.791 37.9759 167.335 37.5327C166.886 37.0895 166.215 36.8679 165.322 36.8679C164.393 36.8679 163.66 37.0741 163.125 37.4865C162.595 37.8928 162.229 38.3452 162.026 38.8438L159.432 38.2528C159.739 37.3911 160.189 36.6955 160.78 36.1662C161.377 35.6307 162.063 35.2429 162.839 35.0028C163.614 34.7566 164.43 34.6335 165.285 34.6335C165.852 34.6335 166.452 34.7012 167.086 34.8366C167.726 34.9659 168.323 35.206 168.877 35.5568C169.437 35.9077 169.896 36.4093 170.253 37.0618C170.61 37.7081 170.788 38.5483 170.788 39.5824V49H168.092V47.0611H167.981C167.803 47.4181 167.535 47.7689 167.178 48.1136C166.821 48.4583 166.363 48.7446 165.802 48.9723C165.242 49.2 164.571 49.3139 163.79 49.3139ZM164.39 47.098C165.153 47.098 165.805 46.9472 166.347 46.6456C166.895 46.344 167.31 45.95 167.594 45.4638C167.883 44.9714 168.028 44.4451 168.028 43.8849V42.0568C167.929 42.1553 167.738 42.2476 167.455 42.3338C167.178 42.4138 166.861 42.4846 166.504 42.5462C166.147 42.6016 165.799 42.6539 165.461 42.7031C165.122 42.7462 164.839 42.7831 164.611 42.8139C164.076 42.8816 163.586 42.9955 163.143 43.1555C162.706 43.3156 162.355 43.5464 162.091 43.848C161.832 44.1435 161.703 44.5374 161.703 45.0298C161.703 45.7131 161.955 46.2301 162.46 46.581C162.965 46.9257 163.608 47.098 164.39 47.098ZM184.04 54.3182V46.7933H183.874C183.707 47.0949 183.467 47.4396 183.153 47.8274C182.846 48.2152 182.421 48.5537 181.879 48.843C181.338 49.1323 180.636 49.277 179.774 49.277C178.629 49.277 177.607 48.9846 176.709 48.3999C175.816 47.8089 175.115 46.9687 174.604 45.8793C174.099 44.7836 173.847 43.4695 173.847 41.9368C173.847 40.4041 174.102 39.093 174.613 38.0036C175.13 36.9141 175.838 36.08 176.737 35.5014C177.635 34.9228 178.654 34.6335 179.793 34.6335C180.673 34.6335 181.381 34.7812 181.916 35.0767C182.458 35.366 182.876 35.7045 183.172 36.0923C183.473 36.4801 183.707 36.8217 183.874 37.1172H184.104V34.8182H186.8V54.3182H184.04ZM180.384 46.9226C181.178 46.9226 181.848 46.7133 182.396 46.2947C182.95 45.87 183.369 45.2822 183.652 44.5312C183.941 43.7803 184.086 42.9062 184.086 41.9091C184.086 40.9242 183.944 40.0625 183.661 39.3239C183.378 38.5852 182.963 38.0097 182.415 37.5973C181.867 37.1849 181.19 36.9787 180.384 36.9787C179.553 36.9787 178.86 37.1941 178.306 37.625C177.752 38.0559 177.334 38.6437 177.05 39.3885C176.773 40.1333 176.635 40.9735 176.635 41.9091C176.635 42.857 176.777 43.7095 177.06 44.4666C177.343 45.2237 177.761 45.8239 178.315 46.267C178.875 46.7041 179.565 46.9226 180.384 46.9226ZM199.496 43.1186V34.8182H202.266V49H199.551V46.544H199.403C199.077 47.3011 198.554 47.9321 197.834 48.4368C197.12 48.9354 196.23 49.1847 195.165 49.1847C194.254 49.1847 193.448 48.9846 192.746 48.5845C192.051 48.1783 191.503 47.5781 191.103 46.7841C190.709 45.9901 190.512 45.0083 190.512 43.8388V34.8182H193.273V43.5064C193.273 44.4728 193.54 45.2422 194.076 45.8146C194.612 46.3871 195.307 46.6733 196.163 46.6733C196.68 46.6733 197.194 46.544 197.705 46.2855C198.222 46.027 198.649 45.6361 198.988 45.1129C199.333 44.5897 199.502 43.925 199.496 43.1186ZM210.102 49.3139C209.203 49.3139 208.391 49.1477 207.665 48.8153C206.938 48.4768 206.363 47.9875 205.938 47.3473C205.519 46.7071 205.31 45.9223 205.31 44.9929C205.31 44.1927 205.464 43.5341 205.772 43.017C206.08 42.5 206.495 42.0907 207.018 41.7891C207.541 41.4875 208.126 41.2597 208.773 41.1058C209.419 40.9519 210.077 40.835 210.748 40.755C211.598 40.6565 212.287 40.5765 212.817 40.5149C213.346 40.4472 213.731 40.3395 213.971 40.1918C214.211 40.044 214.331 39.804 214.331 39.4716V39.407C214.331 38.6006 214.103 37.9759 213.648 37.5327C213.198 37.0895 212.527 36.8679 211.635 36.8679C210.705 36.8679 209.973 37.0741 209.437 37.4865C208.908 37.8928 208.542 38.3452 208.339 38.8438L205.744 38.2528C206.052 37.3911 206.501 36.6955 207.092 36.1662C207.689 35.6307 208.376 35.2429 209.151 35.0028C209.927 34.7566 210.742 34.6335 211.598 34.6335C212.164 34.6335 212.764 34.7012 213.398 34.8366C214.038 34.9659 214.635 35.206 215.189 35.5568C215.75 35.9077 216.208 36.4093 216.565 37.0618C216.922 37.7081 217.101 38.5483 217.101 39.5824V49H214.405V47.0611H214.294C214.115 47.4181 213.848 47.7689 213.491 48.1136C213.134 48.4583 212.675 48.7446 212.115 48.9723C211.555 49.2 210.884 49.3139 210.102 49.3139ZM210.702 47.098C211.465 47.098 212.118 46.9472 212.66 46.6456C213.207 46.344 213.623 45.95 213.906 45.4638C214.195 44.9714 214.34 44.4451 214.34 43.8849V42.0568C214.242 42.1553 214.051 42.2476 213.768 42.3338C213.491 42.4138 213.174 42.4846 212.817 42.5462C212.46 42.6016 212.112 42.6539 211.773 42.7031C211.435 42.7462 211.152 42.7831 210.924 42.8139C210.388 42.8816 209.899 42.9955 209.456 43.1555C209.019 43.3156 208.668 43.5464 208.403 43.848C208.145 44.1435 208.015 44.5374 208.015 45.0298C208.015 45.7131 208.268 46.2301 208.773 46.581C209.277 46.9257 209.921 47.098 210.702 47.098Z" fill="white"/>
<path d="M0 10C0 4.47715 4.47715 0 10 0H88L53.1574 80H10C4.47715 80 0 75.5228 0 70V10Z" fill="white" fill-opacity="0.5"/>
<path d="M34.5 58C30.1344 58 26.2926 56.4596 22.9748 53.3788C19.6569 50.2979 17.9986 46.1279 18 40.8688C18 37.5609 19.2375 33.9745 21.7125 30.1096C24.1875 26.2446 27.9344 22.0662 32.9531 17.5745C33.1594 17.4004 33.4 17.2611 33.675 17.1567C33.95 17.0522 34.225 17 34.5 17C34.775 17 35.05 17.0522 35.325 17.1567C35.6 17.2611 35.8406 17.4004 36.0469 17.5745C41.0656 22.0662 44.8125 26.2446 47.2875 30.1096C49.7625 33.9745 51 37.5609 51 40.8688C51 46.1265 49.3411 50.2965 46.0232 53.3788C42.7053 56.461 38.8642 58.0014 34.5 58ZM35.0672 51.7325C35.4797 51.6977 35.8324 51.5319 36.1253 51.2353C36.4181 50.9386 36.5639 50.582 36.5625 50.1656C36.5625 49.6781 36.4078 49.2861 36.0984 48.9894C35.7891 48.6927 35.3937 48.5625 34.9125 48.5987C33.5031 48.7032 32.0078 48.3111 30.4266 47.4225C28.8453 46.5339 27.8484 44.9239 27.4359 42.5924C27.3672 42.2093 27.1871 41.896 26.8956 41.6522C26.6041 41.4085 26.2686 41.2866 25.8891 41.2866C25.4078 41.2866 25.0125 41.4698 24.7031 41.8361C24.3938 42.2024 24.2906 42.6286 24.3938 43.1146C24.9781 46.2832 26.3531 48.5465 28.5188 49.9045C30.6844 51.2624 32.8672 51.8718 35.0672 51.7325Z" fill="#297DE0"/>
</svg>
