<svg width="261" height="80" viewBox="0 0 261 80" fill="none" xmlns="http://www.w3.org/2000/svg">
<rect width="261" height="80" rx="10" fill="#FCD148"/>
<path d="M89.0774 49V30.0909H100.803V32.5469H91.9304V38.3082H99.9631V40.755H91.9304V49H89.0774ZM108.167 49.3139C107.268 49.3139 106.455 49.1477 105.729 48.8153C105.003 48.4768 104.427 47.9875 104.002 47.3473C103.584 46.7071 103.375 45.9223 103.375 44.9929C103.375 44.1927 103.529 43.5341 103.836 43.017C104.144 42.5 104.56 42.0907 105.083 41.7891C105.606 41.4875 106.191 41.2597 106.837 41.1058C107.483 40.9519 108.142 40.835 108.813 40.755C109.662 40.6565 110.352 40.5765 110.881 40.5149C111.41 40.4472 111.795 40.3395 112.035 40.1918C112.275 40.044 112.395 39.804 112.395 39.4716V39.407C112.395 38.6006 112.167 37.9759 111.712 37.5327C111.263 37.0895 110.592 36.8679 109.699 36.8679C108.77 36.8679 108.037 37.0741 107.502 37.4865C106.972 37.8928 106.606 38.3452 106.403 38.8438L103.809 38.2528C104.116 37.3911 104.566 36.6955 105.157 36.1662C105.754 35.6307 106.44 35.2429 107.216 35.0028C107.991 34.7566 108.807 34.6335 109.662 34.6335C110.229 34.6335 110.829 34.7012 111.463 34.8366C112.103 34.9659 112.7 35.206 113.254 35.5568C113.814 35.9077 114.273 36.4093 114.63 37.0618C114.987 37.7081 115.165 38.5483 115.165 39.5824V49H112.469V47.0611H112.358C112.18 47.4181 111.912 47.7689 111.555 48.1136C111.198 48.4583 110.739 48.7446 110.179 48.9723C109.619 49.2 108.948 49.3139 108.167 49.3139ZM108.767 47.098C109.53 47.098 110.182 46.9472 110.724 46.6456C111.272 46.344 111.687 45.95 111.971 45.4638C112.26 44.9714 112.404 44.4451 112.404 43.8849V42.0568C112.306 42.1553 112.115 42.2476 111.832 42.3338C111.555 42.4138 111.238 42.4846 110.881 42.5462C110.524 42.6016 110.176 42.6539 109.838 42.7031C109.499 42.7462 109.216 42.7831 108.988 42.8139C108.453 42.8816 107.963 42.9955 107.52 43.1555C107.083 43.3156 106.732 43.5464 106.468 43.848C106.209 44.1435 106.08 44.5374 106.08 45.0298C106.08 45.7131 106.332 46.2301 106.837 46.581C107.342 46.9257 107.985 47.098 108.767 47.098ZM125.462 34.8182V37.0341H117.716V34.8182H125.462ZM119.793 31.4205H122.554V44.8359C122.554 45.3714 122.634 45.7746 122.794 46.0455C122.954 46.3101 123.16 46.4917 123.412 46.5902C123.671 46.6825 123.951 46.7287 124.253 46.7287C124.474 46.7287 124.668 46.7133 124.834 46.6825C125.001 46.6518 125.13 46.6271 125.222 46.6087L125.721 48.8892C125.561 48.9508 125.333 49.0123 125.037 49.0739C124.742 49.1416 124.373 49.1785 123.93 49.1847C123.203 49.197 122.526 49.0677 121.898 48.7969C121.27 48.526 120.763 48.1075 120.375 47.5412C119.987 46.9749 119.793 46.264 119.793 45.4084V31.4205ZM132.643 49.3139C131.744 49.3139 130.932 49.1477 130.206 48.8153C129.479 48.4768 128.904 47.9875 128.479 47.3473C128.06 46.7071 127.851 45.9223 127.851 44.9929C127.851 44.1927 128.005 43.5341 128.313 43.017C128.621 42.5 129.036 42.0907 129.559 41.7891C130.083 41.4875 130.667 41.2597 131.314 41.1058C131.96 40.9519 132.618 40.835 133.289 40.755C134.139 40.6565 134.828 40.5765 135.358 40.5149C135.887 40.4472 136.272 40.3395 136.512 40.1918C136.752 40.044 136.872 39.804 136.872 39.4716V39.407C136.872 38.6006 136.644 37.9759 136.189 37.5327C135.739 37.0895 135.068 36.8679 134.176 36.8679C133.246 36.8679 132.514 37.0741 131.978 37.4865C131.449 37.8928 131.083 38.3452 130.88 38.8438L128.285 38.2528C128.593 37.3911 129.042 36.6955 129.633 36.1662C130.23 35.6307 130.917 35.2429 131.692 35.0028C132.468 34.7566 133.283 34.6335 134.139 34.6335C134.705 34.6335 135.305 34.7012 135.939 34.8366C136.579 34.9659 137.176 35.206 137.73 35.5568C138.291 35.9077 138.749 36.4093 139.106 37.0618C139.463 37.7081 139.642 38.5483 139.642 39.5824V49H136.946V47.0611H136.835C136.656 47.4181 136.389 47.7689 136.032 48.1136C135.675 48.4583 135.216 48.7446 134.656 48.9723C134.096 49.2 133.425 49.3139 132.643 49.3139ZM133.243 47.098C134.007 47.098 134.659 46.9472 135.201 46.6456C135.748 46.344 136.164 45.95 136.447 45.4638C136.736 44.9714 136.881 44.4451 136.881 43.8849V42.0568C136.783 42.1553 136.592 42.2476 136.309 42.3338C136.032 42.4138 135.715 42.4846 135.358 42.5462C135.001 42.6016 134.653 42.6539 134.314 42.7031C133.976 42.7462 133.693 42.7831 133.465 42.8139C132.929 42.8816 132.44 42.9955 131.997 43.1555C131.56 43.3156 131.209 43.5464 130.944 43.848C130.686 44.1435 130.556 44.5374 130.556 45.0298C130.556 45.7131 130.809 46.2301 131.314 46.581C131.818 46.9257 132.462 47.098 133.243 47.098ZM146.079 30.0909V49H143.319V30.0909H146.079ZM158.149 39.8132V42.2045H149.766V39.8132H158.149ZM162.05 49V30.0909H173.776V32.5469H164.903V38.3082H172.936V40.755H164.903V49H162.05ZM181.996 49.2862C180.666 49.2862 179.506 48.9815 178.515 48.3722C177.524 47.7628 176.754 46.9103 176.206 45.8146C175.659 44.719 175.385 43.4387 175.385 41.9737C175.385 40.5026 175.659 39.2161 176.206 38.1143C176.754 37.0125 177.524 36.157 178.515 35.5476C179.506 34.9382 180.666 34.6335 181.996 34.6335C183.325 34.6335 184.485 34.9382 185.476 35.5476C186.467 36.157 187.237 37.0125 187.785 38.1143C188.332 39.2161 188.606 40.5026 188.606 41.9737C188.606 43.4387 188.332 44.719 187.785 45.8146C187.237 46.9103 186.467 47.7628 185.476 48.3722C184.485 48.9815 183.325 49.2862 181.996 49.2862ZM182.005 46.9688C182.867 46.9688 183.581 46.741 184.147 46.2855C184.713 45.83 185.132 45.2237 185.403 44.4666C185.68 43.7095 185.818 42.8755 185.818 41.9645C185.818 41.0597 185.68 40.2287 185.403 39.4716C185.132 38.7083 184.713 38.0959 184.147 37.6342C183.581 37.1726 182.867 36.9418 182.005 36.9418C181.137 36.9418 180.417 37.1726 179.844 37.6342C179.278 38.0959 178.856 38.7083 178.579 39.4716C178.309 40.2287 178.173 41.0597 178.173 41.9645C178.173 42.8755 178.309 43.7095 178.579 44.4666C178.856 45.2237 179.278 45.83 179.844 46.2855C180.417 46.741 181.137 46.9688 182.005 46.9688ZM200.672 43.1186V34.8182H203.441V49H200.727V46.544H200.579C200.253 47.3011 199.73 47.9321 199.01 48.4368C198.296 48.9354 197.406 49.1847 196.341 49.1847C195.43 49.1847 194.624 48.9846 193.922 48.5845C193.227 48.1783 192.679 47.5781 192.279 46.7841C191.885 45.9901 191.688 45.0083 191.688 43.8388V34.8182H194.449V43.5064C194.449 44.4728 194.716 45.2422 195.252 45.8146C195.787 46.3871 196.483 46.6733 197.338 46.6733C197.855 46.6733 198.369 46.544 198.88 46.2855C199.397 46.027 199.825 45.6361 200.164 45.1129C200.508 44.5897 200.678 43.925 200.672 43.1186ZM212.46 49.277C211.315 49.277 210.293 48.9846 209.394 48.3999C208.502 47.8089 207.8 46.9687 207.289 45.8793C206.785 44.7836 206.532 43.4695 206.532 41.9368C206.532 40.4041 206.788 39.093 207.298 38.0036C207.816 36.9141 208.523 36.08 209.422 35.5014C210.321 34.9228 211.339 34.6335 212.478 34.6335C213.358 34.6335 214.066 34.7812 214.602 35.0767C215.143 35.366 215.562 35.7045 215.857 36.0923C216.159 36.4801 216.393 36.8217 216.559 37.1172H216.725V30.0909H219.486V49H216.79V46.7933H216.559C216.393 47.0949 216.153 47.4396 215.839 47.8274C215.531 48.2152 215.106 48.5537 214.565 48.843C214.023 49.1323 213.321 49.277 212.46 49.277ZM213.069 46.9226C213.863 46.9226 214.534 46.7133 215.082 46.2947C215.636 45.87 216.054 45.2822 216.338 44.5312C216.627 43.7803 216.771 42.9062 216.771 41.9091C216.771 40.9242 216.63 40.0625 216.347 39.3239C216.064 38.5852 215.648 38.0097 215.1 37.5973C214.552 37.1849 213.875 36.9787 213.069 36.9787C212.238 36.9787 211.546 37.1941 210.992 37.625C210.438 38.0559 210.019 38.6437 209.736 39.3885C209.459 40.1333 209.32 40.9735 209.32 41.9091C209.32 42.857 209.462 43.7095 209.745 44.4666C210.028 45.2237 210.447 45.8239 211.001 46.267C211.561 46.7041 212.25 46.9226 213.069 46.9226ZM223.426 49V34.8182H226.094V37.071H226.242C226.501 36.3078 226.956 35.7076 227.609 35.2706C228.267 34.8274 229.012 34.6058 229.843 34.6058C230.015 34.6058 230.219 34.612 230.452 34.6243C230.692 34.6366 230.88 34.652 231.016 34.6705V37.3111C230.905 37.2803 230.708 37.2464 230.425 37.2095C230.142 37.1664 229.858 37.1449 229.575 37.1449C228.923 37.1449 228.341 37.2834 227.83 37.5604C227.326 37.8312 226.925 38.2098 226.63 38.696C226.335 39.1761 226.187 39.724 226.187 40.3395V49H223.426ZM239.009 49.2862C237.612 49.2862 236.408 48.9877 235.399 48.3906C234.396 47.7874 233.62 46.9411 233.072 45.8516C232.531 44.7559 232.26 43.4725 232.26 42.0014C232.26 40.5488 232.531 39.2685 233.072 38.1605C233.62 37.0526 234.383 36.1877 235.362 35.5661C236.347 34.9444 237.498 34.6335 238.815 34.6335C239.615 34.6335 240.391 34.7659 241.142 35.0305C241.893 35.2952 242.567 35.7107 243.164 36.277C243.761 36.8433 244.232 37.5788 244.577 38.4837C244.921 39.3823 245.094 40.4749 245.094 41.7614V42.7401H233.82V40.6719H242.388C242.388 39.9455 242.241 39.3023 241.945 38.7422C241.65 38.1759 241.234 37.7296 240.699 37.4034C240.169 37.0772 239.548 36.9141 238.834 36.9141C238.058 36.9141 237.381 37.1049 236.802 37.4865C236.23 37.862 235.787 38.3544 235.473 38.9638C235.165 39.567 235.011 40.2225 235.011 40.9304V42.5462C235.011 43.4941 235.177 44.3004 235.51 44.9652C235.848 45.63 236.319 46.1378 236.922 46.4886C237.526 46.8333 238.23 47.0057 239.037 47.0057C239.56 47.0057 240.037 46.9318 240.468 46.7841C240.899 46.6302 241.271 46.4025 241.585 46.1009C241.899 45.7992 242.139 45.4268 242.305 44.9837L244.918 45.4545C244.709 46.224 244.333 46.898 243.792 47.4766C243.256 48.049 242.582 48.4953 241.77 48.8153C240.963 49.1293 240.043 49.2862 239.009 49.2862Z" fill="black"/>
<path d="M0 10C0 4.47715 4.47715 0 10 0H88L53.1574 80H10C4.47715 80 0 75.5228 0 70V10Z" fill="white" fill-opacity="0.5"/>
<path d="M33.6667 47.7273H22L38.3333 14V33.2727H50L33.6667 67V47.7273Z" fill="#F3C637"/>
</svg>
