<svg width="261" height="80" viewBox="0 0 261 80" fill="none" xmlns="http://www.w3.org/2000/svg">
<rect width="261" height="80" rx="10" fill="#FF9900"/>
<path d="M99.0774 49V30.0909H110.933V32.5469H101.93V38.3082H110.314V40.755H101.93V46.544H111.043V49H99.0774ZM114.743 49V30.0909H117.504V37.1172H117.67C117.83 36.8217 118.061 36.4801 118.363 36.0923C118.664 35.7045 119.083 35.366 119.618 35.0767C120.154 34.7812 120.862 34.6335 121.742 34.6335C122.887 34.6335 123.909 34.9228 124.807 35.5014C125.706 36.08 126.411 36.9141 126.922 38.0036C127.439 39.093 127.697 40.4041 127.697 41.9368C127.697 43.4695 127.442 44.7836 126.931 45.8793C126.42 46.9687 125.718 47.8089 124.826 48.3999C123.933 48.9846 122.915 49.277 121.77 49.277C120.908 49.277 120.203 49.1323 119.655 48.843C119.114 48.5537 118.689 48.2152 118.381 47.8274C118.073 47.4396 117.836 47.0949 117.67 46.7933H117.439V49H114.743ZM117.449 41.9091C117.449 42.9062 117.593 43.7803 117.883 44.5312C118.172 45.2822 118.59 45.87 119.138 46.2947C119.686 46.7133 120.357 46.9226 121.151 46.9226C121.976 46.9226 122.665 46.7041 123.219 46.267C123.773 45.8239 124.192 45.2237 124.475 44.4666C124.764 43.7095 124.909 42.857 124.909 41.9091C124.909 40.9735 124.767 40.1333 124.484 39.3885C124.207 38.6437 123.789 38.0559 123.229 37.625C122.675 37.1941 121.982 36.9787 121.151 36.9787C120.351 36.9787 119.674 37.1849 119.12 37.5973C118.572 38.0097 118.157 38.5852 117.873 39.3239C117.59 40.0625 117.449 40.9242 117.449 41.9091ZM139.781 43.1186V34.8182H142.551V49H139.836V46.544H139.689C139.362 47.3011 138.839 47.9321 138.119 48.4368C137.405 48.9354 136.516 49.1847 135.451 49.1847C134.54 49.1847 133.733 48.9846 133.032 48.5845C132.336 48.1783 131.788 47.5781 131.388 46.7841C130.994 45.9901 130.797 45.0083 130.797 43.8388V34.8182H133.558V43.5064C133.558 44.4728 133.826 45.2422 134.361 45.8146C134.897 46.3871 135.592 46.6733 136.448 46.6733C136.965 46.6733 137.479 46.544 137.99 46.2855C138.507 46.027 138.935 45.6361 139.273 45.1129C139.618 44.5897 139.787 43.925 139.781 43.1186ZM149.021 30.0909V49H146.26V30.0909H149.021ZM155.495 30.0909V49H152.735V30.0909H155.495ZM159.209 49V34.8182H161.97V49H159.209ZM160.604 32.63C160.123 32.63 159.711 32.4699 159.366 32.1499C159.028 31.8236 158.858 31.4358 158.858 30.9865C158.858 30.531 159.028 30.1432 159.366 29.8232C159.711 29.4969 160.123 29.3338 160.604 29.3338C161.084 29.3338 161.493 29.4969 161.831 29.8232C162.176 30.1432 162.349 30.531 162.349 30.9865C162.349 31.4358 162.176 31.8236 161.831 32.1499C161.493 32.4699 161.084 32.63 160.604 32.63ZM168.445 30.0909V49H165.684V30.0909H168.445ZM176.286 49.3139C175.387 49.3139 174.575 49.1477 173.848 48.8153C173.122 48.4768 172.546 47.9875 172.122 47.3473C171.703 46.7071 171.494 45.9223 171.494 44.9929C171.494 44.1927 171.648 43.5341 171.955 43.017C172.263 42.5 172.679 42.0907 173.202 41.7891C173.725 41.4875 174.31 41.2597 174.956 41.1058C175.602 40.9519 176.261 40.835 176.932 40.755C177.781 40.6565 178.471 40.5765 179 40.5149C179.53 40.4472 179.914 40.3395 180.154 40.1918C180.394 40.044 180.514 39.804 180.514 39.4716V39.407C180.514 38.6006 180.287 37.9759 179.831 37.5327C179.382 37.0895 178.711 36.8679 177.818 36.8679C176.889 36.8679 176.156 37.0741 175.621 37.4865C175.092 37.8928 174.725 38.3452 174.522 38.8438L171.928 38.2528C172.235 37.3911 172.685 36.6955 173.276 36.1662C173.873 35.6307 174.559 35.2429 175.335 35.0028C176.11 34.7566 176.926 34.6335 177.781 34.6335C178.348 34.6335 178.948 34.7012 179.582 34.8366C180.222 34.9659 180.819 35.206 181.373 35.5568C181.933 35.9077 182.392 36.4093 182.749 37.0618C183.106 37.7081 183.284 38.5483 183.284 39.5824V49H180.588V47.0611H180.477C180.299 47.4181 180.031 47.7689 179.674 48.1136C179.317 48.4583 178.859 48.7446 178.298 48.9723C177.738 49.2 177.067 49.3139 176.286 49.3139ZM176.886 47.098C177.649 47.098 178.302 46.9472 178.843 46.6456C179.391 46.344 179.807 45.95 180.09 45.4638C180.379 44.9714 180.524 44.4451 180.524 43.8849V42.0568C180.425 42.1553 180.234 42.2476 179.951 42.3338C179.674 42.4138 179.357 42.4846 179 42.5462C178.643 42.6016 178.295 42.6539 177.957 42.7031C177.618 42.7462 177.335 42.7831 177.107 42.8139C176.572 42.8816 176.083 42.9955 175.639 43.1555C175.202 43.3156 174.852 43.5464 174.587 43.848C174.328 44.1435 174.199 44.5374 174.199 45.0298C174.199 45.7131 174.451 46.2301 174.956 46.581C175.461 46.9257 176.104 47.098 176.886 47.098ZM198.586 34.8182L193.443 49H190.488L185.336 34.8182H188.3L191.892 45.7315H192.039L195.622 34.8182H198.586ZM206.81 49.2862C205.413 49.2862 204.209 48.9877 203.2 48.3906C202.196 47.7874 201.421 46.9411 200.873 45.8516C200.331 44.7559 200.061 43.4725 200.061 42.0014C200.061 40.5488 200.331 39.2685 200.873 38.1605C201.421 37.0526 202.184 36.1877 203.163 35.5661C204.148 34.9444 205.299 34.6335 206.616 34.6335C207.416 34.6335 208.192 34.7659 208.943 35.0305C209.694 35.2952 210.368 35.7107 210.965 36.277C211.562 36.8433 212.033 37.5788 212.377 38.4837C212.722 39.3823 212.894 40.4749 212.894 41.7614V42.7401H201.621V40.6719H210.189C210.189 39.9455 210.041 39.3023 209.746 38.7422C209.45 38.1759 209.035 37.7296 208.499 37.4034C207.97 37.0772 207.348 36.9141 206.634 36.9141C205.859 36.9141 205.182 37.1049 204.603 37.4865C204.031 37.862 203.588 38.3544 203.274 38.9638C202.966 39.567 202.812 40.2225 202.812 40.9304V42.5462C202.812 43.4941 202.978 44.3004 203.311 44.9652C203.649 45.63 204.12 46.1378 204.723 46.4886C205.326 46.8333 206.031 47.0057 206.838 47.0057C207.361 47.0057 207.838 46.9318 208.269 46.7841C208.7 46.6302 209.072 46.4025 209.386 46.1009C209.7 45.7992 209.94 45.4268 210.106 44.9837L212.719 45.4545C212.51 46.224 212.134 46.898 211.593 47.4766C211.057 48.049 210.383 48.4953 209.57 48.8153C208.764 49.1293 207.844 49.2862 206.81 49.2862Z" fill="black"/>
<path d="M0 10C0 4.47715 4.47715 0 10 0H88L53.1574 80H10C4.47715 80 0 75.5228 0 70V10Z" fill="white" fill-opacity="0.5"/>
<path d="M33.7212 20.4579L31.2933 19L30.8308 21.798C30.0947 26.216 27.0829 30.3213 23.7609 33.2061C17.2576 38.8561 15.8336 44.9966 17.8472 50.0654C19.7741 54.916 24.6647 58.2373 29.6284 58.7915L30.7769 58.9189C27.9366 57.1791 26.1137 53.1144 26.7496 50.077C27.3778 47.0917 29.5205 44.2957 33.6364 41.7159L35.7117 40.4183L36.4863 42.7451C36.943 44.12 37.7331 45.2245 38.5366 46.3464C38.922 46.887 39.3131 47.4335 39.6715 48.0147C40.9106 50.0326 41.2381 52.2764 40.4385 54.5028C39.7101 56.5264 38.5077 58.1175 36.8544 59L38.7235 58.7915C43.3828 58.272 46.8031 56.6751 49.0248 54.0046C51.2273 51.3572 52 47.9491 52 44.3208C52 40.9416 50.6145 37.4581 48.9805 34.5597C47.0651 31.1651 44.5659 28.3459 41.8374 25.6136C41.3653 26.5597 41.4019 26.9421 40.4307 28.4617C39.1701 25.1053 36.8028 22.2813 33.7212 20.4579Z" fill="#FF9900"/>
</svg>
