<svg width="261" height="80" viewBox="0 0 261 80" fill="none" xmlns="http://www.w3.org/2000/svg">
<rect width="261" height="80" rx="10" fill="#297DE0"/>
<path d="M89.0774 49V30.0909H91.9304V38.3082H101.357V30.0909H104.219V49H101.357V40.755H91.9304V49H89.0774ZM109.898 54.3182C109.485 54.3182 109.11 54.2843 108.771 54.2166C108.433 54.1551 108.18 54.0874 108.014 54.0135L108.679 51.7514C109.184 51.8868 109.633 51.9453 110.027 51.9268C110.421 51.9084 110.769 51.7607 111.07 51.4837C111.378 51.2067 111.649 50.7543 111.883 50.1264L112.224 49.1847L107.036 34.8182H109.99L113.582 45.8239H113.729L117.321 34.8182H120.285L114.44 50.8928C114.17 51.6314 113.825 52.2562 113.406 52.767C112.988 53.2841 112.489 53.6719 111.911 53.9304C111.332 54.1889 110.661 54.3182 109.898 54.3182ZM127.706 49.277C126.561 49.277 125.539 48.9846 124.64 48.3999C123.748 47.8089 123.046 46.9687 122.535 45.8793C122.031 44.7836 121.778 43.4695 121.778 41.9368C121.778 40.4041 122.034 39.093 122.545 38.0036C123.062 36.9141 123.769 36.08 124.668 35.5014C125.567 34.9228 126.586 34.6335 127.724 34.6335C128.604 34.6335 129.312 34.7812 129.848 35.0767C130.39 35.366 130.808 35.7045 131.104 36.0923C131.405 36.4801 131.639 36.8217 131.805 37.1172H131.971V30.0909H134.732V49H132.036V46.7933H131.805C131.639 47.0949 131.399 47.4396 131.085 47.8274C130.777 48.2152 130.353 48.5537 129.811 48.843C129.269 49.1323 128.568 49.277 127.706 49.277ZM128.315 46.9226C129.109 46.9226 129.78 46.7133 130.328 46.2947C130.882 45.87 131.3 45.2822 131.584 44.5312C131.873 43.7803 132.018 42.9062 132.018 41.9091C132.018 40.9242 131.876 40.0625 131.593 39.3239C131.31 38.5852 130.894 38.0097 130.346 37.5973C129.799 37.1849 129.122 36.9787 128.315 36.9787C127.484 36.9787 126.792 37.1941 126.238 37.625C125.684 38.0559 125.265 38.6437 124.982 39.3885C124.705 40.1333 124.567 40.9735 124.567 41.9091C124.567 42.857 124.708 43.7095 124.991 44.4666C125.274 45.2237 125.693 45.8239 126.247 46.267C126.807 46.7041 127.497 46.9226 128.315 46.9226ZM138.672 49V34.8182H141.341V37.071H141.488C141.747 36.3078 142.202 35.7076 142.855 35.2706C143.513 34.8274 144.258 34.6058 145.089 34.6058C145.261 34.6058 145.465 34.612 145.699 34.6243C145.939 34.6366 146.126 34.652 146.262 34.6705V37.3111C146.151 37.2803 145.954 37.2464 145.671 37.2095C145.388 37.1664 145.105 37.1449 144.821 37.1449C144.169 37.1449 143.587 37.2834 143.076 37.5604C142.572 37.8312 142.172 38.2098 141.876 38.696C141.581 39.1761 141.433 39.724 141.433 40.3395V49H138.672ZM154.117 49.2862C152.787 49.2862 151.627 48.9815 150.636 48.3722C149.645 47.7628 148.875 46.9103 148.328 45.8146C147.78 44.719 147.506 43.4387 147.506 41.9737C147.506 40.5026 147.78 39.2161 148.328 38.1143C148.875 37.0125 149.645 36.157 150.636 35.5476C151.627 34.9382 152.787 34.6335 154.117 34.6335C155.446 34.6335 156.606 34.9382 157.597 35.5476C158.588 36.157 159.358 37.0125 159.906 38.1143C160.454 39.2161 160.727 40.5026 160.727 41.9737C160.727 43.4387 160.454 44.719 159.906 45.8146C159.358 46.9103 158.588 47.7628 157.597 48.3722C156.606 48.9815 155.446 49.2862 154.117 49.2862ZM154.126 46.9688C154.988 46.9688 155.702 46.741 156.268 46.2855C156.834 45.83 157.253 45.2237 157.524 44.4666C157.801 43.7095 157.939 42.8755 157.939 41.9645C157.939 41.0597 157.801 40.2287 157.524 39.4716C157.253 38.7083 156.834 38.0959 156.268 37.6342C155.702 37.1726 154.988 36.9418 154.126 36.9418C153.258 36.9418 152.538 37.1726 151.965 37.6342C151.399 38.0959 150.977 38.7083 150.7 39.4716C150.43 40.2287 150.294 41.0597 150.294 41.9645C150.294 42.8755 150.43 43.7095 150.7 44.4666C150.977 45.2237 151.399 45.83 151.965 46.2855C152.538 46.741 153.258 46.9688 154.126 46.9688ZM169.783 49.2862C168.41 49.2862 167.228 48.9754 166.237 48.3537C165.252 47.7259 164.495 46.861 163.966 45.7592C163.437 44.6574 163.172 43.3956 163.172 41.9737C163.172 40.5334 163.443 39.2623 163.984 38.1605C164.526 37.0526 165.289 36.1877 166.274 35.5661C167.259 34.9444 168.419 34.6335 169.755 34.6335C170.832 34.6335 171.792 34.8336 172.636 35.2337C173.479 35.6276 174.159 36.1816 174.676 36.8956C175.199 37.6096 175.51 38.4437 175.609 39.3977H172.922C172.774 38.733 172.436 38.1605 171.906 37.6804C171.383 37.2003 170.681 36.9602 169.801 36.9602C169.032 36.9602 168.358 37.1634 167.779 37.5696C167.207 37.9697 166.76 38.5421 166.44 39.2869C166.12 40.0256 165.96 40.8996 165.96 41.9091C165.96 42.9432 166.117 43.8357 166.431 44.5866C166.745 45.3376 167.188 45.9193 167.761 46.3317C168.339 46.7441 169.019 46.9503 169.801 46.9503C170.324 46.9503 170.798 46.8549 171.223 46.6641C171.654 46.4671 172.014 46.187 172.303 45.8239C172.599 45.4607 172.805 45.0237 172.922 44.5128H175.609C175.51 45.4299 175.212 46.2486 174.713 46.9688C174.214 47.6889 173.547 48.2552 172.71 48.6676C171.879 49.08 170.903 49.2862 169.783 49.2862ZM182.688 49.3139C181.789 49.3139 180.977 49.1477 180.251 48.8153C179.524 48.4768 178.949 47.9875 178.524 47.3473C178.105 46.7071 177.896 45.9223 177.896 44.9929C177.896 44.1927 178.05 43.5341 178.358 43.017C178.666 42.5 179.081 42.0907 179.604 41.7891C180.127 41.4875 180.712 41.2597 181.358 41.1058C182.005 40.9519 182.663 40.835 183.334 40.755C184.184 40.6565 184.873 40.5765 185.403 40.5149C185.932 40.4472 186.317 40.3395 186.557 40.1918C186.797 40.044 186.917 39.804 186.917 39.4716V39.407C186.917 38.6006 186.689 37.9759 186.233 37.5327C185.784 37.0895 185.113 36.8679 184.221 36.8679C183.291 36.8679 182.559 37.0741 182.023 37.4865C181.494 37.8928 181.128 38.3452 180.925 38.8438L178.33 38.2528C178.638 37.3911 179.087 36.6955 179.678 36.1662C180.275 35.6307 180.961 35.2429 181.737 35.0028C182.513 34.7566 183.328 34.6335 184.184 34.6335C184.75 34.6335 185.35 34.7012 185.984 34.8366C186.624 34.9659 187.221 35.206 187.775 35.5568C188.336 35.9077 188.794 36.4093 189.151 37.0618C189.508 37.7081 189.687 38.5483 189.687 39.5824V49H186.991V47.0611H186.88C186.701 47.4181 186.434 47.7689 186.077 48.1136C185.72 48.4583 185.261 48.7446 184.701 48.9723C184.141 49.2 183.47 49.3139 182.688 49.3139ZM183.288 47.098C184.051 47.098 184.704 46.9472 185.246 46.6456C185.793 46.344 186.209 45.95 186.492 45.4638C186.781 44.9714 186.926 44.4451 186.926 43.8849V42.0568C186.827 42.1553 186.637 42.2476 186.354 42.3338C186.077 42.4138 185.76 42.4846 185.403 42.5462C185.046 42.6016 184.698 42.6539 184.359 42.7031C184.021 42.7462 183.738 42.7831 183.51 42.8139C182.974 42.8816 182.485 42.9955 182.042 43.1555C181.605 43.3156 181.254 43.5464 180.989 43.848C180.731 44.1435 180.601 44.5374 180.601 45.0298C180.601 45.7131 180.854 46.2301 181.358 46.581C181.863 46.9257 182.506 47.098 183.288 47.098ZM196.124 40.5795V49H193.364V34.8182H196.013V37.1264H196.189C196.515 36.3755 197.026 35.7723 197.722 35.3168C198.423 34.8613 199.307 34.6335 200.371 34.6335C201.338 34.6335 202.184 34.8366 202.911 35.2429C203.637 35.643 204.2 36.2401 204.6 37.0341C205 37.8281 205.2 38.8099 205.2 39.9794V49H202.44V40.3118C202.44 39.2839 202.172 38.4806 201.636 37.902C201.101 37.3172 200.365 37.0249 199.43 37.0249C198.79 37.0249 198.22 37.1634 197.722 37.4403C197.229 37.7173 196.838 38.1236 196.549 38.6591C196.266 39.1884 196.124 39.8286 196.124 40.5795ZM214.876 49.2862C213.547 49.2862 212.387 48.9815 211.396 48.3722C210.405 47.7628 209.635 46.9103 209.087 45.8146C208.54 44.719 208.266 43.4387 208.266 41.9737C208.266 40.5026 208.54 39.2161 209.087 38.1143C209.635 37.0125 210.405 36.157 211.396 35.5476C212.387 34.9382 213.547 34.6335 214.876 34.6335C216.206 34.6335 217.366 34.9382 218.357 35.5476C219.348 36.157 220.118 37.0125 220.665 38.1143C221.213 39.2161 221.487 40.5026 221.487 41.9737C221.487 43.4387 221.213 44.719 220.665 45.8146C220.118 46.9103 219.348 47.7628 218.357 48.3722C217.366 48.9815 216.206 49.2862 214.876 49.2862ZM214.886 46.9688C215.747 46.9688 216.461 46.741 217.028 46.2855C217.594 45.83 218.013 45.2237 218.283 44.4666C218.56 43.7095 218.699 42.8755 218.699 41.9645C218.699 41.0597 218.56 40.2287 218.283 39.4716C218.013 38.7083 217.594 38.0959 217.028 37.6342C216.461 37.1726 215.747 36.9418 214.886 36.9418C214.018 36.9418 213.298 37.1726 212.725 37.6342C212.159 38.0959 211.737 38.7083 211.46 39.4716C211.189 40.2287 211.054 41.0597 211.054 41.9645C211.054 42.8755 211.189 43.7095 211.46 44.4666C211.737 45.2237 212.159 45.83 212.725 46.2855C213.298 46.741 214.018 46.9688 214.886 46.9688ZM227.329 40.5795V49H224.569V34.8182H227.219V37.1264H227.394C227.72 36.3755 228.231 35.7723 228.927 35.3168C229.628 34.8613 230.512 34.6335 231.577 34.6335C232.543 34.6335 233.389 34.8366 234.116 35.2429C234.842 35.643 235.405 36.2401 235.805 37.0341C236.205 37.8281 236.405 38.8099 236.405 39.9794V49H233.645V40.3118C233.645 39.2839 233.377 38.4806 232.841 37.902C232.306 37.3172 231.57 37.0249 230.635 37.0249C229.995 37.0249 229.425 37.1634 228.927 37.4403C228.434 37.7173 228.043 38.1236 227.754 38.6591C227.471 39.1884 227.329 39.8286 227.329 40.5795Z" fill="white"/>
<path d="M0 10C0 4.47715 4.47715 0 10 0H88L53.1574 80H10C4.47715 80 0 75.5228 0 70V10Z" fill="white" fill-opacity="0.5"/>
<path d="M34.5 58C30.1344 58 26.2926 56.4596 22.9748 53.3788C19.6569 50.2979 17.9986 46.1279 18 40.8688C18 37.5609 19.2375 33.9745 21.7125 30.1096C24.1875 26.2446 27.9344 22.0662 32.9531 17.5745C33.1594 17.4004 33.4 17.2611 33.675 17.1567C33.95 17.0522 34.225 17 34.5 17C34.775 17 35.05 17.0522 35.325 17.1567C35.6 17.2611 35.8406 17.4004 36.0469 17.5745C41.0656 22.0662 44.8125 26.2446 47.2875 30.1096C49.7625 33.9745 51 37.5609 51 40.8688C51 46.1265 49.3411 50.2965 46.0232 53.3788C42.7053 56.461 38.8642 58.0014 34.5 58ZM35.0672 51.7325C35.4797 51.6977 35.8324 51.5319 36.1253 51.2353C36.4181 50.9386 36.5639 50.582 36.5625 50.1656C36.5625 49.6781 36.4078 49.2861 36.0984 48.9894C35.7891 48.6927 35.3937 48.5625 34.9125 48.5987C33.5031 48.7032 32.0078 48.3111 30.4266 47.4225C28.8453 46.5339 27.8484 44.9239 27.4359 42.5924C27.3672 42.2093 27.1871 41.896 26.8956 41.6522C26.6041 41.4085 26.2686 41.2866 25.8891 41.2866C25.4078 41.2866 25.0125 41.4698 24.7031 41.8361C24.3938 42.2024 24.2906 42.6286 24.3938 43.1146C24.9781 46.2832 26.3531 48.5465 28.5188 49.9045C30.6844 51.2624 32.8672 51.8718 35.0672 51.7325Z" fill="#297DE0"/>
</svg>
