<svg width="261" height="80" viewBox="0 0 261 80" fill="none" xmlns="http://www.w3.org/2000/svg">
<rect width="261" height="80" rx="10" fill="#B5E0FF"/>
<path d="M95.0774 49V30.0909H97.9304V46.544H106.499V49H95.0774ZM113.659 49.3139C112.76 49.3139 111.948 49.1477 111.221 48.8153C110.495 48.4768 109.919 47.9875 109.495 47.3473C109.076 46.7071 108.867 45.9223 108.867 44.9929C108.867 44.1927 109.021 43.5341 109.328 43.017C109.636 42.5 110.052 42.0907 110.575 41.7891C111.098 41.4875 111.683 41.2597 112.329 41.1058C112.975 40.9519 113.634 40.835 114.305 40.755C115.154 40.6565 115.844 40.5765 116.373 40.5149C116.903 40.4472 117.287 40.3395 117.527 40.1918C117.767 40.044 117.887 39.804 117.887 39.4716V39.407C117.887 38.6006 117.66 37.9759 117.204 37.5327C116.755 37.0895 116.084 36.8679 115.191 36.8679C114.262 36.8679 113.529 37.0741 112.994 37.4865C112.465 37.8928 112.098 38.3452 111.895 38.8438L109.301 38.2528C109.609 37.3911 110.058 36.6955 110.649 36.1662C111.246 35.6307 111.932 35.2429 112.708 35.0028C113.483 34.7566 114.299 34.6335 115.154 34.6335C115.721 34.6335 116.321 34.7012 116.955 34.8366C117.595 34.9659 118.192 35.206 118.746 35.5568C119.306 35.9077 119.765 36.4093 120.122 37.0618C120.479 37.7081 120.657 38.5483 120.657 39.5824V49H117.961V47.0611H117.85C117.672 47.4181 117.404 47.7689 117.047 48.1136C116.69 48.4583 116.232 48.7446 115.672 48.9723C115.111 49.2 114.44 49.3139 113.659 49.3139ZM114.259 47.098C115.022 47.098 115.675 46.9472 116.216 46.6456C116.764 46.344 117.18 45.95 117.463 45.4638C117.752 44.9714 117.897 44.4451 117.897 43.8849V42.0568C117.798 42.1553 117.607 42.2476 117.324 42.3338C117.047 42.4138 116.73 42.4846 116.373 42.5462C116.016 42.6016 115.668 42.6539 115.33 42.7031C114.991 42.7462 114.708 42.7831 114.48 42.8139C113.945 42.8816 113.456 42.9955 113.012 43.1555C112.575 43.3156 112.225 43.5464 111.96 43.848C111.701 44.1435 111.572 44.5374 111.572 45.0298C111.572 45.7131 111.824 46.2301 112.329 46.581C112.834 46.9257 113.477 47.098 114.259 47.098ZM134.961 38.2805L132.459 38.7237C132.355 38.4036 132.189 38.099 131.961 37.8097C131.739 37.5204 131.438 37.2834 131.056 37.0987C130.674 36.9141 130.197 36.8217 129.625 36.8217C128.843 36.8217 128.191 36.9972 127.667 37.348C127.144 37.6927 126.883 38.139 126.883 38.6868C126.883 39.1607 127.058 39.5424 127.409 39.8317C127.76 40.121 128.326 40.358 129.108 40.5426L131.361 41.0597C132.666 41.3613 133.638 41.826 134.278 42.4538C134.918 43.0817 135.238 43.8973 135.238 44.9006C135.238 45.75 134.992 46.5071 134.5 47.1719C134.014 47.8305 133.333 48.3475 132.459 48.723C131.591 49.0985 130.585 49.2862 129.44 49.2862C127.852 49.2862 126.556 48.9477 125.553 48.2706C124.55 47.5874 123.934 46.6179 123.706 45.3622L126.375 44.956C126.541 45.6515 126.883 46.1778 127.4 46.5348C127.917 46.8857 128.591 47.0611 129.422 47.0611C130.327 47.0611 131.05 46.8733 131.591 46.4979C132.133 46.1162 132.404 45.6515 132.404 45.1037C132.404 44.6605 132.238 44.2881 131.905 43.9865C131.579 43.6849 131.077 43.4571 130.4 43.3033L128 42.777C126.676 42.4754 125.698 41.9953 125.064 41.3366C124.436 40.678 124.122 39.844 124.122 38.8345C124.122 37.9974 124.356 37.2649 124.824 36.6371C125.291 36.0092 125.938 35.5199 126.763 35.169C127.587 34.812 128.532 34.6335 129.597 34.6335C131.13 34.6335 132.336 34.9659 133.216 35.6307C134.097 36.2893 134.678 37.1726 134.961 38.2805ZM144.386 49.2862C142.989 49.2862 141.785 48.9877 140.776 48.3906C139.773 47.7874 138.997 46.9411 138.449 45.8516C137.908 44.7559 137.637 43.4725 137.637 42.0014C137.637 40.5488 137.908 39.2685 138.449 38.1605C138.997 37.0526 139.76 36.1877 140.739 35.5661C141.724 34.9444 142.875 34.6335 144.192 34.6335C144.992 34.6335 145.768 34.7659 146.519 35.0305C147.27 35.2952 147.944 35.7107 148.541 36.277C149.138 36.8433 149.609 37.5788 149.953 38.4837C150.298 39.3823 150.471 40.4749 150.471 41.7614V42.7401H139.197V40.6719H147.765C147.765 39.9455 147.618 39.3023 147.322 38.7422C147.027 38.1759 146.611 37.7296 146.076 37.4034C145.546 37.0772 144.925 36.9141 144.211 36.9141C143.435 36.9141 142.758 37.1049 142.179 37.4865C141.607 37.862 141.164 38.3544 140.85 38.9638C140.542 39.567 140.388 40.2225 140.388 40.9304V42.5462C140.388 43.4941 140.554 44.3004 140.887 44.9652C141.225 45.63 141.696 46.1378 142.299 46.4886C142.903 46.8333 143.607 47.0057 144.414 47.0057C144.937 47.0057 145.414 46.9318 145.845 46.7841C146.276 46.6302 146.648 46.4025 146.962 46.1009C147.276 45.7992 147.516 45.4268 147.682 44.9837L150.295 45.4545C150.086 46.224 149.71 46.898 149.169 47.4766C148.633 48.049 147.959 48.4953 147.147 48.8153C146.34 49.1293 145.42 49.2862 144.386 49.2862ZM153.534 49V34.8182H156.202V37.071H156.35C156.608 36.3078 157.064 35.7076 157.716 35.2706C158.375 34.8274 159.119 34.6058 159.95 34.6058C160.123 34.6058 160.326 34.612 160.56 34.6243C160.8 34.6366 160.988 34.652 161.123 34.6705V37.3111C161.012 37.2803 160.815 37.2464 160.532 37.2095C160.249 37.1664 159.966 37.1449 159.683 37.1449C159.03 37.1449 158.449 37.2834 157.938 37.5604C157.433 37.8312 157.033 38.2098 156.737 38.696C156.442 39.1761 156.294 39.724 156.294 40.3395V49H153.534ZM183.411 36.0646C183.233 35.5045 182.993 35.0028 182.691 34.5597C182.396 34.1103 182.042 33.7287 181.629 33.4148C181.217 33.0947 180.746 32.8516 180.217 32.6854C179.694 32.5192 179.118 32.4361 178.49 32.4361C177.425 32.4361 176.465 32.71 175.61 33.2578C174.754 33.8056 174.077 34.6089 173.578 35.6676C173.086 36.7202 172.84 38.0097 172.84 39.5362C172.84 41.0689 173.089 42.3646 173.588 43.4233C174.086 44.482 174.769 45.2853 175.637 45.8331C176.505 46.3809 177.493 46.6548 178.601 46.6548C179.629 46.6548 180.525 46.4455 181.288 46.027C182.057 45.6084 182.651 45.0175 183.07 44.2543C183.494 43.4848 183.707 42.58 183.707 41.5398L184.445 41.6783H179.035V39.3239H186.468V41.4751C186.468 43.0632 186.129 44.442 185.452 45.6115C184.781 46.7749 183.852 47.6735 182.664 48.3075C181.482 48.9415 180.128 49.2585 178.601 49.2585C176.89 49.2585 175.388 48.8646 174.095 48.0767C172.809 47.2888 171.806 46.1716 171.085 44.7251C170.365 43.2725 170.005 41.549 170.005 39.5547C170.005 38.0466 170.214 36.6925 170.633 35.4922C171.052 34.2919 171.639 33.2732 172.396 32.4361C173.16 31.5928 174.055 30.9496 175.083 30.5064C176.117 30.0571 177.247 29.8324 178.472 29.8324C179.494 29.8324 180.445 29.9832 181.325 30.2848C182.211 30.5864 182.999 31.0142 183.688 31.5682C184.384 32.1222 184.959 32.7808 185.415 33.544C185.87 34.3011 186.178 35.1413 186.338 36.0646H183.411ZM192.628 30.0909V49H189.868V30.0909H192.628ZM200.469 49.3139C199.571 49.3139 198.758 49.1477 198.032 48.8153C197.305 48.4768 196.73 47.9875 196.305 47.3473C195.887 46.7071 195.677 45.9223 195.677 44.9929C195.677 44.1927 195.831 43.5341 196.139 43.017C196.447 42.5 196.862 42.0907 197.385 41.7891C197.909 41.4875 198.493 41.2597 199.14 41.1058C199.786 40.9519 200.445 40.835 201.116 40.755C201.965 40.6565 202.654 40.5765 203.184 40.5149C203.713 40.4472 204.098 40.3395 204.338 40.1918C204.578 40.044 204.698 39.804 204.698 39.4716V39.407C204.698 38.6006 204.47 37.9759 204.015 37.5327C203.565 37.0895 202.894 36.8679 202.002 36.8679C201.073 36.8679 200.34 37.0741 199.805 37.4865C199.275 37.8928 198.909 38.3452 198.706 38.8438L196.111 38.2528C196.419 37.3911 196.868 36.6955 197.459 36.1662C198.056 35.6307 198.743 35.2429 199.518 35.0028C200.294 34.7566 201.109 34.6335 201.965 34.6335C202.531 34.6335 203.131 34.7012 203.765 34.8366C204.406 34.9659 205.003 35.206 205.557 35.5568C206.117 35.9077 206.575 36.4093 206.932 37.0618C207.289 37.7081 207.468 38.5483 207.468 39.5824V49H204.772V47.0611H204.661C204.483 47.4181 204.215 47.7689 203.858 48.1136C203.501 48.4583 203.042 48.7446 202.482 48.9723C201.922 49.2 201.251 49.3139 200.469 49.3139ZM201.069 47.098C201.833 47.098 202.485 46.9472 203.027 46.6456C203.575 46.344 203.99 45.95 204.273 45.4638C204.563 44.9714 204.707 44.4451 204.707 43.8849V42.0568C204.609 42.1553 204.418 42.2476 204.135 42.3338C203.858 42.4138 203.541 42.4846 203.184 42.5462C202.827 42.6016 202.479 42.6539 202.14 42.7031C201.802 42.7462 201.519 42.7831 201.291 42.8139C200.756 42.8816 200.266 42.9955 199.823 43.1555C199.386 43.3156 199.035 43.5464 198.77 43.848C198.512 44.1435 198.383 44.5374 198.383 45.0298C198.383 45.7131 198.635 46.2301 199.14 46.581C199.644 46.9257 200.288 47.098 201.069 47.098ZM217.119 49.2862C215.746 49.2862 214.564 48.9754 213.573 48.3537C212.588 47.7259 211.831 46.861 211.302 45.7592C210.772 44.6574 210.508 43.3956 210.508 41.9737C210.508 40.5334 210.779 39.2623 211.32 38.1605C211.862 37.0526 212.625 36.1877 213.61 35.5661C214.595 34.9444 215.755 34.6335 217.091 34.6335C218.168 34.6335 219.128 34.8336 219.972 35.2337C220.815 35.6276 221.495 36.1816 222.012 36.8956C222.535 37.6096 222.846 38.4437 222.945 39.3977H220.258C220.11 38.733 219.772 38.1605 219.242 37.6804C218.719 37.2003 218.017 36.9602 217.137 36.9602C216.368 36.9602 215.694 37.1634 215.115 37.5696C214.543 37.9697 214.096 38.5421 213.776 39.2869C213.456 40.0256 213.296 40.8996 213.296 41.9091C213.296 42.9432 213.453 43.8357 213.767 44.5866C214.081 45.3376 214.524 45.9193 215.097 46.3317C215.675 46.7441 216.355 46.9503 217.137 46.9503C217.66 46.9503 218.134 46.8549 218.559 46.6641C218.99 46.4671 219.35 46.187 219.639 45.8239C219.935 45.4607 220.141 45.0237 220.258 44.5128H222.945C222.846 45.4299 222.548 46.2486 222.049 46.9688C221.55 47.6889 220.883 48.2552 220.045 48.6676C219.214 49.08 218.239 49.2862 217.119 49.2862ZM232.009 49.2862C230.612 49.2862 229.408 48.9877 228.399 48.3906C227.396 47.7874 226.62 46.9411 226.072 45.8516C225.531 44.7559 225.26 43.4725 225.26 42.0014C225.26 40.5488 225.531 39.2685 226.072 38.1605C226.62 37.0526 227.383 36.1877 228.362 35.5661C229.347 34.9444 230.498 34.6335 231.815 34.6335C232.615 34.6335 233.391 34.7659 234.142 35.0305C234.893 35.2952 235.567 35.7107 236.164 36.277C236.761 36.8433 237.232 37.5788 237.577 38.4837C237.921 39.3823 238.094 40.4749 238.094 41.7614V42.7401H226.82V40.6719H235.388C235.388 39.9455 235.241 39.3023 234.945 38.7422C234.65 38.1759 234.234 37.7296 233.699 37.4034C233.169 37.0772 232.548 36.9141 231.834 36.9141C231.058 36.9141 230.381 37.1049 229.802 37.4865C229.23 37.862 228.787 38.3544 228.473 38.9638C228.165 39.567 228.011 40.2225 228.011 40.9304V42.5462C228.011 43.4941 228.177 44.3004 228.51 44.9652C228.848 45.63 229.319 46.1378 229.922 46.4886C230.526 46.8333 231.23 47.0057 232.037 47.0057C232.56 47.0057 233.037 46.9318 233.468 46.7841C233.899 46.6302 234.271 46.4025 234.585 46.1009C234.899 45.7992 235.139 45.4268 235.305 44.9837L237.918 45.4545C237.709 46.224 237.333 46.898 236.792 47.4766C236.256 48.049 235.582 48.4953 234.77 48.8153C233.963 49.1293 233.043 49.2862 232.009 49.2862Z" fill="black"/>
<path d="M0 10C0 4.47715 4.47715 0 10 0H88L53.1574 80H10C4.47715 80 0 75.5228 0 70V10Z" fill="white" fill-opacity="0.8"/>
<path d="M52.6001 47.8845L48.7113 45.6891L50.4418 45.2309C50.6959 45.1728 50.9356 45.065 51.1464 44.914C51.3572 44.763 51.5349 44.5719 51.669 44.3521C51.803 44.1323 51.8906 43.8882 51.9265 43.6344C51.9624 43.3806 51.9459 43.1223 51.878 42.875C51.8102 42.6276 51.6922 42.3961 51.5313 42.1944C51.3704 41.9927 51.1698 41.8249 50.9414 41.7009C50.7131 41.5769 50.4616 41.4993 50.2021 41.4728C49.9425 41.4462 49.6802 41.4713 49.4307 41.5464L43.9475 42.9973L38.6782 40L43.9475 37.0027L49.4307 38.4536H49.9362C50.4519 38.5195 50.9731 38.3814 51.3852 38.07C51.7972 37.7585 52.0664 37.299 52.1334 36.7927C52.2004 36.2864 52.0599 35.7747 51.7426 35.3701C51.4254 34.9655 50.9575 34.7013 50.4418 34.6355L48.7113 34.2727L52.6001 32.0773C52.8222 31.9519 53.017 31.7848 53.1734 31.5856C53.3298 31.3863 53.4447 31.1587 53.5115 30.9158C53.5783 30.673 53.5957 30.4196 53.5628 30.1701C53.5298 29.9206 53.4472 29.6799 53.3195 29.4618C53.1918 29.2437 53.0216 29.0524 52.8187 28.8989C52.6157 28.7453 52.3839 28.6326 52.1366 28.567C51.8892 28.5014 51.6311 28.4843 51.377 28.5166C51.1229 28.5489 50.8778 28.6301 50.6557 28.7555L46.4558 31.1609L47.0391 29.0418C47.1156 28.7969 47.1411 28.5393 47.114 28.2845C47.087 28.0296 47.008 27.7827 46.8817 27.5585C46.7555 27.3343 46.5845 27.1373 46.3791 26.9793C46.1736 26.8213 45.9379 26.7056 45.686 26.6389C45.434 26.5723 45.1709 26.5561 44.9125 26.5913C44.654 26.6266 44.4054 26.7126 44.1815 26.8442C43.9576 26.9758 43.763 27.1503 43.6092 27.3573C43.4554 27.5643 43.3457 27.7996 43.2864 28.0491L41.692 33.7764L36.7339 36.6973V30.7218L40.7587 26.77C41.1209 26.4123 41.3242 25.9284 41.3242 25.4241C41.3242 24.9197 41.1209 24.4359 40.7587 24.0782C40.578 23.8992 40.3629 23.7572 40.126 23.6603C39.889 23.5634 39.6349 23.5135 39.3782 23.5135C39.1215 23.5135 38.8674 23.5634 38.6305 23.6603C38.3935 23.7572 38.1785 23.8992 37.9977 24.0782L36.7339 25.3191V20.9091C36.7339 20.4028 36.529 19.9172 36.1644 19.5592C35.7997 19.2011 35.3052 19 34.7895 19C34.2738 19 33.7792 19.2011 33.4146 19.5592C33.0499 19.9172 32.8451 20.4028 32.8451 20.9091V25.6245L31.2701 24.0782C31.0894 23.8992 30.8743 23.7572 30.6374 23.6603C30.4004 23.5634 30.1463 23.5135 29.8896 23.5135C29.6329 23.5135 29.3788 23.5634 29.1419 23.6603C28.9049 23.7572 28.6899 23.8992 28.5091 24.0782C28.147 24.4359 27.9437 24.9197 27.9437 25.4241C27.9437 25.9284 28.147 26.4123 28.5091 26.77L32.8451 31.0273V36.7545L27.848 33.8527L26.2536 28.1255C26.1944 27.8759 26.0846 27.6406 25.9309 27.4336C25.7771 27.2266 25.5825 27.0521 25.3586 26.9206C25.1346 26.789 24.8861 26.703 24.6276 26.6677C24.3691 26.6324 24.1061 26.6486 23.8541 26.7153C23.6021 26.7819 23.3664 26.8977 23.161 27.0557C22.9555 27.2137 22.7846 27.4107 22.6583 27.6349C22.5321 27.8591 22.4531 28.106 22.426 28.3608C22.399 28.6156 22.4245 28.8732 22.5009 29.1182L23.1232 31.1609L18.9233 28.7936C18.7011 28.6683 18.456 28.5871 18.2019 28.5548C17.9478 28.5224 17.6897 28.5395 17.4424 28.6051C17.195 28.6707 16.9632 28.7835 16.7603 28.9371C16.5573 29.0906 16.3871 29.2819 16.2595 29.5C16.1318 29.7181 16.0491 29.9588 16.0162 30.2083C15.9833 30.4577 16.0007 30.7112 16.0675 30.954C16.2024 31.4445 16.5302 31.8623 16.9789 32.1155L20.8677 34.2727L19.2344 34.7691C18.7187 34.8349 18.2508 35.0992 17.9335 35.5037C17.6163 35.9083 17.4757 36.42 17.5428 36.9264C17.6098 37.4327 17.8789 37.8921 18.291 38.2036C18.703 38.5151 19.2242 38.6531 19.7399 38.5873H20.2455L25.7286 37.1364L30.9007 40L25.6314 42.9973L20.1482 41.5464C19.891 41.4526 19.6164 41.4133 19.3425 41.4312C19.0687 41.449 18.8018 41.5236 18.5594 41.65C18.317 41.7764 18.1047 41.9517 17.9362 42.1644C17.7678 42.3772 17.6472 42.6225 17.5822 42.8843C17.5173 43.1462 17.5095 43.4185 17.5595 43.6835C17.6094 43.9484 17.7159 44.2 17.872 44.4217C18.028 44.6433 18.2301 44.83 18.4649 44.9695C18.6998 45.109 18.962 45.1981 19.2344 45.2309L20.9649 45.6891L17.0761 47.8845C16.6275 48.1377 16.2996 48.5555 16.1647 49.046C16.0298 49.5365 16.0988 50.0595 16.3567 50.5C16.6145 50.9405 17.04 51.2624 17.5396 51.3949C18.0392 51.5273 18.5719 51.4595 19.0205 51.2064L23.1232 48.8391L22.5398 50.9582C22.4628 51.2026 22.4365 51.4596 22.4626 51.7142C22.4887 51.9687 22.5666 52.2155 22.6918 52.4399C22.8169 52.6643 22.9867 52.8617 23.1911 53.0204C23.3955 53.179 23.6302 53.2958 23.8815 53.3636C24.0494 53.3824 24.219 53.3824 24.387 53.3636C24.826 53.3784 25.2571 53.2468 25.6102 52.9903C25.9632 52.7337 26.2174 52.3674 26.3314 51.9509L27.9258 46.2236L32.8451 43.3027V49.2782L28.8202 53.23C28.4581 53.5877 28.2548 54.0716 28.2548 54.5759C28.2548 55.0803 28.4581 55.5641 28.8202 55.9218C29.0003 56.1022 29.215 56.2457 29.452 56.344C29.689 56.4423 29.9435 56.4935 30.2007 56.4945C30.458 56.4935 30.7125 56.4423 30.9494 56.344C31.1864 56.2457 31.4012 56.1022 31.5812 55.9218L32.8451 54.6809V59.0909C32.8451 59.5972 33.0499 60.0828 33.4146 60.4408C33.7792 60.7989 34.2738 61 34.7895 61C35.3052 61 35.7997 60.7989 36.1644 60.4408C36.529 60.0828 36.7339 59.5972 36.7339 59.0909V54.3755L38.3088 55.9218C38.4896 56.1008 38.7046 56.2428 38.9416 56.3397C39.1785 56.4366 39.4326 56.4865 39.6893 56.4865C39.946 56.4865 40.2002 56.4366 40.4371 56.3397C40.674 56.2428 40.8891 56.1008 41.0698 55.9218C41.432 55.5641 41.6353 55.0803 41.6353 54.5759C41.6353 54.0716 41.432 53.5877 41.0698 53.23L36.7339 48.9727V43.2455L41.7309 46.09L43.3253 51.8173C43.4393 52.2338 43.6935 52.6001 44.0465 52.8566C44.3996 53.1132 44.8307 53.2448 45.2697 53.23C45.4377 53.2488 45.6073 53.2488 45.7753 53.23C46.0235 53.1658 46.2564 53.0539 46.4604 52.9009C46.6644 52.7478 46.8355 52.5566 46.9638 52.3383C47.0922 52.12 47.1752 51.8789 47.2081 51.6289C47.2411 51.3789 47.2233 51.125 47.1558 50.8818L46.4558 48.8391L50.6168 51.2064C50.8389 51.3317 51.084 51.4129 51.3381 51.4452C51.5922 51.4776 51.8503 51.4605 52.0977 51.3949C52.345 51.3293 52.5768 51.2165 52.7798 51.0629C52.9827 50.9094 53.1529 50.7181 53.2806 50.5C53.4083 50.2819 53.4909 50.0412 53.5239 49.7917C53.5568 49.5423 53.5394 49.2888 53.4726 49.046C53.4058 48.8031 53.2909 48.5755 53.1345 48.3763C52.9781 48.177 52.7833 48.0099 52.5612 47.8845H52.6001Z" fill="#B5E0FF"/>
</svg>
