<svg width="261" height="80" viewBox="0 0 261 80" fill="none" xmlns="http://www.w3.org/2000/svg">
<rect width="261" height="80" rx="10" fill="#DD99BA"/>
<path d="M105.783 36.2401H102.902C102.791 35.6245 102.585 35.0829 102.283 34.6151C101.982 34.1473 101.612 33.7502 101.175 33.424C100.738 33.0978 100.249 32.8516 99.7074 32.6854C99.1719 32.5192 98.6025 32.4361 97.9993 32.4361C96.9098 32.4361 95.9342 32.71 95.0724 33.2578C94.2169 33.8056 93.5398 34.6089 93.0412 35.6676C92.5488 36.7263 92.3026 38.0189 92.3026 39.5455C92.3026 41.0843 92.5488 42.383 93.0412 43.4418C93.5398 44.5005 94.2199 45.3007 95.0817 45.8423C95.9434 46.384 96.9129 46.6548 97.9901 46.6548C98.5871 46.6548 99.1534 46.5748 99.6889 46.4148C100.231 46.2486 100.72 46.0054 101.157 45.6854C101.594 45.3653 101.963 44.9744 102.265 44.5128C102.573 44.045 102.785 43.5095 102.902 42.9062L105.783 42.9155C105.629 43.8449 105.33 44.7005 104.887 45.4822C104.45 46.2578 103.887 46.9287 103.197 47.495C102.514 48.0552 101.732 48.4891 100.852 48.7969C99.9721 49.1046 99.0118 49.2585 97.9716 49.2585C96.3343 49.2585 94.8755 48.8707 93.5952 48.0952C92.3149 47.3134 91.3054 46.1963 90.5668 44.7436C89.8343 43.291 89.468 41.5582 89.468 39.5455C89.468 37.5265 89.8374 35.7938 90.576 34.3473C91.3146 32.8946 92.3241 31.7805 93.6044 31.005C94.8847 30.2232 96.3404 29.8324 97.9716 29.8324C98.9749 29.8324 99.9105 29.977 100.778 30.2663C101.652 30.5495 102.437 30.968 103.133 31.522C103.828 32.0698 104.404 32.7408 104.859 33.5348C105.315 34.3227 105.623 35.2244 105.783 36.2401ZM111.736 40.5795V49H108.975V30.0909H111.699V37.1264H111.874C112.206 36.3632 112.714 35.7569 113.398 35.3075C114.081 34.8582 114.973 34.6335 116.075 34.6335C117.048 34.6335 117.897 34.8336 118.623 35.2337C119.356 35.6338 119.922 36.2308 120.322 37.0249C120.729 37.8127 120.932 38.7976 120.932 39.9794V49H118.171V40.3118C118.171 39.2715 117.903 38.4652 117.368 37.8928C116.832 37.3142 116.087 37.0249 115.133 37.0249C114.481 37.0249 113.896 37.1634 113.379 37.4403C112.868 37.7173 112.465 38.1236 112.17 38.6591C111.88 39.1884 111.736 39.8286 111.736 40.5795ZM128.743 49.3139C127.844 49.3139 127.032 49.1477 126.305 48.8153C125.579 48.4768 125.003 47.9875 124.579 47.3473C124.16 46.7071 123.951 45.9223 123.951 44.9929C123.951 44.1927 124.105 43.5341 124.412 43.017C124.72 42.5 125.136 42.0907 125.659 41.7891C126.182 41.4875 126.767 41.2597 127.413 41.1058C128.059 40.9519 128.718 40.835 129.389 40.755C130.238 40.6565 130.928 40.5765 131.457 40.5149C131.987 40.4472 132.371 40.3395 132.611 40.1918C132.851 40.044 132.971 39.804 132.971 39.4716V39.407C132.971 38.6006 132.744 37.9759 132.288 37.5327C131.839 37.0895 131.168 36.8679 130.275 36.8679C129.346 36.8679 128.613 37.0741 128.078 37.4865C127.549 37.8928 127.182 38.3452 126.979 38.8438L124.385 38.2528C124.693 37.3911 125.142 36.6955 125.733 36.1662C126.33 35.6307 127.016 35.2429 127.792 35.0028C128.567 34.7566 129.383 34.6335 130.238 34.6335C130.805 34.6335 131.405 34.7012 132.039 34.8366C132.679 34.9659 133.276 35.206 133.83 35.5568C134.39 35.9077 134.849 36.4093 135.206 37.0618C135.563 37.7081 135.741 38.5483 135.741 39.5824V49H133.045V47.0611H132.934C132.756 47.4181 132.488 47.7689 132.131 48.1136C131.774 48.4583 131.316 48.7446 130.756 48.9723C130.195 49.2 129.524 49.3139 128.743 49.3139ZM129.343 47.098C130.106 47.098 130.759 46.9472 131.3 46.6456C131.848 46.344 132.264 45.95 132.547 45.4638C132.836 44.9714 132.981 44.4451 132.981 43.8849V42.0568C132.882 42.1553 132.691 42.2476 132.408 42.3338C132.131 42.4138 131.814 42.4846 131.457 42.5462C131.1 42.6016 130.752 42.6539 130.414 42.7031C130.075 42.7462 129.792 42.7831 129.564 42.8139C129.029 42.8816 128.54 42.9955 128.096 43.1555C127.659 43.3156 127.309 43.5464 127.044 43.848C126.785 44.1435 126.656 44.5374 126.656 45.0298C126.656 45.7131 126.908 46.2301 127.413 46.581C127.918 46.9257 128.561 47.098 129.343 47.098ZM139.418 49V34.8182H142.087V37.071H142.234C142.493 36.3078 142.948 35.7076 143.601 35.2706C144.259 34.8274 145.004 34.6058 145.835 34.6058C146.008 34.6058 146.211 34.612 146.445 34.6243C146.685 34.6366 146.872 34.652 147.008 34.6705V37.3111C146.897 37.2803 146.7 37.2464 146.417 37.2095C146.134 37.1664 145.851 37.1449 145.567 37.1449C144.915 37.1449 144.333 37.2834 143.822 37.5604C143.318 37.8312 142.918 38.2098 142.622 38.696C142.327 39.1761 142.179 39.724 142.179 40.3395V49H139.418ZM149.397 49V34.8182H152.047V37.1264H152.222C152.518 36.3447 153.001 35.7353 153.672 35.2983C154.343 34.8551 155.146 34.6335 156.081 34.6335C157.029 34.6335 157.823 34.8551 158.464 35.2983C159.11 35.7415 159.587 36.3509 159.895 37.1264H160.042C160.381 36.3693 160.92 35.7661 161.658 35.3168C162.397 34.8613 163.277 34.6335 164.299 34.6335C165.585 34.6335 166.635 35.0367 167.447 35.843C168.266 36.6494 168.675 37.8651 168.675 39.4901V49H165.915V39.7486C165.915 38.7884 165.653 38.0928 165.13 37.6619C164.607 37.2311 163.982 37.0156 163.256 37.0156C162.357 37.0156 161.658 37.2926 161.16 37.8466C160.661 38.3944 160.412 39.0992 160.412 39.9609V49H157.66V39.5732C157.66 38.8037 157.42 38.1851 156.94 37.7173C156.46 37.2495 155.835 37.0156 155.066 37.0156C154.543 37.0156 154.059 37.1541 153.616 37.4311C153.179 37.7019 152.825 38.0805 152.555 38.5668C152.29 39.053 152.157 39.6162 152.157 40.2564V49H149.397ZM178.488 49.2862C177.09 49.2862 175.887 48.9877 174.877 48.3906C173.874 47.7874 173.099 46.9411 172.551 45.8516C172.009 44.7559 171.738 43.4725 171.738 42.0014C171.738 40.5488 172.009 39.2685 172.551 38.1605C173.099 37.0526 173.862 36.1877 174.841 35.5661C175.825 34.9444 176.976 34.6335 178.294 34.6335C179.094 34.6335 179.869 34.7659 180.62 35.0305C181.371 35.2952 182.045 35.7107 182.642 36.277C183.239 36.8433 183.71 37.5788 184.055 38.4837C184.4 39.3823 184.572 40.4749 184.572 41.7614V42.7401H173.299V40.6719H181.867C181.867 39.9455 181.719 39.3023 181.424 38.7422C181.128 38.1759 180.713 37.7296 180.177 37.4034C179.648 37.0772 179.026 36.9141 178.312 36.9141C177.537 36.9141 176.859 37.1049 176.281 37.4865C175.708 37.862 175.265 38.3544 174.951 38.9638C174.644 39.567 174.49 40.2225 174.49 40.9304V42.5462C174.49 43.4941 174.656 44.3004 174.988 44.9652C175.327 45.63 175.798 46.1378 176.401 46.4886C177.004 46.8333 177.709 47.0057 178.515 47.0057C179.038 47.0057 179.516 46.9318 179.946 46.7841C180.377 46.6302 180.75 46.4025 181.064 46.1009C181.377 45.7992 181.618 45.4268 181.784 44.9837L184.397 45.4545C184.187 46.224 183.812 46.898 183.27 47.4766C182.735 48.049 182.061 48.4953 181.248 48.8153C180.442 49.1293 179.522 49.2862 178.488 49.2862Z" fill="black"/>
<path d="M0 10C0 4.47715 4.47715 0 10 0H88L53.1574 80H10C4.47715 80 0 75.5229 0 70V10Z" fill="white" fill-opacity="0.5"/>
<path d="M53.9999 40C54.004 40.5277 53.8437 41.0435 53.5411 41.4758C53.2386 41.9081 52.809 42.2354 52.3119 42.4122L42.1131 46.1221L38.406 56.3224C38.2232 56.8148 37.8942 57.2395 37.4632 57.5394C37.0321 57.8393 36.5196 58 35.9945 58C35.4694 58 34.9569 57.8393 34.5259 57.5394C34.0948 57.2395 33.7658 56.8148 33.5831 56.3224L29.8743 46.1108L19.6771 42.4122C19.1849 42.2294 18.7603 41.9003 18.4605 41.4691C18.1607 41.0379 18 40.5252 18 40C18 39.4748 18.1607 38.9621 18.4605 38.5309C18.7603 38.0997 19.1849 37.7706 19.6771 37.5878L29.8855 33.8779L33.5831 23.6776C33.7658 23.1852 34.0948 22.7605 34.5259 22.4606C34.9569 22.1607 35.4694 22 35.9945 22C36.5196 22 37.0321 22.1607 37.4632 22.4606C37.8942 22.7605 38.2232 23.1852 38.406 23.6776L42.1147 33.8892L52.3119 37.5878C52.809 37.7646 53.2386 38.0919 53.5411 38.5242C53.8437 38.9565 54.004 39.4723 53.9999 40Z" fill="#DD99BA"/>
<path d="M45.9639 27.046L36.1275 31.6365C36.0859 31.6562 36.0405 31.6663 35.9945 31.6663C35.9485 31.6663 35.9031 31.6562 35.8615 31.6365L26.0251 27.046C25.6079 26.8513 25.141 26.7897 24.6876 26.8696C24.2343 26.9495 23.8165 27.167 23.491 27.4926C23.1655 27.8183 22.948 28.2362 22.8682 28.6897C22.7883 29.1432 22.8499 29.6103 23.0445 30.0275L27.6336 39.8669C27.6532 39.9086 27.6634 39.954 27.6634 40C27.6634 40.046 27.6532 40.0914 27.6336 40.133L23.0445 49.9724C22.8499 50.3897 22.7883 50.8568 22.8682 51.3103C22.948 51.7638 23.1655 52.1817 23.491 52.5073C23.8165 52.8329 24.2343 53.0504 24.6876 53.1303C25.141 53.2102 25.6079 53.1487 26.0251 52.9539L35.8615 48.3634C35.9031 48.3438 35.9485 48.3336 35.9945 48.3336C36.0405 48.3336 36.0859 48.3438 36.1275 48.3634L45.9639 52.9539C46.3811 53.1487 46.848 53.2102 47.3014 53.1303C47.7547 53.0504 48.1725 52.8329 48.498 52.5073C48.8235 52.1817 49.041 51.7638 49.1209 51.3103C49.2008 50.8568 49.1392 50.3897 48.9445 49.9724L44.3554 40.133C44.3358 40.0914 44.3256 40.046 44.3256 40C44.3256 39.954 44.3358 39.9086 44.3554 39.8669L48.9445 30.0275C49.1392 29.6103 49.2008 29.1432 49.1209 28.6897C49.041 28.2362 48.8235 27.8183 48.498 27.4926C48.1725 27.167 47.7547 26.9495 47.3014 26.8696C46.848 26.7897 46.3811 26.8513 45.9639 27.046ZM47.203 29.2179L42.6127 39.0562C42.4745 39.3536 42.4028 39.6777 42.4028 40.0057C42.4028 40.3337 42.4745 40.6577 42.6127 40.9552L47.203 50.7934C47.2265 50.8519 47.2324 50.9161 47.2198 50.9778C47.2071 51.0396 47.1767 51.0964 47.1321 51.1409C47.0875 51.1855 47.0308 51.216 46.969 51.2287C46.9073 51.2413 46.8432 51.2354 46.7847 51.2119L36.9494 46.6202C36.6521 46.4819 36.3281 46.4102 36.0002 46.4102C35.6723 46.4102 35.3483 46.4819 35.051 46.6202L25.21 51.2062C25.1516 51.2297 25.0874 51.2356 25.0257 51.223C24.9639 51.2104 24.9072 51.1799 24.8626 51.1353C24.8181 51.0907 24.7876 51.034 24.775 50.9722C24.7623 50.9104 24.7682 50.8462 24.7917 50.7877L29.382 40.9495C29.5203 40.6521 29.5919 40.328 29.5919 40C29.5919 39.672 29.5203 39.3479 29.382 39.0505L24.7917 29.2122C24.7682 29.1537 24.7623 29.0896 24.775 29.0278C24.7876 28.966 24.8181 28.9093 24.8626 28.8647C24.9072 28.8201 24.9639 28.7896 25.0257 28.777C25.0874 28.7644 25.1516 28.7702 25.21 28.7938L35.0453 33.3854C35.3426 33.5238 35.6666 33.5954 35.9945 33.5954C36.3224 33.5954 36.6464 33.5238 36.9437 33.3854L46.779 28.7938C46.8375 28.7702 46.9016 28.7644 46.9634 28.777C47.0251 28.7896 47.0818 28.8201 47.1264 28.8647C47.171 28.9093 47.2015 28.966 47.2141 29.0278C47.2267 29.0896 47.2209 29.1537 47.1973 29.2122L47.203 29.2179Z" fill="#DD99BA"/>
</svg>
