<svg width="261" height="80" viewBox="0 0 261 80" fill="none" xmlns="http://www.w3.org/2000/svg">
<rect width="261" height="80" rx="10" fill="#B5E0FF"/>
<path d="M101.503 39.5455C101.503 41.5644 101.134 43.3002 100.395 44.7528C99.6563 46.1993 98.6437 47.3134 97.3572 48.0952C96.0769 48.8707 94.6212 49.2585 92.9901 49.2585C91.3527 49.2585 89.8909 48.8707 88.6044 48.0952C87.3241 47.3134 86.3146 46.1963 85.576 44.7436C84.8374 43.291 84.468 41.5582 84.468 39.5455C84.468 37.5265 84.8374 35.7938 85.576 34.3473C86.3146 32.8946 87.3241 31.7805 88.6044 31.005C89.8909 30.2232 91.3527 29.8324 92.9901 29.8324C94.6212 29.8324 96.0769 30.2232 97.3572 31.005C98.6437 31.7805 99.6563 32.8946 100.395 34.3473C101.134 35.7938 101.503 37.5265 101.503 39.5455ZM98.6776 39.5455C98.6776 38.0066 98.4283 36.7109 97.9297 35.6584C97.4373 34.5997 96.7602 33.7995 95.8984 33.2578C95.0429 32.71 94.0734 32.4361 92.9901 32.4361C91.9006 32.4361 90.928 32.71 90.0724 33.2578C89.2169 33.7995 88.5398 34.5997 88.0412 35.6584C87.5488 36.7109 87.3026 38.0066 87.3026 39.5455C87.3026 41.0843 87.5488 42.383 88.0412 43.4418C88.5398 44.4943 89.2169 45.2945 90.0724 45.8423C90.928 46.384 91.9006 46.6548 92.9901 46.6548C94.0734 46.6548 95.0429 46.384 95.8984 45.8423C96.7602 45.2945 97.4373 44.4943 97.9297 43.4418C98.4283 42.383 98.6776 41.0843 98.6776 39.5455ZM107.599 40.5795V49H104.838V34.8182H107.488V37.1264H107.664C107.99 36.3755 108.501 35.7723 109.196 35.3168C109.898 34.8613 110.781 34.6335 111.846 34.6335C112.812 34.6335 113.659 34.8366 114.385 35.2429C115.111 35.643 115.675 36.2401 116.075 37.0341C116.475 37.8281 116.675 38.8099 116.675 39.9794V49H113.914V40.3118C113.914 39.2839 113.646 38.4806 113.111 37.902C112.575 37.3172 111.84 37.0249 110.904 37.0249C110.264 37.0249 109.695 37.1634 109.196 37.4403C108.704 37.7173 108.313 38.1236 108.024 38.6591C107.74 39.1884 107.599 39.8286 107.599 40.5795ZM125.686 49.277C124.541 49.277 123.52 48.9846 122.621 48.3999C121.728 47.8089 121.027 46.9687 120.516 45.8793C120.011 44.7836 119.759 43.4695 119.759 41.9368C119.759 40.4041 120.014 39.093 120.525 38.0036C121.042 36.9141 121.75 36.08 122.649 35.5014C123.547 34.9228 124.566 34.6335 125.705 34.6335C126.585 34.6335 127.293 34.7812 127.828 35.0767C128.37 35.366 128.789 35.7045 129.084 36.0923C129.386 36.4801 129.619 36.8217 129.786 37.1172H129.952V30.0909H132.713V49H130.017V46.7933H129.786C129.619 47.0949 129.379 47.4396 129.066 47.8274C128.758 48.2152 128.333 48.5537 127.791 48.843C127.25 49.1323 126.548 49.277 125.686 49.277ZM126.296 46.9226C127.09 46.9226 127.761 46.7133 128.308 46.2947C128.862 45.87 129.281 45.2822 129.564 44.5312C129.853 43.7803 129.998 42.9062 129.998 41.9091C129.998 40.9242 129.856 40.0625 129.573 39.3239C129.29 38.5852 128.875 38.0097 128.327 37.5973C127.779 37.1849 127.102 36.9787 126.296 36.9787C125.465 36.9787 124.772 37.1941 124.218 37.625C123.664 38.0559 123.246 38.6437 122.963 39.3885C122.686 40.1333 122.547 40.9735 122.547 41.9091C122.547 42.857 122.689 43.7095 122.972 44.4666C123.255 45.2237 123.673 45.8239 124.227 46.267C124.788 46.7041 125.477 46.9226 126.296 46.9226ZM142.765 49.2862C141.368 49.2862 140.164 48.9877 139.155 48.3906C138.152 47.7874 137.376 46.9411 136.828 45.8516C136.286 44.7559 136.016 43.4725 136.016 42.0014C136.016 40.5488 136.286 39.2685 136.828 38.1605C137.376 37.0526 138.139 36.1877 139.118 35.5661C140.103 34.9444 141.254 34.6335 142.571 34.6335C143.371 34.6335 144.147 34.7659 144.898 35.0305C145.649 35.2952 146.323 35.7107 146.92 36.277C147.517 36.8433 147.988 37.5788 148.332 38.4837C148.677 39.3823 148.849 40.4749 148.849 41.7614V42.7401H137.576V40.6719H146.144C146.144 39.9455 145.996 39.3023 145.701 38.7422C145.406 38.1759 144.99 37.7296 144.455 37.4034C143.925 37.0772 143.304 36.9141 142.589 36.9141C141.814 36.9141 141.137 37.1049 140.558 37.4865C139.986 37.862 139.543 38.3544 139.229 38.9638C138.921 39.567 138.767 40.2225 138.767 40.9304V42.5462C138.767 43.4941 138.933 44.3004 139.266 44.9652C139.604 45.63 140.075 46.1378 140.678 46.4886C141.281 46.8333 141.986 47.0057 142.793 47.0057C143.316 47.0057 143.793 46.9318 144.224 46.7841C144.655 46.6302 145.027 46.4025 145.341 46.1009C145.655 45.7992 145.895 45.4268 146.061 44.9837L148.674 45.4545C148.465 46.224 148.089 46.898 147.548 47.4766C147.012 48.049 146.338 48.4953 145.526 48.8153C144.719 49.1293 143.799 49.2862 142.765 49.2862ZM159.015 49V30.0909H165.94C167.281 30.0909 168.393 30.3125 169.273 30.7557C170.153 31.1927 170.812 31.7867 171.249 32.5376C171.686 33.2824 171.904 34.1226 171.904 35.0582C171.904 35.8461 171.759 36.5109 171.47 37.0526C171.181 37.5881 170.793 38.0189 170.307 38.3452C169.827 38.6652 169.297 38.8991 168.719 39.0469V39.2315C169.347 39.2623 169.959 39.4654 170.556 39.8409C171.159 40.2102 171.658 40.7365 172.052 41.4197C172.446 42.103 172.643 42.9339 172.643 43.9126C172.643 44.879 172.415 45.7469 171.96 46.5163C171.51 47.2796 170.815 47.8859 169.873 48.3352C168.931 48.7784 167.728 49 166.263 49H159.015ZM161.868 46.5533H165.986C167.352 46.5533 168.331 46.2886 168.922 45.7592C169.513 45.2299 169.808 44.5682 169.808 43.7741C169.808 43.1771 169.657 42.6293 169.356 42.1307C169.054 41.6321 168.623 41.2351 168.063 40.9396C167.509 40.6442 166.851 40.4964 166.087 40.4964H161.868V46.5533ZM161.868 38.2713H165.69C166.33 38.2713 166.906 38.1482 167.417 37.902C167.934 37.6558 168.343 37.3111 168.645 36.8679C168.953 36.4186 169.107 35.8892 169.107 35.2798C169.107 34.4981 168.833 33.8426 168.285 33.3132C167.737 32.7839 166.897 32.5192 165.764 32.5192H161.868V38.2713ZM181.779 49.2862C180.449 49.2862 179.289 48.9815 178.298 48.3722C177.307 47.7628 176.538 46.9103 175.99 45.8146C175.442 44.719 175.168 43.4387 175.168 41.9737C175.168 40.5026 175.442 39.2161 175.99 38.1143C176.538 37.0125 177.307 36.157 178.298 35.5476C179.289 34.9382 180.449 34.6335 181.779 34.6335C183.108 34.6335 184.269 34.9382 185.26 35.5476C186.251 36.157 187.02 37.0125 187.568 38.1143C188.116 39.2161 188.39 40.5026 188.39 41.9737C188.39 43.4387 188.116 44.719 187.568 45.8146C187.02 46.9103 186.251 47.7628 185.26 48.3722C184.269 48.9815 183.108 49.2862 181.779 49.2862ZM181.788 46.9688C182.65 46.9688 183.364 46.741 183.93 46.2855C184.496 45.83 184.915 45.2237 185.186 44.4666C185.463 43.7095 185.601 42.8755 185.601 41.9645C185.601 41.0597 185.463 40.2287 185.186 39.4716C184.915 38.7083 184.496 38.0959 183.93 37.6342C183.364 37.1726 182.65 36.9418 181.788 36.9418C180.92 36.9418 180.2 37.1726 179.627 37.6342C179.061 38.0959 178.64 38.7083 178.363 39.4716C178.092 40.2287 177.956 41.0597 177.956 41.9645C177.956 42.8755 178.092 43.7095 178.363 44.4666C178.64 45.2237 179.061 45.83 179.627 46.2855C180.2 46.741 180.92 46.9688 181.788 46.9688ZM191.471 49V34.8182H194.139V37.071H194.287C194.546 36.3078 195.001 35.7076 195.654 35.2706C196.312 34.8274 197.057 34.6058 197.888 34.6058C198.06 34.6058 198.263 34.612 198.497 34.6243C198.737 34.6366 198.925 34.652 199.061 34.6705V37.3111C198.95 37.2803 198.753 37.2464 198.47 37.2095C198.186 37.1664 197.903 37.1449 197.62 37.1449C196.968 37.1449 196.386 37.2834 195.875 37.5604C195.37 37.8312 194.97 38.2098 194.675 38.696C194.379 39.1761 194.232 39.724 194.232 40.3395V49H191.471ZM207.054 49.2862C205.657 49.2862 204.453 48.9877 203.444 48.3906C202.441 47.7874 201.665 46.9411 201.117 45.8516C200.576 44.7559 200.305 43.4725 200.305 42.0014C200.305 40.5488 200.576 39.2685 201.117 38.1605C201.665 37.0526 202.428 36.1877 203.407 35.5661C204.392 34.9444 205.543 34.6335 206.86 34.6335C207.66 34.6335 208.436 34.7659 209.187 35.0305C209.938 35.2952 210.612 35.7107 211.209 36.277C211.806 36.8433 212.277 37.5788 212.621 38.4837C212.966 39.3823 213.138 40.4749 213.138 41.7614V42.7401H201.865V40.6719H210.433C210.433 39.9455 210.286 39.3023 209.99 38.7422C209.695 38.1759 209.279 37.7296 208.744 37.4034C208.214 37.0772 207.593 36.9141 206.879 36.9141C206.103 36.9141 205.426 37.1049 204.847 37.4865C204.275 37.862 203.832 38.3544 203.518 38.9638C203.21 39.567 203.056 40.2225 203.056 40.9304V42.5462C203.056 43.4941 203.222 44.3004 203.555 44.9652C203.893 45.63 204.364 46.1378 204.967 46.4886C205.571 46.8333 206.275 47.0057 207.082 47.0057C207.605 47.0057 208.082 46.9318 208.513 46.7841C208.944 46.6302 209.316 46.4025 209.63 46.1009C209.944 45.7992 210.184 45.4268 210.35 44.9837L212.963 45.4545C212.754 46.224 212.378 46.898 211.837 47.4766C211.301 48.049 210.627 48.4953 209.815 48.8153C209.008 49.1293 208.088 49.2862 207.054 49.2862ZM205.614 32.9254L207.774 28.669H210.683L207.82 32.9254H205.614ZM220.329 49.3139C219.43 49.3139 218.617 49.1477 217.891 48.8153C217.165 48.4768 216.589 47.9875 216.165 47.3473C215.746 46.7071 215.537 45.9223 215.537 44.9929C215.537 44.1927 215.691 43.5341 215.998 43.017C216.306 42.5 216.722 42.0907 217.245 41.7891C217.768 41.4875 218.353 41.2597 218.999 41.1058C219.645 40.9519 220.304 40.835 220.975 40.755C221.824 40.6565 222.514 40.5765 223.043 40.5149C223.573 40.4472 223.957 40.3395 224.197 40.1918C224.437 40.044 224.557 39.804 224.557 39.4716V39.407C224.557 38.6006 224.33 37.9759 223.874 37.5327C223.425 37.0895 222.754 36.8679 221.861 36.8679C220.932 36.8679 220.199 37.0741 219.664 37.4865C219.135 37.8928 218.768 38.3452 218.565 38.8438L215.971 38.2528C216.278 37.3911 216.728 36.6955 217.319 36.1662C217.916 35.6307 218.602 35.2429 219.378 35.0028C220.153 34.7566 220.969 34.6335 221.824 34.6335C222.391 34.6335 222.991 34.7012 223.625 34.8366C224.265 34.9659 224.862 35.206 225.416 35.5568C225.976 35.9077 226.435 36.4093 226.792 37.0618C227.149 37.7081 227.327 38.5483 227.327 39.5824V49H224.631V47.0611H224.52C224.342 47.4181 224.074 47.7689 223.717 48.1136C223.36 48.4583 222.902 48.7446 222.341 48.9723C221.781 49.2 221.11 49.3139 220.329 49.3139ZM220.929 47.098C221.692 47.098 222.345 46.9472 222.886 46.6456C223.434 46.344 223.849 45.95 224.133 45.4638C224.422 44.9714 224.567 44.4451 224.567 43.8849V42.0568C224.468 42.1553 224.277 42.2476 223.994 42.3338C223.717 42.4138 223.4 42.4846 223.043 42.5462C222.686 42.6016 222.338 42.6539 222 42.7031C221.661 42.7462 221.378 42.7831 221.15 42.8139C220.615 42.8816 220.126 42.9955 219.682 43.1555C219.245 43.3156 218.894 43.5464 218.63 43.848C218.371 44.1435 218.242 44.5374 218.242 45.0298C218.242 45.7131 218.494 46.2301 218.999 46.581C219.504 46.9257 220.147 47.098 220.929 47.098ZM233.765 30.0909V49H231.004V30.0909H233.765ZM243.591 49.2862C242.194 49.2862 240.99 48.9877 239.981 48.3906C238.978 47.7874 238.202 46.9411 237.654 45.8516C237.113 44.7559 236.842 43.4725 236.842 42.0014C236.842 40.5488 237.113 39.2685 237.654 38.1605C238.202 37.0526 238.965 36.1877 239.944 35.5661C240.929 34.9444 242.08 34.6335 243.397 34.6335C244.197 34.6335 244.973 34.7659 245.724 35.0305C246.475 35.2952 247.149 35.7107 247.746 36.277C248.343 36.8433 248.814 37.5788 249.159 38.4837C249.503 39.3823 249.676 40.4749 249.676 41.7614V42.7401H238.402V40.6719H246.97C246.97 39.9455 246.823 39.3023 246.527 38.7422C246.232 38.1759 245.816 37.7296 245.281 37.4034C244.751 37.0772 244.13 36.9141 243.416 36.9141C242.64 36.9141 241.963 37.1049 241.384 37.4865C240.812 37.862 240.369 38.3544 240.055 38.9638C239.747 39.567 239.593 40.2225 239.593 40.9304V42.5462C239.593 43.4941 239.759 44.3004 240.092 44.9652C240.43 45.63 240.901 46.1378 241.504 46.4886C242.108 46.8333 242.812 47.0057 243.619 47.0057C244.142 47.0057 244.619 46.9318 245.05 46.7841C245.481 46.6302 245.853 46.4025 246.167 46.1009C246.481 45.7992 246.721 45.4268 246.887 44.9837L249.5 45.4545C249.291 46.224 248.915 46.898 248.374 47.4766C247.838 48.049 247.164 48.4953 246.352 48.8153C245.545 49.1293 244.625 49.2862 243.591 49.2862Z" fill="black"/>
<path d="M0 10C0 4.47715 4.47715 0 10 0H88L53.1574 80H10C4.47715 80 0 75.5228 0 70V10Z" fill="white" fill-opacity="0.8"/>
<path d="M52.6001 47.8845L48.7113 45.6891L50.4418 45.2309C50.6959 45.1728 50.9356 45.065 51.1464 44.914C51.3572 44.763 51.5349 44.5719 51.669 44.3521C51.803 44.1323 51.8906 43.8882 51.9265 43.6344C51.9624 43.3806 51.9459 43.1223 51.878 42.875C51.8102 42.6276 51.6922 42.3961 51.5313 42.1944C51.3704 41.9927 51.1698 41.8249 50.9414 41.7009C50.7131 41.5769 50.4616 41.4993 50.2021 41.4728C49.9425 41.4462 49.6802 41.4713 49.4307 41.5464L43.9475 42.9973L38.6782 40L43.9475 37.0027L49.4307 38.4536H49.9362C50.4519 38.5195 50.9731 38.3814 51.3852 38.07C51.7972 37.7585 52.0664 37.299 52.1334 36.7927C52.2004 36.2864 52.0599 35.7747 51.7426 35.3701C51.4254 34.9655 50.9575 34.7013 50.4418 34.6355L48.7113 34.2727L52.6001 32.0773C52.8222 31.9519 53.017 31.7848 53.1734 31.5856C53.3298 31.3863 53.4447 31.1587 53.5115 30.9158C53.5783 30.673 53.5957 30.4196 53.5628 30.1701C53.5298 29.9206 53.4472 29.6799 53.3195 29.4618C53.1918 29.2437 53.0216 29.0524 52.8187 28.8989C52.6157 28.7453 52.3839 28.6326 52.1366 28.567C51.8892 28.5014 51.6311 28.4843 51.377 28.5166C51.1229 28.5489 50.8778 28.6301 50.6557 28.7555L46.4558 31.1609L47.0391 29.0418C47.1156 28.7969 47.1411 28.5393 47.114 28.2845C47.087 28.0296 47.008 27.7827 46.8817 27.5585C46.7555 27.3343 46.5845 27.1373 46.3791 26.9793C46.1736 26.8213 45.9379 26.7056 45.686 26.6389C45.434 26.5723 45.1709 26.5561 44.9125 26.5913C44.654 26.6266 44.4054 26.7126 44.1815 26.8442C43.9576 26.9758 43.763 27.1503 43.6092 27.3573C43.4554 27.5643 43.3457 27.7996 43.2864 28.0491L41.692 33.7764L36.7339 36.6973V30.7218L40.7587 26.77C41.1209 26.4123 41.3242 25.9284 41.3242 25.4241C41.3242 24.9197 41.1209 24.4359 40.7587 24.0782C40.578 23.8992 40.3629 23.7572 40.126 23.6603C39.889 23.5634 39.6349 23.5135 39.3782 23.5135C39.1215 23.5135 38.8674 23.5634 38.6305 23.6603C38.3935 23.7572 38.1785 23.8992 37.9977 24.0782L36.7339 25.3191V20.9091C36.7339 20.4028 36.529 19.9172 36.1644 19.5592C35.7997 19.2011 35.3052 19 34.7895 19C34.2738 19 33.7792 19.2011 33.4146 19.5592C33.0499 19.9172 32.8451 20.4028 32.8451 20.9091V25.6245L31.2701 24.0782C31.0894 23.8992 30.8743 23.7572 30.6374 23.6603C30.4004 23.5634 30.1463 23.5135 29.8896 23.5135C29.6329 23.5135 29.3788 23.5634 29.1419 23.6603C28.9049 23.7572 28.6899 23.8992 28.5091 24.0782C28.147 24.4359 27.9437 24.9197 27.9437 25.4241C27.9437 25.9284 28.147 26.4123 28.5091 26.77L32.8451 31.0273V36.7545L27.848 33.8527L26.2536 28.1255C26.1944 27.8759 26.0846 27.6406 25.9309 27.4336C25.7771 27.2266 25.5825 27.0521 25.3586 26.9206C25.1346 26.789 24.8861 26.703 24.6276 26.6677C24.3691 26.6324 24.1061 26.6486 23.8541 26.7153C23.6021 26.7819 23.3664 26.8977 23.161 27.0557C22.9555 27.2137 22.7846 27.4107 22.6583 27.6349C22.5321 27.8591 22.4531 28.106 22.426 28.3608C22.399 28.6156 22.4245 28.8732 22.5009 29.1182L23.1232 31.1609L18.9233 28.7936C18.7011 28.6683 18.456 28.5871 18.2019 28.5548C17.9478 28.5224 17.6897 28.5395 17.4424 28.6051C17.195 28.6707 16.9632 28.7835 16.7603 28.9371C16.5573 29.0906 16.3871 29.2819 16.2595 29.5C16.1318 29.7181 16.0491 29.9588 16.0162 30.2083C15.9833 30.4577 16.0007 30.7112 16.0675 30.954C16.2024 31.4445 16.5302 31.8623 16.9789 32.1155L20.8677 34.2727L19.2344 34.7691C18.7187 34.8349 18.2508 35.0992 17.9335 35.5037C17.6163 35.9083 17.4757 36.42 17.5428 36.9264C17.6098 37.4327 17.8789 37.8921 18.291 38.2036C18.703 38.5151 19.2242 38.6531 19.7399 38.5873H20.2455L25.7286 37.1364L30.9007 40L25.6314 42.9973L20.1482 41.5464C19.891 41.4526 19.6164 41.4133 19.3425 41.4312C19.0687 41.449 18.8018 41.5236 18.5594 41.65C18.317 41.7764 18.1047 41.9517 17.9362 42.1644C17.7678 42.3772 17.6472 42.6225 17.5822 42.8843C17.5173 43.1462 17.5095 43.4185 17.5595 43.6835C17.6094 43.9484 17.7159 44.2 17.872 44.4217C18.028 44.6433 18.2301 44.83 18.4649 44.9695C18.6998 45.109 18.962 45.1981 19.2344 45.2309L20.9649 45.6891L17.0761 47.8845C16.6275 48.1377 16.2996 48.5555 16.1647 49.046C16.0298 49.5365 16.0988 50.0595 16.3567 50.5C16.6145 50.9405 17.04 51.2624 17.5396 51.3949C18.0392 51.5273 18.5719 51.4595 19.0205 51.2064L23.1232 48.8391L22.5398 50.9582C22.4628 51.2026 22.4365 51.4596 22.4626 51.7142C22.4887 51.9687 22.5666 52.2155 22.6918 52.4399C22.8169 52.6643 22.9867 52.8617 23.1911 53.0204C23.3955 53.179 23.6302 53.2958 23.8815 53.3636C24.0494 53.3824 24.219 53.3824 24.387 53.3636C24.826 53.3784 25.2571 53.2468 25.6102 52.9903C25.9632 52.7337 26.2174 52.3674 26.3314 51.9509L27.9258 46.2236L32.8451 43.3027V49.2782L28.8202 53.23C28.4581 53.5877 28.2548 54.0716 28.2548 54.5759C28.2548 55.0803 28.4581 55.5641 28.8202 55.9218C29.0003 56.1022 29.215 56.2457 29.452 56.344C29.689 56.4423 29.9435 56.4935 30.2007 56.4945C30.458 56.4935 30.7125 56.4423 30.9494 56.344C31.1864 56.2457 31.4012 56.1022 31.5812 55.9218L32.8451 54.6809V59.0909C32.8451 59.5972 33.0499 60.0828 33.4146 60.4408C33.7792 60.7989 34.2738 61 34.7895 61C35.3052 61 35.7997 60.7989 36.1644 60.4408C36.529 60.0828 36.7339 59.5972 36.7339 59.0909V54.3755L38.3088 55.9218C38.4896 56.1008 38.7046 56.2428 38.9416 56.3397C39.1785 56.4366 39.4326 56.4865 39.6893 56.4865C39.946 56.4865 40.2002 56.4366 40.4371 56.3397C40.674 56.2428 40.8891 56.1008 41.0698 55.9218C41.432 55.5641 41.6353 55.0803 41.6353 54.5759C41.6353 54.0716 41.432 53.5877 41.0698 53.23L36.7339 48.9727V43.2455L41.7309 46.09L43.3253 51.8173C43.4393 52.2338 43.6935 52.6001 44.0465 52.8566C44.3996 53.1132 44.8307 53.2448 45.2697 53.23C45.4377 53.2488 45.6073 53.2488 45.7753 53.23C46.0235 53.1658 46.2564 53.0539 46.4604 52.9009C46.6644 52.7478 46.8355 52.5566 46.9638 52.3383C47.0922 52.12 47.1752 51.8789 47.2081 51.6289C47.2411 51.3789 47.2233 51.125 47.1558 50.8818L46.4558 48.8391L50.6168 51.2064C50.8389 51.3317 51.084 51.4129 51.3381 51.4452C51.5922 51.4776 51.8503 51.4605 52.0977 51.3949C52.345 51.3293 52.5768 51.2165 52.7798 51.0629C52.9827 50.9094 53.1529 50.7181 53.2806 50.5C53.4083 50.2819 53.4909 50.0412 53.5239 49.7917C53.5568 49.5423 53.5394 49.2888 53.4726 49.046C53.4058 48.8031 53.2909 48.5755 53.1345 48.3763C52.9781 48.177 52.7833 48.0099 52.5612 47.8845H52.6001Z" fill="#B5E0FF"/>
</svg>
