<svg width="261" height="80" viewBox="0 0 261 80" fill="none" xmlns="http://www.w3.org/2000/svg">
<rect width="261" height="80" rx="10" fill="#A2A2A2"/>
<path d="M90.0774 49V30.0909H96.8175C98.2824 30.0909 99.4981 30.3433 100.464 30.848C101.437 31.3527 102.163 32.0514 102.643 32.9439C103.124 33.8303 103.364 34.8551 103.364 36.0185C103.364 37.1757 103.121 38.1944 102.634 39.0746C102.154 39.9486 101.428 40.6288 100.455 41.1151C99.4889 41.6013 98.2732 41.8445 96.8082 41.8445H91.7024V39.3885H96.5497C97.473 39.3885 98.224 39.2562 98.8026 38.9915C99.3873 38.7268 99.8151 38.3421 100.086 37.8374C100.357 37.3326 100.492 36.7263 100.492 36.0185C100.492 35.3044 100.354 34.6858 100.077 34.1626C99.8059 33.6394 99.3781 33.2393 98.7933 32.9624C98.2147 32.6792 97.4545 32.5376 96.5128 32.5376H92.9304V49H90.0774ZM99.4119 40.4688L104.084 49H100.834L96.2543 40.4688H99.4119ZM115.597 43.1186V34.8182H118.367V49H115.653V46.544H115.505C115.179 47.3011 114.656 47.9321 113.935 48.4368C113.221 48.9354 112.332 49.1847 111.267 49.1847C110.356 49.1847 109.55 48.9846 108.848 48.5845C108.152 48.1783 107.605 47.5781 107.205 46.7841C106.811 45.9901 106.614 45.0083 106.614 43.8388V34.8182H109.374V43.5064C109.374 44.4728 109.642 45.2422 110.178 45.8146C110.713 46.3871 111.409 46.6733 112.264 46.6733C112.781 46.6733 113.295 46.544 113.806 46.2855C114.323 46.027 114.751 45.6361 115.089 45.1129C115.434 44.5897 115.603 43.925 115.597 43.1186ZM128.023 54.6136C126.896 54.6136 125.927 54.4659 125.114 54.1705C124.308 53.875 123.649 53.4841 123.138 52.9979C122.627 52.5116 122.246 51.9792 121.993 51.4006L124.366 50.4219C124.532 50.6927 124.754 50.9789 125.031 51.2805C125.314 51.5883 125.696 51.8499 126.176 52.0653C126.662 52.2808 127.287 52.3885 128.05 52.3885C129.097 52.3885 129.961 52.133 130.645 51.6222C131.328 51.1174 131.67 50.3111 131.67 49.2031V46.4148H131.494C131.328 46.7164 131.088 47.0518 130.774 47.4212C130.466 47.7905 130.041 48.1106 129.5 48.3814C128.958 48.6522 128.253 48.7876 127.385 48.7876C126.265 48.7876 125.256 48.526 124.357 48.0028C123.465 47.4735 122.757 46.6948 122.233 45.6669C121.716 44.6328 121.458 43.3617 121.458 41.8537C121.458 40.3456 121.713 39.053 122.224 37.9759C122.741 36.8987 123.449 36.0739 124.348 35.5014C125.247 34.9228 126.265 34.6335 127.404 34.6335C128.284 34.6335 128.995 34.7812 129.537 35.0767C130.078 35.366 130.5 35.7045 130.802 36.0923C131.109 36.4801 131.346 36.8217 131.513 37.1172H131.716V34.8182H134.421V49.3139C134.421 50.5327 134.138 51.5329 133.572 52.3146C133.005 53.0964 132.239 53.675 131.273 54.0504C130.312 54.4259 129.229 54.6136 128.023 54.6136ZM127.995 46.4979C128.789 46.4979 129.46 46.3132 130.008 45.9439C130.562 45.5684 130.98 45.0329 131.263 44.3374C131.553 43.6357 131.697 42.7955 131.697 41.8168C131.697 40.8627 131.556 40.0225 131.273 39.2962C130.989 38.5698 130.574 38.0036 130.026 37.5973C129.478 37.1849 128.801 36.9787 127.995 36.9787C127.164 36.9787 126.471 37.1941 125.917 37.625C125.363 38.0497 124.945 38.6283 124.662 39.3608C124.385 40.0933 124.246 40.9119 124.246 41.8168C124.246 42.7462 124.388 43.5618 124.671 44.2635C124.954 44.9652 125.373 45.513 125.927 45.907C126.487 46.3009 127.176 46.4979 127.995 46.4979ZM138.123 49V34.8182H140.884V49H138.123ZM139.518 32.63C139.037 32.63 138.625 32.4699 138.28 32.1499C137.942 31.8236 137.773 31.4358 137.773 30.9865C137.773 30.531 137.942 30.1432 138.28 29.8232C138.625 29.4969 139.037 29.3338 139.518 29.3338C139.998 29.3338 140.407 29.4969 140.746 29.8232C141.09 30.1432 141.263 30.531 141.263 30.9865C141.263 31.4358 141.09 31.8236 140.746 32.1499C140.407 32.4699 139.998 32.63 139.518 32.63ZM155.225 38.2805L152.723 38.7237C152.618 38.4036 152.452 38.099 152.224 37.8097C152.003 37.5204 151.701 37.2834 151.32 37.0987C150.938 36.9141 150.461 36.8217 149.888 36.8217C149.107 36.8217 148.454 36.9972 147.931 37.348C147.408 37.6927 147.146 38.139 147.146 38.6868C147.146 39.1607 147.322 39.5424 147.673 39.8317C148.023 40.121 148.59 40.358 149.371 40.5426L151.624 41.0597C152.929 41.3613 153.902 41.826 154.542 42.4538C155.182 43.0817 155.502 43.8973 155.502 44.9006C155.502 45.75 155.256 46.5071 154.763 47.1719C154.277 47.8305 153.597 48.3475 152.723 48.723C151.855 49.0985 150.849 49.2862 149.704 49.2862C148.116 49.2862 146.82 48.9477 145.817 48.2706C144.813 47.5874 144.198 46.6179 143.97 45.3622L146.638 44.956C146.805 45.6515 147.146 46.1778 147.663 46.5348C148.18 46.8857 148.854 47.0611 149.685 47.0611C150.59 47.0611 151.313 46.8733 151.855 46.4979C152.397 46.1162 152.668 45.6515 152.668 45.1037C152.668 44.6605 152.501 44.2881 152.169 43.9865C151.843 43.6849 151.341 43.4571 150.664 43.3033L148.263 42.777C146.94 42.4754 145.961 41.9953 145.327 41.3366C144.7 40.678 144.386 39.844 144.386 38.8345C144.386 37.9974 144.62 37.2649 145.087 36.6371C145.555 36.0092 146.201 35.5199 147.026 35.169C147.851 34.812 148.796 34.6335 149.861 34.6335C151.393 34.6335 152.6 34.9659 153.48 35.6307C154.36 36.2893 154.942 37.1726 155.225 38.2805ZM169.165 38.2805L166.662 38.7237C166.558 38.4036 166.392 38.099 166.164 37.8097C165.942 37.5204 165.641 37.2834 165.259 37.0987C164.877 36.9141 164.4 36.8217 163.828 36.8217C163.046 36.8217 162.394 36.9972 161.871 37.348C161.347 37.6927 161.086 38.139 161.086 38.6868C161.086 39.1607 161.261 39.5424 161.612 39.8317C161.963 40.121 162.529 40.358 163.311 40.5426L165.564 41.0597C166.869 41.3613 167.841 41.826 168.481 42.4538C169.122 43.0817 169.442 43.8973 169.442 44.9006C169.442 45.75 169.195 46.5071 168.703 47.1719C168.217 47.8305 167.537 48.3475 166.662 48.723C165.795 49.0985 164.788 49.2862 163.643 49.2862C162.055 49.2862 160.76 48.9477 159.756 48.2706C158.753 47.5874 158.137 46.6179 157.91 45.3622L160.578 44.956C160.744 45.6515 161.086 46.1778 161.603 46.5348C162.12 46.8857 162.794 47.0611 163.625 47.0611C164.53 47.0611 165.253 46.8733 165.795 46.4979C166.336 46.1162 166.607 45.6515 166.607 45.1037C166.607 44.6605 166.441 44.2881 166.108 43.9865C165.782 43.6849 165.281 43.4571 164.604 43.3033L162.203 42.777C160.88 42.4754 159.901 41.9953 159.267 41.3366C158.639 40.678 158.325 39.844 158.325 38.8345C158.325 37.9974 158.559 37.2649 159.027 36.6371C159.495 36.0092 160.141 35.5199 160.966 35.169C161.791 34.812 162.735 34.6335 163.8 34.6335C165.333 34.6335 166.539 34.9659 167.42 35.6307C168.3 36.2893 168.881 37.1726 169.165 38.2805ZM178.589 49.2862C177.192 49.2862 175.989 48.9877 174.979 48.3906C173.976 47.7874 173.2 46.9411 172.652 45.8516C172.111 44.7559 171.84 43.4725 171.84 42.0014C171.84 40.5488 172.111 39.2685 172.652 38.1605C173.2 37.0526 173.963 36.1877 174.942 35.5661C175.927 34.9444 177.078 34.6335 178.395 34.6335C179.195 34.6335 179.971 34.7659 180.722 35.0305C181.473 35.2952 182.147 35.7107 182.744 36.277C183.341 36.8433 183.812 37.5788 184.157 38.4837C184.501 39.3823 184.674 40.4749 184.674 41.7614V42.7401H173.4V40.6719H181.968C181.968 39.9455 181.821 39.3023 181.525 38.7422C181.23 38.1759 180.814 37.7296 180.279 37.4034C179.749 37.0772 179.128 36.9141 178.414 36.9141C177.638 36.9141 176.961 37.1049 176.382 37.4865C175.81 37.862 175.367 38.3544 175.053 38.9638C174.745 39.567 174.591 40.2225 174.591 40.9304V42.5462C174.591 43.4941 174.757 44.3004 175.09 44.9652C175.428 45.63 175.899 46.1378 176.502 46.4886C177.106 46.8333 177.81 47.0057 178.617 47.0057C179.14 47.0057 179.617 46.9318 180.048 46.7841C180.479 46.6302 180.851 46.4025 181.165 46.1009C181.479 45.7992 181.719 45.4268 181.885 44.9837L184.498 45.4545C184.289 46.224 183.913 46.898 183.372 47.4766C182.836 48.049 182.162 48.4953 181.35 48.8153C180.543 49.1293 179.623 49.2862 178.589 49.2862ZM187.737 49V34.8182H190.387V37.1264H190.562C190.857 36.3447 191.341 35.7353 192.012 35.2983C192.682 34.8551 193.486 34.6335 194.421 34.6335C195.369 34.6335 196.163 34.8551 196.803 35.2983C197.45 35.7415 197.927 36.3509 198.235 37.1264H198.382C198.721 36.3693 199.259 35.7661 199.998 35.3168C200.737 34.8613 201.617 34.6335 202.639 34.6335C203.925 34.6335 204.975 35.0367 205.787 35.843C206.606 36.6494 207.015 37.8651 207.015 39.4901V49H204.254V39.7486C204.254 38.7884 203.993 38.0928 203.47 37.6619C202.946 37.2311 202.322 37.0156 201.595 37.0156C200.697 37.0156 199.998 37.2926 199.499 37.8466C199.001 38.3944 198.752 39.0992 198.752 39.9609V49H196V39.5732C196 38.8037 195.76 38.1851 195.28 37.7173C194.8 37.2495 194.175 37.0156 193.406 37.0156C192.883 37.0156 192.399 37.1541 191.956 37.4311C191.519 37.7019 191.165 38.0805 190.894 38.5668C190.63 39.053 190.497 39.6162 190.497 40.2564V49H187.737ZM216.827 49.2862C215.43 49.2862 214.227 48.9877 213.217 48.3906C212.214 47.7874 211.438 46.9411 210.891 45.8516C210.349 44.7559 210.078 43.4725 210.078 42.0014C210.078 40.5488 210.349 39.2685 210.891 38.1605C211.438 37.0526 212.202 36.1877 213.18 35.5661C214.165 34.9444 215.316 34.6335 216.634 34.6335C217.434 34.6335 218.209 34.7659 218.96 35.0305C219.711 35.2952 220.385 35.7107 220.982 36.277C221.579 36.8433 222.05 37.5788 222.395 38.4837C222.74 39.3823 222.912 40.4749 222.912 41.7614V42.7401H211.638V40.6719H220.207C220.207 39.9455 220.059 39.3023 219.763 38.7422C219.468 38.1759 219.053 37.7296 218.517 37.4034C217.988 37.0772 217.366 36.9141 216.652 36.9141C215.876 36.9141 215.199 37.1049 214.621 37.4865C214.048 37.862 213.605 38.3544 213.291 38.9638C212.983 39.567 212.83 40.2225 212.83 40.9304V42.5462C212.83 43.4941 212.996 44.3004 213.328 44.9652C213.667 45.63 214.138 46.1378 214.741 46.4886C215.344 46.8333 216.049 47.0057 216.855 47.0057C217.378 47.0057 217.855 46.9318 218.286 46.7841C218.717 46.6302 219.089 46.4025 219.403 46.1009C219.717 45.7992 219.957 45.4268 220.124 44.9837L222.737 45.4545C222.527 46.224 222.152 46.898 221.61 47.4766C221.075 48.049 220.401 48.4953 219.588 48.8153C218.782 49.1293 217.862 49.2862 216.827 49.2862ZM228.736 40.5795V49H225.975V34.8182H228.625V37.1264H228.8C229.126 36.3755 229.637 35.7723 230.333 35.3168C231.035 34.8613 231.918 34.6335 232.983 34.6335C233.949 34.6335 234.796 34.8366 235.522 35.2429C236.248 35.643 236.811 36.2401 237.211 37.0341C237.612 37.8281 237.812 38.8099 237.812 39.9794V49H235.051V40.3118C235.051 39.2839 234.783 38.4806 234.248 37.902C233.712 37.3172 232.977 37.0249 232.041 37.0249C231.401 37.0249 230.831 37.1634 230.333 37.4403C229.84 37.7173 229.45 38.1236 229.16 38.6591C228.877 39.1884 228.736 39.8286 228.736 40.5795ZM248.134 34.8182V37.0341H240.388V34.8182H248.134ZM242.465 31.4205H245.226V44.8359C245.226 45.3714 245.306 45.7746 245.466 46.0455C245.626 46.3101 245.832 46.4917 246.084 46.5902C246.343 46.6825 246.623 46.7287 246.925 46.7287C247.146 46.7287 247.34 46.7133 247.506 46.6825C247.672 46.6518 247.802 46.6271 247.894 46.6087L248.393 48.8892C248.233 48.9508 248.005 49.0123 247.709 49.0739C247.414 49.1416 247.045 49.1785 246.601 49.1847C245.875 49.197 245.198 49.0677 244.57 48.7969C243.942 48.526 243.434 48.1075 243.047 47.5412C242.659 46.9749 242.465 46.264 242.465 45.4084V31.4205Z" fill="black"/>
<path d="M0 10C0 4.47715 4.47715 0 10 0H88L53.1574 80H10C4.47715 80 0 75.5229 0 70V10Z" fill="white" fill-opacity="0.5"/>
<circle cx="35" cy="40" r="15" stroke="#A1A1A1" stroke-width="6"/>
</svg>
