<svg width="261" height="80" viewBox="0 0 261 80" fill="none" xmlns="http://www.w3.org/2000/svg">
<rect width="261" height="80" rx="10" fill="#A2A2A2"/>
<path d="M90.7301 30.0909L95.9929 45.4915H96.2053L101.468 30.0909H104.552L97.7472 49H94.451L87.6463 30.0909H90.7301ZM107.061 49V34.8182H109.822V49H107.061ZM108.455 32.63C107.975 32.63 107.563 32.4699 107.218 32.1499C106.879 31.8236 106.71 31.4358 106.71 30.9865C106.71 30.531 106.879 30.1432 107.218 29.8232C107.563 29.4969 107.975 29.3338 108.455 29.3338C108.935 29.3338 109.345 29.4969 109.683 29.8232C110.028 30.1432 110.2 30.531 110.2 30.9865C110.2 31.4358 110.028 31.8236 109.683 32.1499C109.345 32.4699 108.935 32.63 108.455 32.63ZM125.668 34.8182L120.525 49H117.57L112.418 34.8182H115.382L118.974 45.7315H119.121L122.704 34.8182H125.668ZM133.892 49.2862C132.495 49.2862 131.291 48.9877 130.282 48.3906C129.278 47.7874 128.503 46.9411 127.955 45.8516C127.413 44.7559 127.143 43.4725 127.143 42.0014C127.143 40.5488 127.413 39.2685 127.955 38.1605C128.503 37.0526 129.266 36.1877 130.245 35.5661C131.23 34.9444 132.381 34.6335 133.698 34.6335C134.498 34.6335 135.274 34.7659 136.025 35.0305C136.776 35.2952 137.45 35.7107 138.047 36.277C138.644 36.8433 139.115 37.5788 139.459 38.4837C139.804 39.3823 139.976 40.4749 139.976 41.7614V42.7401H128.703V40.6719H137.271C137.271 39.9455 137.123 39.3023 136.828 38.7422C136.532 38.1759 136.117 37.7296 135.581 37.4034C135.052 37.0772 134.43 36.9141 133.716 36.9141C132.941 36.9141 132.264 37.1049 131.685 37.4865C131.113 37.862 130.67 38.3544 130.356 38.9638C130.048 39.567 129.894 40.2225 129.894 40.9304V42.5462C129.894 43.4941 130.06 44.3004 130.393 44.9652C130.731 45.63 131.202 46.1378 131.805 46.4886C132.408 46.8333 133.113 47.0057 133.92 47.0057C134.443 47.0057 134.92 46.9318 135.351 46.7841C135.782 46.6302 136.154 46.4025 136.468 46.1009C136.782 45.7992 137.022 45.4268 137.188 44.9837L139.801 45.4545C139.592 46.224 139.216 46.898 138.675 47.4766C138.139 48.049 137.465 48.4953 136.653 48.8153C135.846 49.1293 134.926 49.2862 133.892 49.2862ZM151.395 39.8132V42.2045H143.012V39.8132H151.395ZM156.893 49H153.865L160.67 30.0909H163.966L170.771 49H167.742L162.396 33.5256H162.249L156.893 49ZM157.401 41.5952H167.225V43.9957H157.401V41.5952ZM179.011 34.8182V37.0341H171.265V34.8182H179.011ZM173.342 31.4205H176.103V44.8359C176.103 45.3714 176.183 45.7746 176.343 46.0455C176.503 46.3101 176.709 46.4917 176.961 46.5902C177.22 46.6825 177.5 46.7287 177.801 46.7287C178.023 46.7287 178.217 46.7133 178.383 46.6825C178.549 46.6518 178.679 46.6271 178.771 46.6087L179.27 48.8892C179.109 48.9508 178.882 49.0123 178.586 49.0739C178.291 49.1416 177.922 49.1785 177.478 49.1847C176.752 49.197 176.075 49.0677 175.447 48.7969C174.819 48.526 174.311 48.1075 173.924 47.5412C173.536 46.9749 173.342 46.264 173.342 45.4084V31.4205ZM188.685 34.8182V37.0341H180.938V34.8182H188.685ZM183.016 31.4205H185.776V44.8359C185.776 45.3714 185.856 45.7746 186.017 46.0455C186.177 46.3101 186.383 46.4917 186.635 46.5902C186.894 46.6825 187.174 46.7287 187.475 46.7287C187.697 46.7287 187.891 46.7133 188.057 46.6825C188.223 46.6518 188.352 46.6271 188.445 46.6087L188.943 48.8892C188.783 48.9508 188.556 49.0123 188.26 49.0739C187.965 49.1416 187.595 49.1785 187.152 49.1847C186.426 49.197 185.749 49.0677 185.121 48.7969C184.493 48.526 183.985 48.1075 183.597 47.5412C183.21 46.9749 183.016 46.264 183.016 45.4084V31.4205ZM195.866 49.3139C194.967 49.3139 194.155 49.1477 193.428 48.8153C192.702 48.4768 192.126 47.9875 191.702 47.3473C191.283 46.7071 191.074 45.9223 191.074 44.9929C191.074 44.1927 191.228 43.5341 191.536 43.017C191.843 42.5 192.259 42.0907 192.782 41.7891C193.305 41.4875 193.89 41.2597 194.536 41.1058C195.183 40.9519 195.841 40.835 196.512 40.755C197.362 40.6565 198.051 40.5765 198.58 40.5149C199.11 40.4472 199.494 40.3395 199.734 40.1918C199.974 40.044 200.094 39.804 200.094 39.4716V39.407C200.094 38.6006 199.867 37.9759 199.411 37.5327C198.962 37.0895 198.291 36.8679 197.398 36.8679C196.469 36.8679 195.737 37.0741 195.201 37.4865C194.672 37.8928 194.305 38.3452 194.102 38.8438L191.508 38.2528C191.816 37.3911 192.265 36.6955 192.856 36.1662C193.453 35.6307 194.139 35.2429 194.915 35.0028C195.69 34.7566 196.506 34.6335 197.362 34.6335C197.928 34.6335 198.528 34.7012 199.162 34.8366C199.802 34.9659 200.399 35.206 200.953 35.5568C201.513 35.9077 201.972 36.4093 202.329 37.0618C202.686 37.7081 202.864 38.5483 202.864 39.5824V49H200.168V47.0611H200.058C199.879 47.4181 199.611 47.7689 199.254 48.1136C198.897 48.4583 198.439 48.7446 197.879 48.9723C197.318 49.2 196.647 49.3139 195.866 49.3139ZM196.466 47.098C197.229 47.098 197.882 46.9472 198.423 46.6456C198.971 46.344 199.387 45.95 199.67 45.4638C199.959 44.9714 200.104 44.4451 200.104 43.8849V42.0568C200.005 42.1553 199.814 42.2476 199.531 42.3338C199.254 42.4138 198.937 42.4846 198.58 42.5462C198.223 42.6016 197.875 42.6539 197.537 42.7031C197.198 42.7462 196.915 42.7831 196.688 42.8139C196.152 42.8816 195.663 42.9955 195.219 43.1555C194.782 43.3156 194.432 43.5464 194.167 43.848C193.908 44.1435 193.779 44.5374 193.779 45.0298C193.779 45.7131 194.031 46.2301 194.536 46.581C195.041 46.9257 195.684 47.098 196.466 47.098ZM216.116 54.3182V46.7933H215.95C215.784 47.0949 215.544 47.4396 215.23 47.8274C214.922 48.2152 214.497 48.5537 213.955 48.843C213.414 49.1323 212.712 49.277 211.85 49.277C210.705 49.277 209.684 48.9846 208.785 48.3999C207.892 47.8089 207.191 46.9687 206.68 45.8793C206.175 44.7836 205.923 43.4695 205.923 41.9368C205.923 40.4041 206.178 39.093 206.689 38.0036C207.206 36.9141 207.914 36.08 208.813 35.5014C209.711 34.9228 210.73 34.6335 211.869 34.6335C212.749 34.6335 213.457 34.7812 213.992 35.0767C214.534 35.366 214.953 35.7045 215.248 36.0923C215.55 36.4801 215.784 36.8217 215.95 37.1172H216.181V34.8182H218.877V54.3182H216.116ZM212.46 46.9226C213.254 46.9226 213.925 46.7133 214.472 46.2947C215.026 45.87 215.445 45.2822 215.728 44.5312C216.017 43.7803 216.162 42.9062 216.162 41.9091C216.162 40.9242 216.021 40.0625 215.737 39.3239C215.454 38.5852 215.039 38.0097 214.491 37.5973C213.943 37.1849 213.266 36.9787 212.46 36.9787C211.629 36.9787 210.936 37.1941 210.382 37.625C209.828 38.0559 209.41 38.6437 209.127 39.3885C208.85 40.1333 208.711 40.9735 208.711 41.9091C208.711 42.857 208.853 43.7095 209.136 44.4666C209.419 45.2237 209.838 45.8239 210.392 46.267C210.952 46.7041 211.641 46.9226 212.46 46.9226ZM231.572 43.1186V34.8182H234.342V49H231.627V46.544H231.48C231.153 47.3011 230.63 47.9321 229.91 48.4368C229.196 48.9354 228.307 49.1847 227.242 49.1847C226.331 49.1847 225.524 48.9846 224.823 48.5845C224.127 48.1783 223.579 47.5781 223.179 46.7841C222.785 45.9901 222.588 45.0083 222.588 43.8388V34.8182H225.349V43.5064C225.349 44.4728 225.617 45.2422 226.152 45.8146C226.688 46.3871 227.383 46.6733 228.239 46.6733C228.756 46.6733 229.27 46.544 229.781 46.2855C230.298 46.027 230.726 45.6361 231.064 45.1129C231.409 44.5897 231.578 43.925 231.572 43.1186ZM244.163 49.2862C242.766 49.2862 241.563 48.9877 240.553 48.3906C239.55 47.7874 238.774 46.9411 238.227 45.8516C237.685 44.7559 237.414 43.4725 237.414 42.0014C237.414 40.5488 237.685 39.2685 238.227 38.1605C238.774 37.0526 239.538 36.1877 240.516 35.5661C241.501 34.9444 242.652 34.6335 243.969 34.6335C244.77 34.6335 245.545 34.7659 246.296 35.0305C247.047 35.2952 247.721 35.7107 248.318 36.277C248.915 36.8433 249.386 37.5788 249.731 38.4837C250.076 39.3823 250.248 40.4749 250.248 41.7614V42.7401H238.974V40.6719H247.543C247.543 39.9455 247.395 39.3023 247.099 38.7422C246.804 38.1759 246.388 37.7296 245.853 37.4034C245.324 37.0772 244.702 36.9141 243.988 36.9141C243.212 36.9141 242.535 37.1049 241.957 37.4865C241.384 37.862 240.941 38.3544 240.627 38.9638C240.319 39.567 240.165 40.2225 240.165 40.9304V42.5462C240.165 43.4941 240.332 44.3004 240.664 44.9652C241.003 45.63 241.473 46.1378 242.077 46.4886C242.68 46.8333 243.385 47.0057 244.191 47.0057C244.714 47.0057 245.191 46.9318 245.622 46.7841C246.053 46.6302 246.425 46.4025 246.739 46.1009C247.053 45.7992 247.293 45.4268 247.46 44.9837L250.072 45.4545C249.863 46.224 249.488 46.898 248.946 47.4766C248.411 48.049 247.737 48.4953 246.924 48.8153C246.118 49.1293 245.197 49.2862 244.163 49.2862Z" fill="black"/>
<path d="M0 10C0 4.47715 4.47715 0 10 0H88L53.1574 80H10C4.47715 80 0 75.5229 0 70V10Z" fill="white" fill-opacity="0.5"/>
<circle cx="35" cy="40" r="15" stroke="#A1A1A1" stroke-width="6"/>
</svg>
