<svg width="261" height="80" viewBox="0 0 261 80" fill="none" xmlns="http://www.w3.org/2000/svg">
<rect width="261" height="80" rx="10" fill="#FF9900"/>
<path d="M95.1989 49H89.0774V30.0909H95.3928C97.2455 30.0909 98.8366 30.4695 100.166 31.2266C101.496 31.9775 102.514 33.0578 103.222 34.4673C103.936 35.8707 104.293 37.5542 104.293 39.5178C104.293 41.4875 103.933 43.1802 103.213 44.5959C102.499 46.0116 101.465 47.1011 100.111 47.8643C98.7566 48.6214 97.1193 49 95.1989 49ZM91.9304 46.5071H95.0419C96.4822 46.5071 97.6795 46.2363 98.6335 45.6946C99.5876 45.1468 100.302 44.3558 100.776 43.3217C101.25 42.2815 101.487 41.0135 101.487 39.5178C101.487 38.0343 101.25 36.7756 100.776 35.7415C100.308 34.7074 99.6091 33.9226 98.6797 33.3871C97.7502 32.8516 96.5961 32.5838 95.2173 32.5838H91.9304V46.5071ZM113.732 49.2862C112.334 49.2862 111.131 48.9877 110.122 48.3906C109.118 47.7874 108.343 46.9411 107.795 45.8516C107.253 44.7559 106.982 43.4725 106.982 42.0014C106.982 40.5488 107.253 39.2685 107.795 38.1605C108.343 37.0526 109.106 36.1877 110.085 35.5661C111.07 34.9444 112.221 34.6335 113.538 34.6335C114.338 34.6335 115.114 34.7659 115.865 35.0305C116.615 35.2952 117.289 35.7107 117.887 36.277C118.484 36.8433 118.954 37.5788 119.299 38.4837C119.644 39.3823 119.816 40.4749 119.816 41.7614V42.7401H108.543V40.6719H117.111C117.111 39.9455 116.963 39.3023 116.668 38.7422C116.372 38.1759 115.957 37.7296 115.421 37.4034C114.892 37.0772 114.27 36.9141 113.556 36.9141C112.781 36.9141 112.104 37.1049 111.525 37.4865C110.953 37.862 110.509 38.3544 110.195 38.9638C109.888 39.567 109.734 40.2225 109.734 40.9304V42.5462C109.734 43.4941 109.9 44.3004 110.232 44.9652C110.571 45.63 111.042 46.1378 111.645 46.4886C112.248 46.8333 112.953 47.0057 113.759 47.0057C114.283 47.0057 114.76 46.9318 115.191 46.7841C115.621 46.6302 115.994 46.4025 116.308 46.1009C116.622 45.7992 116.862 45.4268 117.028 44.9837L119.641 45.4545C119.432 46.224 119.056 46.898 118.514 47.4766C117.979 48.049 117.305 48.4953 116.492 48.8153C115.686 49.1293 114.766 49.2862 113.732 49.2862ZM112.291 32.9254L114.452 28.669H117.36L114.498 32.9254H112.291ZM129.629 34.8182V37.0341H121.614V34.8182H129.629ZM123.812 49V33.1747C123.812 32.2884 124.006 31.5528 124.393 30.968C124.781 30.3771 125.295 29.937 125.935 29.6477C126.576 29.3523 127.271 29.2045 128.022 29.2045C128.576 29.2045 129.05 29.2507 129.444 29.343C129.838 29.4292 130.13 29.5092 130.321 29.5831L129.675 31.8175C129.545 31.7805 129.379 31.7375 129.176 31.6882C128.973 31.6328 128.727 31.6051 128.438 31.6051C127.767 31.6051 127.286 31.7713 126.997 32.1037C126.714 32.4361 126.572 32.9162 126.572 33.544V49H123.812ZM135.238 30.0909V49H132.477V30.0909H135.238ZM143.079 49.3139C142.18 49.3139 141.367 49.1477 140.641 48.8153C139.915 48.4768 139.339 47.9875 138.915 47.3473C138.496 46.7071 138.287 45.9223 138.287 44.9929C138.287 44.1927 138.441 43.5341 138.748 43.017C139.056 42.5 139.472 42.0907 139.995 41.7891C140.518 41.4875 141.103 41.2597 141.749 41.1058C142.395 40.9519 143.054 40.835 143.725 40.755C144.574 40.6565 145.264 40.5765 145.793 40.5149C146.323 40.4472 146.707 40.3395 146.947 40.1918C147.187 40.044 147.307 39.804 147.307 39.4716V39.407C147.307 38.6006 147.08 37.9759 146.624 37.5327C146.175 37.0895 145.504 36.8679 144.611 36.8679C143.682 36.8679 142.949 37.0741 142.414 37.4865C141.885 37.8928 141.518 38.3452 141.315 38.8438L138.721 38.2528C139.028 37.3911 139.478 36.6955 140.069 36.1662C140.666 35.6307 141.352 35.2429 142.128 35.0028C142.903 34.7566 143.719 34.6335 144.574 34.6335C145.141 34.6335 145.741 34.7012 146.375 34.8366C147.015 34.9659 147.612 35.206 148.166 35.5568C148.726 35.9077 149.185 36.4093 149.542 37.0618C149.899 37.7081 150.077 38.5483 150.077 39.5824V49H147.381V47.0611H147.27C147.092 47.4181 146.824 47.7689 146.467 48.1136C146.11 48.4583 145.652 48.7446 145.091 48.9723C144.531 49.2 143.86 49.3139 143.079 49.3139ZM143.679 47.098C144.442 47.098 145.095 46.9472 145.636 46.6456C146.184 46.344 146.599 45.95 146.883 45.4638C147.172 44.9714 147.317 44.4451 147.317 43.8849V42.0568C147.218 42.1553 147.027 42.2476 146.744 42.3338C146.467 42.4138 146.15 42.4846 145.793 42.5462C145.436 42.6016 145.088 42.6539 144.75 42.7031C144.411 42.7462 144.128 42.7831 143.9 42.8139C143.365 42.8816 142.876 42.9955 142.432 43.1555C141.995 43.3156 141.644 43.5464 141.38 43.848C141.121 44.1435 140.992 44.5374 140.992 45.0298C140.992 45.7131 141.244 46.2301 141.749 46.581C142.254 46.9257 142.897 47.098 143.679 47.098ZM159.7 54.6136C158.574 54.6136 157.604 54.4659 156.792 54.1705C155.986 53.875 155.327 53.4841 154.816 52.9979C154.305 52.5116 153.924 51.9792 153.671 51.4006L156.044 50.4219C156.21 50.6927 156.432 50.9789 156.709 51.2805C156.992 51.5883 157.374 51.8499 157.854 52.0653C158.34 52.2808 158.965 52.3885 159.728 52.3885C160.774 52.3885 161.639 52.133 162.322 51.6222C163.006 51.1174 163.347 50.3111 163.347 49.2031V46.4148H163.172C163.006 46.7164 162.766 47.0518 162.452 47.4212C162.144 47.7905 161.719 48.1106 161.178 48.3814C160.636 48.6522 159.931 48.7876 159.063 48.7876C157.943 48.7876 156.933 48.526 156.035 48.0028C155.142 47.4735 154.434 46.6948 153.911 45.6669C153.394 44.6328 153.136 43.3617 153.136 41.8537C153.136 40.3456 153.391 39.053 153.902 37.9759C154.419 36.8987 155.127 36.0739 156.026 35.5014C156.924 34.9228 157.943 34.6335 159.082 34.6335C159.962 34.6335 160.673 34.7812 161.214 35.0767C161.756 35.366 162.178 35.7045 162.479 36.0923C162.787 36.4801 163.024 36.8217 163.19 37.1172H163.393V34.8182H166.099V49.3139C166.099 50.5327 165.816 51.5329 165.249 52.3146C164.683 53.0964 163.917 53.675 162.95 54.0504C161.99 54.4259 160.907 54.6136 159.7 54.6136ZM159.673 46.4979C160.467 46.4979 161.138 46.3132 161.685 45.9439C162.239 45.5684 162.658 45.0329 162.941 44.3374C163.23 43.6357 163.375 42.7955 163.375 41.8168C163.375 40.8627 163.233 40.0225 162.95 39.2962C162.667 38.5698 162.252 38.0036 161.704 37.5973C161.156 37.1849 160.479 36.9787 159.673 36.9787C158.842 36.9787 158.149 37.1941 157.595 37.625C157.041 38.0497 156.623 38.6283 156.339 39.3608C156.063 40.0933 155.924 40.9119 155.924 41.8168C155.924 42.7462 156.066 43.5618 156.349 44.2635C156.632 44.9652 157.05 45.513 157.604 45.907C158.165 46.3009 158.854 46.4979 159.673 46.4979ZM169.801 49V34.8182H172.469V37.071H172.617C172.876 36.3078 173.331 35.7076 173.984 35.2706C174.642 34.8274 175.387 34.6058 176.218 34.6058C176.39 34.6058 176.594 34.612 176.827 34.6243C177.067 34.6366 177.255 34.652 177.391 34.6705V37.3111C177.28 37.2803 177.083 37.2464 176.8 37.2095C176.517 37.1664 176.233 37.1449 175.95 37.1449C175.298 37.1449 174.716 37.2834 174.205 37.5604C173.701 37.8312 173.3 38.2098 173.005 38.696C172.71 39.1761 172.562 39.724 172.562 40.3395V49H169.801ZM183.78 49.3139C182.881 49.3139 182.069 49.1477 181.342 48.8153C180.616 48.4768 180.04 47.9875 179.616 47.3473C179.197 46.7071 178.988 45.9223 178.988 44.9929C178.988 44.1927 179.142 43.5341 179.45 43.017C179.757 42.5 180.173 42.0907 180.696 41.7891C181.219 41.4875 181.804 41.2597 182.45 41.1058C183.097 40.9519 183.755 40.835 184.426 40.755C185.276 40.6565 185.965 40.5765 186.494 40.5149C187.024 40.4472 187.408 40.3395 187.648 40.1918C187.888 40.044 188.009 39.804 188.009 39.4716V39.407C188.009 38.6006 187.781 37.9759 187.325 37.5327C186.876 37.0895 186.205 36.8679 185.312 36.8679C184.383 36.8679 183.651 37.0741 183.115 37.4865C182.586 37.8928 182.219 38.3452 182.016 38.8438L179.422 38.2528C179.73 37.3911 180.179 36.6955 180.77 36.1662C181.367 35.6307 182.053 35.2429 182.829 35.0028C183.604 34.7566 184.42 34.6335 185.276 34.6335C185.842 34.6335 186.442 34.7012 187.076 34.8366C187.716 34.9659 188.313 35.206 188.867 35.5568C189.427 35.9077 189.886 36.4093 190.243 37.0618C190.6 37.7081 190.778 38.5483 190.778 39.5824V49H188.082V47.0611H187.972C187.793 47.4181 187.525 47.7689 187.168 48.1136C186.811 48.4583 186.353 48.7446 185.793 48.9723C185.232 49.2 184.562 49.3139 183.78 49.3139ZM184.38 47.098C185.143 47.098 185.796 46.9472 186.337 46.6456C186.885 46.344 187.301 45.95 187.584 45.4638C187.873 44.9714 188.018 44.4451 188.018 43.8849V42.0568C187.919 42.1553 187.728 42.2476 187.445 42.3338C187.168 42.4138 186.851 42.4846 186.494 42.5462C186.137 42.6016 185.79 42.6539 185.451 42.7031C185.112 42.7462 184.829 42.7831 184.602 42.8139C184.066 42.8816 183.577 42.9955 183.134 43.1555C182.696 43.3156 182.346 43.5464 182.081 43.848C181.822 44.1435 181.693 44.5374 181.693 45.0298C181.693 45.7131 181.946 46.2301 182.45 46.581C182.955 46.9257 183.598 47.098 184.38 47.098ZM201.075 34.8182V37.0341H193.329V34.8182H201.075ZM195.406 31.4205H198.167V44.8359C198.167 45.3714 198.247 45.7746 198.407 46.0455C198.567 46.3101 198.773 46.4917 199.026 46.5902C199.284 46.6825 199.564 46.7287 199.866 46.7287C200.088 46.7287 200.281 46.7133 200.448 46.6825C200.614 46.6518 200.743 46.6271 200.835 46.6087L201.334 48.8892C201.174 48.9508 200.946 49.0123 200.651 49.0739C200.355 49.1416 199.986 49.1785 199.543 49.1847C198.816 49.197 198.139 49.0677 197.512 48.7969C196.884 48.526 196.376 48.1075 195.988 47.5412C195.6 46.9749 195.406 46.264 195.406 45.4084V31.4205ZM204.129 49V34.8182H206.89V49H204.129ZM205.523 32.63C205.043 32.63 204.631 32.4699 204.286 32.1499C203.948 31.8236 203.778 31.4358 203.778 30.9865C203.778 30.531 203.948 30.1432 204.286 29.8232C204.631 29.4969 205.043 29.3338 205.523 29.3338C206.004 29.3338 206.413 29.4969 206.751 29.8232C207.096 30.1432 207.268 30.531 207.268 30.9865C207.268 31.4358 207.096 31.8236 206.751 32.1499C206.413 32.4699 206.004 32.63 205.523 32.63ZM216.578 49.2862C215.248 49.2862 214.088 48.9815 213.097 48.3722C212.106 47.7628 211.336 46.9103 210.789 45.8146C210.241 44.719 209.967 43.4387 209.967 41.9737C209.967 40.5026 210.241 39.2161 210.789 38.1143C211.336 37.0125 212.106 36.157 213.097 35.5476C214.088 34.9382 215.248 34.6335 216.578 34.6335C217.907 34.6335 219.067 34.9382 220.058 35.5476C221.049 36.157 221.819 37.0125 222.367 38.1143C222.914 39.2161 223.188 40.5026 223.188 41.9737C223.188 43.4387 222.914 44.719 222.367 45.8146C221.819 46.9103 221.049 47.7628 220.058 48.3722C219.067 48.9815 217.907 49.2862 216.578 49.2862ZM216.587 46.9688C217.449 46.9688 218.163 46.741 218.729 46.2855C219.295 45.83 219.714 45.2237 219.985 44.4666C220.262 43.7095 220.4 42.8755 220.4 41.9645C220.4 41.0597 220.262 40.2287 219.985 39.4716C219.714 38.7083 219.295 38.0959 218.729 37.6342C218.163 37.1726 217.449 36.9418 216.587 36.9418C215.719 36.9418 214.999 37.1726 214.426 37.6342C213.86 38.0959 213.438 38.7083 213.161 39.4716C212.891 40.2287 212.755 41.0597 212.755 41.9645C212.755 42.8755 212.891 43.7095 213.161 44.4666C213.438 45.2237 213.86 45.83 214.426 46.2855C214.999 46.741 215.719 46.9688 216.587 46.9688ZM229.031 40.5795V49H226.27V34.8182H228.92V37.1264H229.095C229.421 36.3755 229.932 35.7723 230.628 35.3168C231.33 34.8613 232.213 34.6335 233.278 34.6335C234.244 34.6335 235.09 34.8366 235.817 35.2429C236.543 35.643 237.106 36.2401 237.506 37.0341C237.906 37.8281 238.107 38.8099 238.107 39.9794V49H235.346V40.3118C235.346 39.2839 235.078 38.4806 234.543 37.902C234.007 37.3172 233.272 37.0249 232.336 37.0249C231.696 37.0249 231.126 37.1634 230.628 37.4403C230.135 37.7173 229.745 38.1236 229.455 38.6591C229.172 39.1884 229.031 39.8286 229.031 40.5795Z" fill="black"/>
<path d="M0 10C0 4.47715 4.47715 0 10 0H88L53.1574 80H10C4.47715 80 0 75.5228 0 70V10Z" fill="white" fill-opacity="0.5"/>
<path d="M33.7212 20.4579L31.2933 19L30.8308 21.798C30.0947 26.216 27.0829 30.3213 23.7609 33.2061C17.2576 38.8561 15.8336 44.9966 17.8472 50.0654C19.7741 54.916 24.6647 58.2373 29.6284 58.7915L30.7769 58.9189C27.9366 57.1791 26.1137 53.1144 26.7496 50.077C27.3778 47.0917 29.5205 44.2957 33.6364 41.7159L35.7117 40.4183L36.4863 42.7451C36.943 44.12 37.7331 45.2245 38.5366 46.3464C38.922 46.887 39.3131 47.4335 39.6715 48.0147C40.9106 50.0326 41.2381 52.2764 40.4385 54.5028C39.7101 56.5264 38.5077 58.1175 36.8544 59L38.7235 58.7915C43.3828 58.272 46.8031 56.6751 49.0248 54.0046C51.2273 51.3572 52 47.9491 52 44.3208C52 40.9416 50.6145 37.4581 48.9805 34.5597C47.0651 31.1651 44.5659 28.3459 41.8374 25.6136C41.3653 26.5597 41.4019 26.9421 40.4307 28.4617C39.1701 25.1053 36.8028 22.2813 33.7212 20.4579Z" fill="#FF9900"/>
</svg>
