<svg width="261" height="48" viewBox="0 0 261 48" fill="none" xmlns="http://www.w3.org/2000/svg">
<rect width="261" height="48" rx="10" fill="#E08129"/>
<path d="M117.783 20.2401H114.902C114.791 19.6245 114.585 19.0829 114.283 18.6151C113.982 18.1473 113.612 17.7502 113.175 17.424C112.738 17.0978 112.249 16.8516 111.707 16.6854C111.172 16.5192 110.603 16.4361 109.999 16.4361C108.91 16.4361 107.934 16.71 107.072 17.2578C106.217 17.8056 105.54 18.6089 105.041 19.6676C104.549 20.7263 104.303 22.0189 104.303 23.5455C104.303 25.0843 104.549 26.383 105.041 27.4418C105.54 28.5005 106.22 29.3007 107.082 29.8423C107.943 30.384 108.913 30.6548 109.99 30.6548C110.587 30.6548 111.153 30.5748 111.689 30.4148C112.231 30.2486 112.72 30.0054 113.157 29.6854C113.594 29.3653 113.963 28.9744 114.265 28.5128C114.573 28.045 114.785 27.5095 114.902 26.9062L117.783 26.9155C117.629 27.8449 117.33 28.7005 116.887 29.4822C116.45 30.2578 115.887 30.9287 115.197 31.495C114.514 32.0552 113.732 32.4891 112.852 32.7969C111.972 33.1046 111.012 33.2585 109.972 33.2585C108.334 33.2585 106.875 32.8707 105.595 32.0952C104.315 31.3134 103.305 30.1963 102.567 28.7436C101.834 27.291 101.468 25.5582 101.468 23.5455C101.468 21.5265 101.837 19.7938 102.576 18.3473C103.315 16.8946 104.324 15.7805 105.604 15.005C106.885 14.2232 108.34 13.8324 109.972 13.8324C110.975 13.8324 111.911 13.977 112.778 14.2663C113.652 14.5495 114.437 14.968 115.133 15.522C115.828 16.0698 116.404 16.7408 116.859 17.5348C117.315 18.3227 117.623 19.2244 117.783 20.2401ZM126.949 33.2862C125.619 33.2862 124.459 32.9815 123.468 32.3722C122.477 31.7628 121.707 30.9103 121.16 29.8146C120.612 28.719 120.338 27.4387 120.338 25.9737C120.338 24.5026 120.612 23.2161 121.16 22.1143C121.707 21.0125 122.477 20.157 123.468 19.5476C124.459 18.9382 125.619 18.6335 126.949 18.6335C128.278 18.6335 129.439 18.9382 130.43 19.5476C131.421 20.157 132.19 21.0125 132.738 22.1143C133.286 23.2161 133.559 24.5026 133.559 25.9737C133.559 27.4387 133.286 28.719 132.738 29.8146C132.19 30.9103 131.421 31.7628 130.43 32.3722C129.439 32.9815 128.278 33.2862 126.949 33.2862ZM126.958 30.9688C127.82 30.9688 128.534 30.741 129.1 30.2855C129.666 29.83 130.085 29.2237 130.356 28.4666C130.633 27.7095 130.771 26.8755 130.771 25.9645C130.771 25.0597 130.633 24.2287 130.356 23.4716C130.085 22.7083 129.666 22.0959 129.1 21.6342C128.534 21.1726 127.82 20.9418 126.958 20.9418C126.09 20.9418 125.37 21.1726 124.797 21.6342C124.231 22.0959 123.809 22.7083 123.532 23.4716C123.262 24.2287 123.126 25.0597 123.126 25.9645C123.126 26.8755 123.262 27.7095 123.532 28.4666C123.809 29.2237 124.231 29.83 124.797 30.2855C125.37 30.741 126.09 30.9688 126.958 30.9688ZM136.641 33V18.8182H139.291V21.1264H139.466C139.762 20.3447 140.245 19.7353 140.916 19.2983C141.587 18.8551 142.39 18.6335 143.326 18.6335C144.274 18.6335 145.068 18.8551 145.708 19.2983C146.354 19.7415 146.831 20.3509 147.139 21.1264H147.287C147.625 20.3693 148.164 19.7661 148.902 19.3168C149.641 18.8613 150.521 18.6335 151.543 18.6335C152.829 18.6335 153.879 19.0367 154.691 19.843C155.51 20.6494 155.919 21.8651 155.919 23.4901V33H153.159V23.7486C153.159 22.7884 152.897 22.0928 152.374 21.6619C151.851 21.2311 151.226 21.0156 150.5 21.0156C149.601 21.0156 148.902 21.2926 148.404 21.8466C147.905 22.3944 147.656 23.0992 147.656 23.9609V33H144.904V23.5732C144.904 22.8037 144.664 22.1851 144.184 21.7173C143.704 21.2495 143.079 21.0156 142.31 21.0156C141.787 21.0156 141.304 21.1541 140.86 21.4311C140.423 21.7019 140.069 22.0805 139.799 22.5668C139.534 23.053 139.402 23.6162 139.402 24.2564V33H136.641ZM159.841 33V14.0909H162.602V21.1172H162.768C162.928 20.8217 163.159 20.4801 163.46 20.0923C163.762 19.7045 164.181 19.366 164.716 19.0767C165.252 18.7812 165.959 18.6335 166.84 18.6335C167.985 18.6335 169.006 18.9228 169.905 19.5014C170.804 20.08 171.508 20.9141 172.019 22.0036C172.536 23.093 172.795 24.4041 172.795 25.9368C172.795 27.4695 172.539 28.7836 172.029 29.8793C171.518 30.9687 170.816 31.8089 169.923 32.3999C169.031 32.9846 168.012 33.277 166.867 33.277C166.006 33.277 165.301 33.1323 164.753 32.843C164.211 32.5537 163.787 32.2152 163.479 31.8274C163.171 31.4396 162.934 31.0949 162.768 30.7933H162.537V33H159.841ZM162.546 25.9091C162.546 26.9062 162.691 27.7803 162.98 28.5312C163.27 29.2822 163.688 29.87 164.236 30.2947C164.784 30.7133 165.455 30.9226 166.249 30.9226C167.074 30.9226 167.763 30.7041 168.317 30.267C168.871 29.8239 169.289 29.2237 169.573 28.4666C169.862 27.7095 170.007 26.857 170.007 25.9091C170.007 24.9735 169.865 24.1333 169.582 23.3885C169.305 22.6437 168.886 22.0559 168.326 21.625C167.772 21.1941 167.08 20.9787 166.249 20.9787C165.449 20.9787 164.771 21.1849 164.218 21.5973C163.67 22.0097 163.254 22.5852 162.971 23.3239C162.688 24.0625 162.546 24.9242 162.546 25.9091ZM180.022 33.3139C179.123 33.3139 178.311 33.1477 177.585 32.8153C176.858 32.4768 176.283 31.9875 175.858 31.3473C175.439 30.7071 175.23 29.9223 175.23 28.9929C175.23 28.1927 175.384 27.5341 175.692 27.017C176 26.5 176.415 26.0907 176.938 25.7891C177.461 25.4875 178.046 25.2597 178.692 25.1058C179.339 24.9519 179.997 24.835 180.668 24.755C181.518 24.6565 182.207 24.5765 182.737 24.5149C183.266 24.4472 183.651 24.3395 183.891 24.1918C184.131 24.044 184.251 23.804 184.251 23.4716V23.407C184.251 22.6006 184.023 21.9759 183.567 21.5327C183.118 21.0895 182.447 20.8679 181.555 20.8679C180.625 20.8679 179.893 21.0741 179.357 21.4865C178.828 21.8928 178.462 22.3452 178.259 22.8438L175.664 22.2528C175.972 21.3911 176.421 20.6955 177.012 20.1662C177.609 19.6307 178.295 19.2429 179.071 19.0028C179.847 18.7566 180.662 18.6335 181.518 18.6335C182.084 18.6335 182.684 18.7012 183.318 18.8366C183.958 18.9659 184.555 19.206 185.109 19.5568C185.67 19.9077 186.128 20.4093 186.485 21.0618C186.842 21.7081 187.021 22.5483 187.021 23.5824V33H184.325V31.0611H184.214C184.035 31.4181 183.768 31.7689 183.411 32.1136C183.054 32.4583 182.595 32.7446 182.035 32.9723C181.475 33.2 180.804 33.3139 180.022 33.3139ZM180.622 31.098C181.385 31.098 182.038 30.9472 182.58 30.6456C183.127 30.344 183.543 29.95 183.826 29.4638C184.115 28.9714 184.26 28.4451 184.26 27.8849V26.0568C184.161 26.1553 183.971 26.2476 183.688 26.3338C183.411 26.4138 183.094 26.4846 182.737 26.5462C182.379 26.6016 182.032 26.6539 181.693 26.7031C181.355 26.7462 181.071 26.7831 180.844 26.8139C180.308 26.8816 179.819 26.9955 179.376 27.1555C178.939 27.3156 178.588 27.5464 178.323 27.848C178.065 28.1435 177.935 28.5374 177.935 29.0298C177.935 29.7131 178.188 30.2301 178.692 30.581C179.197 30.9257 179.84 31.098 180.622 31.098ZM197.318 18.8182V21.0341H189.571V18.8182H197.318ZM191.649 15.4205H194.409V28.8359C194.409 29.3714 194.489 29.7746 194.649 30.0455C194.809 30.3101 195.016 30.4917 195.268 30.5902C195.526 30.6825 195.807 30.7287 196.108 30.7287C196.33 30.7287 196.524 30.7133 196.69 30.6825C196.856 30.6518 196.985 30.6271 197.078 30.6087L197.576 32.8892C197.416 32.9508 197.188 33.0123 196.893 33.0739C196.597 33.1416 196.228 33.1785 195.785 33.1847C195.059 33.197 194.382 33.0677 193.754 32.7969C193.126 32.526 192.618 32.1075 192.23 31.5412C191.843 30.9749 191.649 30.264 191.649 29.4084V15.4205Z" fill="black"/>
<path d="M0 10C0 4.47715 4.47715 0 10 0H87L65.5253 48H10C4.47715 48 0 43.5228 0 38V10Z" fill="#D9D9D9" fill-opacity="0.5"/>
<path d="M41.9984 17.9375V8.09375C41.9984 7.48945 41.4391 7 40.7484 7H38.2484C37.5578 7 36.9984 7.48945 36.9984 8.09375V18.1378C37.3906 18.0161 37.8062 17.9375 38.2461 17.9375H41.9984ZM51.9984 24.4993C51.9977 22.0835 49.7594 20.125 46.9992 20.125H38.2383C37.5523 20.125 36.9961 20.6083 36.9961 21.2085V21.2468C36.9961 23.0426 38.6602 24.5 40.7125 24.5H43.4672C44.2234 24.5 44.4984 24.7447 44.4984 25.0469V26.1543C44.4984 26.4476 44.218 26.6861 43.8828 26.7012C40.4047 26.857 38.8703 28.3903 36.3789 31.6606L35.8859 32.308C35.8405 32.3678 35.782 32.4191 35.7138 32.4591C35.6456 32.4991 35.5691 32.5269 35.4887 32.541C35.4082 32.5551 35.3254 32.5552 35.2449 32.5412C35.1644 32.5273 35.0878 32.4996 35.0195 32.4598L33.9797 31.8527C33.9114 31.8129 33.8527 31.7618 33.807 31.7021C33.7613 31.6425 33.7295 31.5755 33.7134 31.5051C33.6973 31.4347 33.6972 31.3622 33.7132 31.2918C33.7291 31.2214 33.7607 31.1544 33.8062 31.0946L34.2992 30.4473C35.5281 28.834 36.6586 27.49 37.9953 26.477C36.6461 26.1003 35.5422 25.2383 34.9586 24.122C34.4437 24.3551 33.868 24.4993 33.25 24.4993H30.75C29.7859 24.4993 28.9148 24.1705 28.25 23.6462C27.5844 24.1712 26.7133 24.5 25.75 24.5H23.25C22.8094 24.5 22.393 24.4214 22 24.2983V29.6256C22 31.9464 23.0531 34.1715 24.9289 35.8128L26.9992 37.625V42H46.9977V37.6277L49.8031 35.1723C51.21 33.941 52.0002 32.2711 52 30.53L51.9984 24.4993ZM49.4977 18.3408V10.2812C49.4977 9.67695 48.9383 9.1875 48.2477 9.1875H45.7477C45.057 9.1875 44.4977 9.67695 44.4977 10.2812V17.9375H46.9977C47.8789 17.9375 48.7117 18.0954 49.4977 18.3408ZM23.25 22.3125H25.75C26.4406 22.3125 27 21.823 27 21.2188V12.4688C27 11.8645 26.4406 11.375 25.75 11.375H23.25C22.5594 11.375 22 11.8645 22 12.4688V21.2188C22 21.823 22.5594 22.3125 23.25 22.3125ZM30.7492 22.3125H33.2492C33.9398 22.3125 34.4992 21.823 34.4992 21.2188V10.2812C34.4992 9.67695 33.9398 9.1875 33.2492 9.1875H30.7492C30.0586 9.1875 29.4992 9.67695 29.4992 10.2812V21.2188C29.4992 21.823 30.0586 22.3125 30.7492 22.3125Z" fill="#E08129"/>
</svg>
